  0
SECTION
  2
HEADER
  9
$ACADVER
  1
AC1009
  9
$EXTMIN
 10
0.0
 20
0.0
 30
0.0
  9
$EXTMAX
 10
1000.0
 20
1000.0
 30
0.0
  9
$FILLMODE
 70
 0
  9
$SPLFRAME
 70
 1
  0
ENDSEC
  0
SECTION
  2
TABLES
  0
TABLE
  2
LAYER
 70
1
  0
LAYER
  2
0
 70
     0
 62
     7
  6
CONTINUOUS
  0
ENDTAB
  0
ENDSEC
  0
SECTION
  2
ENTITIES
  0
LINE
  8
0
 62
     0
 10
285.469
 20
40.9924
 30
0.0
 11
281.969
 21
40.9924
 31
0.0
  0
LINE
  8
0
 62
     0
 10
281.969
 20
40.9924
 30
0.0
 11
281.196
 21
40.87
 31
0.0
  0
LINE
  8
0
 62
     0
 10
281.196
 20
40.87
 30
0.0
 11
280.5
 21
40.5158
 31
0.0
  0
LINE
  8
0
 62
     0
 10
280.5
 20
40.5158
 30
0.0
 11
279.947
 21
39.963
 31
0.0
  0
LINE
  8
0
 62
     0
 10
279.947
 20
39.963
 30
0.0
 11
279.592
 21
39.2659
 31
0.0
  0
LINE
  8
0
 62
     0
 10
279.592
 20
39.2659
 30
0.0
 11
279.469
 21
38.4941
 31
0.0
  0
LINE
  8
0
 62
     0
 10
279.469
 20
38.4941
 30
0.0
 11
279.592
 21
37.7197
 31
0.0
  0
LINE
  8
0
 62
     0
 10
279.592
 20
37.7197
 30
0.0
 11
279.947
 21
37.0237
 31
0.0
  0
LINE
  8
0
 62
     0
 10
279.947
 20
37.0237
 30
0.0
 11
280.5
 21
36.4698
 31
0.0
  0
LINE
  8
0
 62
     0
 10
280.5
 20
36.4698
 30
0.0
 11
281.196
 21
36.1142
 31
0.0
  0
LINE
  8
0
 62
     0
 10
281.196
 20
36.1142
 30
0.0
 11
281.969
 21
35.9929
 31
0.0
  0
LINE
  8
0
 62
     0
 10
281.969
 20
35.9929
 30
0.0
 11
285.469
 21
35.9929
 31
0.0
  0
LINE
  8
0
 62
     0
 10
285.469
 20
35.9929
 30
0.0
 11
285.469
 21
0.228755
 31
0.0
  0
LINE
  8
0
 62
     0
 10
285.469
 20
0.228755
 30
0.0
 11
0.0950846
 21
0.228755
 31
0.0
  0
LINE
  8
0
 62
     0
 10
0.0950846
 20
0.228755
 30
0.0
 11
0.0950846
 21
35.9929
 31
0.0
  0
LINE
  8
0
 62
     0
 10
0.0950846
 20
35.9929
 30
0.0
 11
3.59392
 21
35.9929
 31
0.0
  0
LINE
  8
0
 62
     0
 10
3.59392
 20
35.9929
 30
0.0
 11
4.367
 21
36.1142
 31
0.0
  0
LINE
  8
0
 62
     0
 10
4.367
 20
36.1142
 30
0.0
 11
5.06293
 21
36.4698
 31
0.0
  0
LINE
  8
0
 62
     0
 10
5.06293
 20
36.4698
 30
0.0
 11
5.61689
 21
37.0237
 31
0.0
  0
LINE
  8
0
 62
     0
 10
5.61689
 20
37.0237
 30
0.0
 11
5.97105
 21
37.7197
 31
0.0
  0
LINE
  8
0
 62
     0
 10
5.97105
 20
37.7197
 30
0.0
 11
6.09505
 21
38.4926
 31
0.0
  0
LINE
  8
0
 62
     0
 10
6.09505
 20
38.4926
 30
0.0
 11
5.97105
 21
39.2659
 31
0.0
  0
LINE
  8
0
 62
     0
 10
5.97105
 20
39.2659
 30
0.0
 11
5.61689
 21
39.963
 31
0.0
  0
LINE
  8
0
 62
     0
 10
5.61689
 20
39.963
 30
0.0
 11
5.06293
 21
40.5158
 31
0.0
  0
LINE
  8
0
 62
     0
 10
5.06293
 20
40.5158
 30
0.0
 11
4.367
 21
40.87
 31
0.0
  0
LINE
  8
0
 62
     0
 10
4.367
 20
40.87
 30
0.0
 11
3.5953
 21
40.9924
 31
0.0
  0
LINE
  8
0
 62
     0
 10
3.5953
 20
40.9924
 30
0.0
 11
0.0950846
 21
40.9924
 31
0.0
  0
LINE
  8
0
 62
     0
 10
0.0950846
 20
40.9924
 30
0.0
 11
0.0950846
 21
95.1548
 31
0.0
  0
LINE
  8
0
 62
     0
 10
0.0950846
 20
95.1548
 30
0.0
 11
285.469
 21
95.1548
 31
0.0
  0
LINE
  8
0
 62
     0
 10
285.469
 20
95.1548
 30
0.0
 11
285.469
 21
40.9924
 31
0.0
  0
LINE
  8
0
 62
     0
 10
133.401
 20
16.593
 30
0.0
 11
133.401
 21
15.5939
 31
0.0
  0
LINE
  8
0
 62
     0
 10
133.401
 20
15.5939
 30
0.0
 11
132.6
 21
15.5939
 31
0.0
  0
LINE
  8
0
 62
     0
 10
132.6
 20
15.5939
 30
0.0
 11
132.6
 21
12.4919
 31
0.0
  0
LINE
  8
0
 62
     0
 10
132.6
 20
12.4919
 30
0.0
 11
133.401
 21
12.4919
 31
0.0
  0
LINE
  8
0
 62
     0
 10
133.401
 20
12.4919
 30
0.0
 11
133.401
 21
11.8938
 31
0.0
  0
LINE
  8
0
 62
     0
 10
133.401
 20
11.8938
 30
0.0
 11
93.7754
 21
11.8938
 31
0.0
  0
LINE
  8
0
 62
     0
 10
93.7754
 20
11.8938
 30
0.0
 11
93.7754
 21
15.124
 31
0.0
  0
LINE
  8
0
 62
     0
 10
93.7754
 20
15.124
 30
0.0
 11
87.026
 21
15.124
 31
0.0
  0
LINE
  8
0
 62
     0
 10
87.026
 20
15.124
 30
0.0
 11
87.026
 21
11.8938
 31
0.0
  0
LINE
  8
0
 62
     0
 10
87.026
 20
11.8938
 30
0.0
 11
86.1991
 21
11.8938
 31
0.0
  0
LINE
  8
0
 62
     0
 10
86.1991
 20
11.8938
 30
0.0
 11
86.1991
 21
9.09366
 31
0.0
  0
LINE
  8
0
 62
     0
 10
86.1991
 20
9.09366
 30
0.0
 11
87.026
 21
9.09366
 31
0.0
  0
LINE
  8
0
 62
     0
 10
87.026
 20
9.09366
 30
0.0
 11
87.026
 21
2.8236
 31
0.0
  0
LINE
  8
0
 62
     0
 10
87.026
 20
2.8236
 30
0.0
 11
88.7511
 21
2.8236
 31
0.0
  0
LINE
  8
0
 62
     0
 10
88.7511
 20
2.8236
 30
0.0
 11
88.7511
 21
1.62333
 31
0.0
  0
LINE
  8
0
 62
     0
 10
88.7511
 20
1.62333
 30
0.0
 11
92.0503
 21
1.62333
 31
0.0
  0
LINE
  8
0
 62
     0
 10
92.0503
 20
1.62333
 30
0.0
 11
92.0503
 21
2.8236
 31
0.0
  0
LINE
  8
0
 62
     0
 10
92.0503
 20
2.8236
 30
0.0
 11
93.7754
 21
2.8236
 31
0.0
  0
LINE
  8
0
 62
     0
 10
93.7754
 20
2.8236
 30
0.0
 11
93.7754
 21
7.29396
 31
0.0
  0
LINE
  8
0
 62
     0
 10
93.7754
 20
7.29396
 30
0.0
 11
133.401
 21
7.29396
 31
0.0
  0
LINE
  8
0
 62
     0
 10
133.401
 20
7.29396
 30
0.0
 11
133.401
 21
6.69315
 31
0.0
  0
LINE
  8
0
 62
     0
 10
133.401
 20
6.69315
 30
0.0
 11
132.6
 21
6.69315
 31
0.0
  0
LINE
  8
0
 62
     0
 10
132.6
 20
6.69315
 30
0.0
 11
132.6
 21
3.59392
 31
0.0
  0
LINE
  8
0
 62
     0
 10
132.6
 20
3.59392
 30
0.0
 11
133.401
 21
3.59392
 31
0.0
  0
LINE
  8
0
 62
     0
 10
133.401
 20
3.59392
 30
0.0
 11
133.401
 21
2.59347
 31
0.0
  0
LINE
  8
0
 62
     0
 10
133.401
 20
2.59347
 30
0.0
 11
147.4
 21
2.59347
 31
0.0
  0
LINE
  8
0
 62
     0
 10
147.4
 20
2.59347
 30
0.0
 11
147.4
 21
3.59392
 31
0.0
  0
LINE
  8
0
 62
     0
 10
147.4
 20
3.59392
 30
0.0
 11
148.2
 21
3.59392
 31
0.0
  0
LINE
  8
0
 62
     0
 10
148.2
 20
3.59392
 30
0.0
 11
148.2
 21
6.69315
 31
0.0
  0
LINE
  8
0
 62
     0
 10
148.2
 20
6.69315
 30
0.0
 11
147.4
 21
6.69315
 31
0.0
  0
LINE
  8
0
 62
     0
 10
147.4
 20
6.69315
 30
0.0
 11
147.4
 21
7.29396
 31
0.0
  0
LINE
  8
0
 62
     0
 10
147.4
 20
7.29396
 30
0.0
 11
187.026
 21
7.29396
 31
0.0
  0
LINE
  8
0
 62
     0
 10
187.026
 20
7.29396
 30
0.0
 11
187.026
 21
2.8236
 31
0.0
  0
LINE
  8
0
 62
     0
 10
187.026
 20
2.8236
 30
0.0
 11
188.75
 21
2.8236
 31
0.0
  0
LINE
  8
0
 62
     0
 10
188.75
 20
2.8236
 30
0.0
 11
188.75
 21
1.62333
 31
0.0
  0
LINE
  8
0
 62
     0
 10
188.75
 20
1.62333
 30
0.0
 11
192.049
 21
1.62333
 31
0.0
  0
LINE
  8
0
 62
     0
 10
192.049
 20
1.62333
 30
0.0
 11
192.049
 21
2.8236
 31
0.0
  0
LINE
  8
0
 62
     0
 10
192.049
 20
2.8236
 30
0.0
 11
193.776
 21
2.8236
 31
0.0
  0
LINE
  8
0
 62
     0
 10
193.776
 20
2.8236
 30
0.0
 11
193.776
 21
9.09366
 31
0.0
  0
LINE
  8
0
 62
     0
 10
193.776
 20
9.09366
 30
0.0
 11
194.601
 21
9.09366
 31
0.0
  0
LINE
  8
0
 62
     0
 10
194.601
 20
9.09366
 30
0.0
 11
194.601
 21
11.8938
 31
0.0
  0
LINE
  8
0
 62
     0
 10
194.601
 20
11.8938
 30
0.0
 11
193.776
 21
11.8938
 31
0.0
  0
LINE
  8
0
 62
     0
 10
193.776
 20
11.8938
 30
0.0
 11
193.776
 21
15.124
 31
0.0
  0
LINE
  8
0
 62
     0
 10
193.776
 20
15.124
 30
0.0
 11
187.026
 21
15.124
 31
0.0
  0
LINE
  8
0
 62
     0
 10
187.026
 20
15.124
 30
0.0
 11
187.026
 21
11.8938
 31
0.0
  0
LINE
  8
0
 62
     0
 10
187.026
 20
11.8938
 30
0.0
 11
147.4
 21
11.8938
 31
0.0
  0
LINE
  8
0
 62
     0
 10
147.4
 20
11.8938
 30
0.0
 11
147.4
 21
12.4919
 31
0.0
  0
LINE
  8
0
 62
     0
 10
147.4
 20
12.4919
 30
0.0
 11
148.2
 21
12.4919
 31
0.0
  0
LINE
  8
0
 62
     0
 10
148.2
 20
12.4919
 30
0.0
 11
148.2
 21
15.5939
 31
0.0
  0
LINE
  8
0
 62
     0
 10
148.2
 20
15.5939
 30
0.0
 11
147.4
 21
15.5939
 31
0.0
  0
LINE
  8
0
 62
     0
 10
147.4
 20
15.5939
 30
0.0
 11
147.4
 21
16.593
 31
0.0
  0
LINE
  8
0
 62
     0
 10
147.4
 20
16.593
 30
0.0
 11
133.401
 21
16.593
 31
0.0
  0
LINE
  8
0
 62
     0
 10
59.581
 20
16.593
 30
0.0
 11
59.581
 21
15.5939
 31
0.0
  0
LINE
  8
0
 62
     0
 10
59.581
 20
15.5939
 30
0.0
 11
58.7816
 21
15.5939
 31
0.0
  0
LINE
  8
0
 62
     0
 10
58.7816
 20
15.5939
 30
0.0
 11
58.7816
 21
12.4919
 31
0.0
  0
LINE
  8
0
 62
     0
 10
58.7816
 20
12.4919
 30
0.0
 11
59.581
 21
12.4919
 31
0.0
  0
LINE
  8
0
 62
     0
 10
59.581
 20
12.4919
 30
0.0
 11
59.581
 21
6.69315
 31
0.0
  0
LINE
  8
0
 62
     0
 10
59.581
 20
6.69315
 30
0.0
 11
58.7816
 21
6.69315
 31
0.0
  0
LINE
  8
0
 62
     0
 10
58.7816
 20
6.69315
 30
0.0
 11
58.7816
 21
3.59392
 31
0.0
  0
LINE
  8
0
 62
     0
 10
58.7816
 20
3.59392
 30
0.0
 11
59.581
 21
3.59392
 31
0.0
  0
LINE
  8
0
 62
     0
 10
59.581
 20
3.59392
 30
0.0
 11
59.581
 21
2.59347
 31
0.0
  0
LINE
  8
0
 62
     0
 10
59.581
 20
2.59347
 30
0.0
 11
73.5803
 21
2.59347
 31
0.0
  0
LINE
  8
0
 62
     0
 10
73.5803
 20
2.59347
 30
0.0
 11
73.5803
 21
3.59392
 31
0.0
  0
LINE
  8
0
 62
     0
 10
73.5803
 20
3.59392
 30
0.0
 11
74.3811
 21
3.59392
 31
0.0
  0
LINE
  8
0
 62
     0
 10
74.3811
 20
3.59392
 30
0.0
 11
74.3811
 21
6.69315
 31
0.0
  0
LINE
  8
0
 62
     0
 10
74.3811
 20
6.69315
 30
0.0
 11
73.5803
 21
6.69315
 31
0.0
  0
LINE
  8
0
 62
     0
 10
73.5803
 20
6.69315
 30
0.0
 11
73.5803
 21
12.4919
 31
0.0
  0
LINE
  8
0
 62
     0
 10
73.5803
 20
12.4919
 30
0.0
 11
74.3811
 21
12.4919
 31
0.0
  0
LINE
  8
0
 62
     0
 10
74.3811
 20
12.4919
 30
0.0
 11
74.3811
 21
15.5939
 31
0.0
  0
LINE
  8
0
 62
     0
 10
74.3811
 20
15.5939
 30
0.0
 11
73.5803
 21
15.5939
 31
0.0
  0
LINE
  8
0
 62
     0
 10
73.5803
 20
15.5939
 30
0.0
 11
73.5803
 21
16.593
 31
0.0
  0
LINE
  8
0
 62
     0
 10
73.5803
 20
16.593
 30
0.0
 11
59.581
 21
16.593
 31
0.0
  0
LINE
  8
0
 62
     0
 10
28.6246
 20
16.593
 30
0.0
 11
28.6246
 21
15.5939
 31
0.0
  0
LINE
  8
0
 62
     0
 10
28.6246
 20
15.5939
 30
0.0
 11
27.824
 21
15.5939
 31
0.0
  0
LINE
  8
0
 62
     0
 10
27.824
 20
15.5939
 30
0.0
 11
27.824
 21
12.4919
 31
0.0
  0
LINE
  8
0
 62
     0
 10
27.824
 20
12.4919
 30
0.0
 11
28.6246
 21
12.4919
 31
0.0
  0
LINE
  8
0
 62
     0
 10
28.6246
 20
12.4919
 30
0.0
 11
28.6246
 21
6.69315
 31
0.0
  0
LINE
  8
0
 62
     0
 10
28.6246
 20
6.69315
 30
0.0
 11
27.824
 21
6.69315
 31
0.0
  0
LINE
  8
0
 62
     0
 10
27.824
 20
6.69315
 30
0.0
 11
27.824
 21
3.59392
 31
0.0
  0
LINE
  8
0
 62
     0
 10
27.824
 20
3.59392
 30
0.0
 11
28.6246
 21
3.59392
 31
0.0
  0
LINE
  8
0
 62
     0
 10
28.6246
 20
3.59392
 30
0.0
 11
28.6246
 21
2.59347
 31
0.0
  0
LINE
  8
0
 62
     0
 10
28.6246
 20
2.59347
 30
0.0
 11
42.624
 21
2.59347
 31
0.0
  0
LINE
  8
0
 62
     0
 10
42.624
 20
2.59347
 30
0.0
 11
42.624
 21
3.59392
 31
0.0
  0
LINE
  8
0
 62
     0
 10
42.624
 20
3.59392
 30
0.0
 11
43.4262
 21
3.59392
 31
0.0
  0
LINE
  8
0
 62
     0
 10
43.4262
 20
3.59392
 30
0.0
 11
43.4262
 21
6.69315
 31
0.0
  0
LINE
  8
0
 62
     0
 10
43.4262
 20
6.69315
 30
0.0
 11
42.624
 21
6.69315
 31
0.0
  0
LINE
  8
0
 62
     0
 10
42.624
 20
6.69315
 30
0.0
 11
42.624
 21
12.4919
 31
0.0
  0
LINE
  8
0
 62
     0
 10
42.624
 20
12.4919
 30
0.0
 11
43.4262
 21
12.4919
 31
0.0
  0
LINE
  8
0
 62
     0
 10
43.4262
 20
12.4919
 30
0.0
 11
43.4262
 21
15.5939
 31
0.0
  0
LINE
  8
0
 62
     0
 10
43.4262
 20
15.5939
 30
0.0
 11
42.624
 21
15.5939
 31
0.0
  0
LINE
  8
0
 62
     0
 10
42.624
 20
15.5939
 30
0.0
 11
42.624
 21
16.593
 31
0.0
  0
LINE
  8
0
 62
     0
 10
42.624
 20
16.593
 30
0.0
 11
28.6246
 21
16.593
 31
0.0
  0
LINE
  8
0
 62
     0
 10
2.43086
 20
16.593
 30
0.0
 11
2.43086
 21
15.5939
 31
0.0
  0
LINE
  8
0
 62
     0
 10
2.43086
 20
15.5939
 30
0.0
 11
1.6316
 21
15.5939
 31
0.0
  0
LINE
  8
0
 62
     0
 10
1.6316
 20
15.5939
 30
0.0
 11
1.6316
 21
12.4919
 31
0.0
  0
LINE
  8
0
 62
     0
 10
1.6316
 20
12.4919
 30
0.0
 11
2.43086
 21
12.4919
 31
0.0
  0
LINE
  8
0
 62
     0
 10
2.43086
 20
12.4919
 30
0.0
 11
2.43086
 21
6.69315
 31
0.0
  0
LINE
  8
0
 62
     0
 10
2.43086
 20
6.69315
 30
0.0
 11
1.6316
 21
6.69315
 31
0.0
  0
LINE
  8
0
 62
     0
 10
1.6316
 20
6.69315
 30
0.0
 11
1.6316
 21
3.59392
 31
0.0
  0
LINE
  8
0
 62
     0
 10
1.6316
 20
3.59392
 30
0.0
 11
2.43086
 21
3.59392
 31
0.0
  0
LINE
  8
0
 62
     0
 10
2.43086
 20
3.59392
 30
0.0
 11
2.43086
 21
2.59347
 31
0.0
  0
LINE
  8
0
 62
     0
 10
2.43086
 20
2.59347
 30
0.0
 11
16.4317
 21
2.59347
 31
0.0
  0
LINE
  8
0
 62
     0
 10
16.4317
 20
2.59347
 30
0.0
 11
16.4317
 21
3.59392
 31
0.0
  0
LINE
  8
0
 62
     0
 10
16.4317
 20
3.59392
 30
0.0
 11
17.231
 21
3.59392
 31
0.0
  0
LINE
  8
0
 62
     0
 10
17.231
 20
3.59392
 30
0.0
 11
17.231
 21
6.69315
 31
0.0
  0
LINE
  8
0
 62
     0
 10
17.231
 20
6.69315
 30
0.0
 11
16.4317
 21
6.69315
 31
0.0
  0
LINE
  8
0
 62
     0
 10
16.4317
 20
6.69315
 30
0.0
 11
16.4317
 21
12.4919
 31
0.0
  0
LINE
  8
0
 62
     0
 10
16.4317
 20
12.4919
 30
0.0
 11
17.231
 21
12.4919
 31
0.0
  0
LINE
  8
0
 62
     0
 10
17.231
 20
12.4919
 30
0.0
 11
17.231
 21
15.5939
 31
0.0
  0
LINE
  8
0
 62
     0
 10
17.231
 20
15.5939
 30
0.0
 11
16.4317
 21
15.5939
 31
0.0
  0
LINE
  8
0
 62
     0
 10
16.4317
 20
15.5939
 30
0.0
 11
16.4317
 21
16.593
 31
0.0
  0
LINE
  8
0
 62
     0
 10
16.4317
 20
16.593
 30
0.0
 11
2.43086
 21
16.593
 31
0.0
  0
LINE
  8
0
 62
     0
 10
252.462
 20
35.6429
 30
0.0
 11
252.462
 21
34.6439
 31
0.0
  0
LINE
  8
0
 62
     0
 10
252.462
 20
34.6439
 30
0.0
 11
251.66
 21
34.6439
 31
0.0
  0
LINE
  8
0
 62
     0
 10
251.66
 20
34.6439
 30
0.0
 11
251.66
 21
31.5433
 31
0.0
  0
LINE
  8
0
 62
     0
 10
251.66
 20
31.5433
 30
0.0
 11
252.462
 21
31.5433
 31
0.0
  0
LINE
  8
0
 62
     0
 10
252.462
 20
31.5433
 30
0.0
 11
252.462
 21
30.9425
 31
0.0
  0
LINE
  8
0
 62
     0
 10
252.462
 20
30.9425
 30
0.0
 11
250.936
 21
30.9425
 31
0.0
  0
LINE
  8
0
 62
     0
 10
250.936
 20
30.9425
 30
0.0
 11
250.936
 21
34.174
 31
0.0
  0
LINE
  8
0
 62
     0
 10
250.936
 20
34.174
 30
0.0
 11
244.187
 21
34.174
 31
0.0
  0
LINE
  8
0
 62
     0
 10
244.187
 20
34.174
 30
0.0
 11
244.187
 21
30.9425
 31
0.0
  0
LINE
  8
0
 62
     0
 10
244.187
 20
30.9425
 30
0.0
 11
243.363
 21
30.9425
 31
0.0
  0
LINE
  8
0
 62
     0
 10
243.363
 20
30.9425
 30
0.0
 11
243.363
 21
28.1437
 31
0.0
  0
LINE
  8
0
 62
     0
 10
243.363
 20
28.1437
 30
0.0
 11
244.187
 21
28.1437
 31
0.0
  0
LINE
  8
0
 62
     0
 10
244.187
 20
28.1437
 30
0.0
 11
244.187
 21
21.8736
 31
0.0
  0
LINE
  8
0
 62
     0
 10
244.187
 20
21.8736
 30
0.0
 11
245.912
 21
21.8736
 31
0.0
  0
LINE
  8
0
 62
     0
 10
245.912
 20
21.8736
 30
0.0
 11
245.912
 21
20.6733
 31
0.0
  0
LINE
  8
0
 62
     0
 10
245.912
 20
20.6733
 30
0.0
 11
249.211
 21
20.6733
 31
0.0
  0
LINE
  8
0
 62
     0
 10
249.211
 20
20.6733
 30
0.0
 11
249.211
 21
21.8736
 31
0.0
  0
LINE
  8
0
 62
     0
 10
249.211
 20
21.8736
 30
0.0
 11
250.936
 21
21.8736
 31
0.0
  0
LINE
  8
0
 62
     0
 10
250.936
 20
21.8736
 30
0.0
 11
250.936
 21
26.344
 31
0.0
  0
LINE
  8
0
 62
     0
 10
250.936
 20
26.344
 30
0.0
 11
252.462
 21
26.344
 31
0.0
  0
LINE
  8
0
 62
     0
 10
252.462
 20
26.344
 30
0.0
 11
252.462
 21
25.7431
 31
0.0
  0
LINE
  8
0
 62
     0
 10
252.462
 20
25.7431
 30
0.0
 11
251.66
 21
25.7431
 31
0.0
  0
LINE
  8
0
 62
     0
 10
251.66
 20
25.7431
 30
0.0
 11
251.66
 21
22.6439
 31
0.0
  0
LINE
  8
0
 62
     0
 10
251.66
 20
22.6439
 30
0.0
 11
252.462
 21
22.6439
 31
0.0
  0
LINE
  8
0
 62
     0
 10
252.462
 20
22.6439
 30
0.0
 11
252.462
 21
21.6435
 31
0.0
  0
LINE
  8
0
 62
     0
 10
252.462
 20
21.6435
 30
0.0
 11
266.462
 21
21.6435
 31
0.0
  0
LINE
  8
0
 62
     0
 10
266.462
 20
21.6435
 30
0.0
 11
266.462
 21
22.6439
 31
0.0
  0
LINE
  8
0
 62
     0
 10
266.462
 20
22.6439
 30
0.0
 11
267.261
 21
22.6439
 31
0.0
  0
LINE
  8
0
 62
     0
 10
267.261
 20
22.6439
 30
0.0
 11
267.261
 21
25.7431
 31
0.0
  0
LINE
  8
0
 62
     0
 10
267.261
 20
25.7431
 30
0.0
 11
266.462
 21
25.7431
 31
0.0
  0
LINE
  8
0
 62
     0
 10
266.462
 20
25.7431
 30
0.0
 11
266.462
 21
26.344
 31
0.0
  0
LINE
  8
0
 62
     0
 10
266.462
 20
26.344
 30
0.0
 11
267.987
 21
26.344
 31
0.0
  0
LINE
  8
0
 62
     0
 10
267.987
 20
26.344
 30
0.0
 11
267.987
 21
21.8736
 31
0.0
  0
LINE
  8
0
 62
     0
 10
267.987
 20
21.8736
 30
0.0
 11
269.711
 21
21.8736
 31
0.0
  0
LINE
  8
0
 62
     0
 10
269.711
 20
21.8736
 30
0.0
 11
269.711
 21
20.6733
 31
0.0
  0
LINE
  8
0
 62
     0
 10
269.711
 20
20.6733
 30
0.0
 11
273.012
 21
20.6733
 31
0.0
  0
LINE
  8
0
 62
     0
 10
273.012
 20
20.6733
 30
0.0
 11
273.012
 21
21.8736
 31
0.0
  0
LINE
  8
0
 62
     0
 10
273.012
 20
21.8736
 30
0.0
 11
274.737
 21
21.8736
 31
0.0
  0
LINE
  8
0
 62
     0
 10
274.737
 20
21.8736
 30
0.0
 11
274.737
 21
28.1437
 31
0.0
  0
LINE
  8
0
 62
     0
 10
274.737
 20
28.1437
 30
0.0
 11
275.562
 21
28.1437
 31
0.0
  0
LINE
  8
0
 62
     0
 10
275.562
 20
28.1437
 30
0.0
 11
275.562
 21
30.9425
 31
0.0
  0
LINE
  8
0
 62
     0
 10
275.562
 20
30.9425
 30
0.0
 11
274.737
 21
30.9425
 31
0.0
  0
LINE
  8
0
 62
     0
 10
274.737
 20
30.9425
 30
0.0
 11
274.737
 21
34.174
 31
0.0
  0
LINE
  8
0
 62
     0
 10
274.737
 20
34.174
 30
0.0
 11
267.987
 21
34.174
 31
0.0
  0
LINE
  8
0
 62
     0
 10
267.987
 20
34.174
 30
0.0
 11
267.987
 21
30.9425
 31
0.0
  0
LINE
  8
0
 62
     0
 10
267.987
 20
30.9425
 30
0.0
 11
266.462
 21
30.9425
 31
0.0
  0
LINE
  8
0
 62
     0
 10
266.462
 20
30.9425
 30
0.0
 11
266.462
 21
31.5433
 31
0.0
  0
LINE
  8
0
 62
     0
 10
266.462
 20
31.5433
 30
0.0
 11
267.261
 21
31.5433
 31
0.0
  0
LINE
  8
0
 62
     0
 10
267.261
 20
31.5433
 30
0.0
 11
267.261
 21
34.6439
 31
0.0
  0
LINE
  8
0
 62
     0
 10
267.261
 20
34.6439
 30
0.0
 11
266.462
 21
34.6439
 31
0.0
  0
LINE
  8
0
 62
     0
 10
266.462
 20
34.6439
 30
0.0
 11
266.462
 21
35.6429
 31
0.0
  0
LINE
  8
0
 62
     0
 10
266.462
 20
35.6429
 30
0.0
 11
252.462
 21
35.6429
 31
0.0
  0
LINE
  8
0
 62
     0
 10
14.3371
 20
35.6429
 30
0.0
 11
14.3371
 21
34.6439
 31
0.0
  0
LINE
  8
0
 62
     0
 10
14.3371
 20
34.6439
 30
0.0
 11
13.5378
 21
34.6439
 31
0.0
  0
LINE
  8
0
 62
     0
 10
13.5378
 20
34.6439
 30
0.0
 11
13.5378
 21
31.5433
 31
0.0
  0
LINE
  8
0
 62
     0
 10
13.5378
 20
31.5433
 30
0.0
 11
14.3371
 21
31.5433
 31
0.0
  0
LINE
  8
0
 62
     0
 10
14.3371
 20
31.5433
 30
0.0
 11
14.3371
 21
30.9425
 31
0.0
  0
LINE
  8
0
 62
     0
 10
14.3371
 20
30.9425
 30
0.0
 11
12.813
 21
30.9425
 31
0.0
  0
LINE
  8
0
 62
     0
 10
12.813
 20
30.9425
 30
0.0
 11
12.813
 21
34.174
 31
0.0
  0
LINE
  8
0
 62
     0
 10
12.813
 20
34.174
 30
0.0
 11
6.06199
 21
34.174
 31
0.0
  0
LINE
  8
0
 62
     0
 10
6.06199
 20
34.174
 30
0.0
 11
6.06199
 21
30.9425
 31
0.0
  0
LINE
  8
0
 62
     0
 10
6.06199
 20
30.9425
 30
0.0
 11
5.23794
 21
30.9425
 31
0.0
  0
LINE
  8
0
 62
     0
 10
5.23794
 20
30.9425
 30
0.0
 11
5.23794
 21
28.1437
 31
0.0
  0
LINE
  8
0
 62
     0
 10
5.23794
 20
28.1437
 30
0.0
 11
6.06199
 21
28.1437
 31
0.0
  0
LINE
  8
0
 62
     0
 10
6.06199
 20
28.1437
 30
0.0
 11
6.06199
 21
21.8736
 31
0.0
  0
LINE
  8
0
 62
     0
 10
6.06199
 20
21.8736
 30
0.0
 11
7.78729
 21
21.8736
 31
0.0
  0
LINE
  8
0
 62
     0
 10
7.78729
 20
21.8736
 30
0.0
 11
7.78729
 21
20.6733
 31
0.0
  0
LINE
  8
0
 62
     0
 10
7.78729
 20
20.6733
 30
0.0
 11
11.0863
 21
20.6733
 31
0.0
  0
LINE
  8
0
 62
     0
 10
11.0863
 20
20.6733
 30
0.0
 11
11.0863
 21
21.8736
 31
0.0
  0
LINE
  8
0
 62
     0
 10
11.0863
 20
21.8736
 30
0.0
 11
12.813
 21
21.8736
 31
0.0
  0
LINE
  8
0
 62
     0
 10
12.813
 20
21.8736
 30
0.0
 11
12.813
 21
26.344
 31
0.0
  0
LINE
  8
0
 62
     0
 10
12.813
 20
26.344
 30
0.0
 11
14.3371
 21
26.344
 31
0.0
  0
LINE
  8
0
 62
     0
 10
14.3371
 20
26.344
 30
0.0
 11
14.3371
 21
25.7431
 31
0.0
  0
LINE
  8
0
 62
     0
 10
14.3371
 20
25.7431
 30
0.0
 11
13.5378
 21
25.7431
 31
0.0
  0
LINE
  8
0
 62
     0
 10
13.5378
 20
25.7431
 30
0.0
 11
13.5378
 21
22.6439
 31
0.0
  0
LINE
  8
0
 62
     0
 10
13.5378
 20
22.6439
 30
0.0
 11
14.3371
 21
22.6439
 31
0.0
  0
LINE
  8
0
 62
     0
 10
14.3371
 20
22.6439
 30
0.0
 11
14.3371
 21
21.6435
 31
0.0
  0
LINE
  8
0
 62
     0
 10
14.3371
 20
21.6435
 30
0.0
 11
28.3366
 21
21.6435
 31
0.0
  0
LINE
  8
0
 62
     0
 10
28.3366
 20
21.6435
 30
0.0
 11
28.3366
 21
22.6439
 31
0.0
  0
LINE
  8
0
 62
     0
 10
28.3366
 20
22.6439
 30
0.0
 11
29.1358
 21
22.6439
 31
0.0
  0
LINE
  8
0
 62
     0
 10
29.1358
 20
22.6439
 30
0.0
 11
29.1358
 21
25.7431
 31
0.0
  0
LINE
  8
0
 62
     0
 10
29.1358
 20
25.7431
 30
0.0
 11
28.3366
 21
25.7431
 31
0.0
  0
LINE
  8
0
 62
     0
 10
28.3366
 20
25.7431
 30
0.0
 11
28.3366
 21
26.344
 31
0.0
  0
LINE
  8
0
 62
     0
 10
28.3366
 20
26.344
 30
0.0
 11
29.8621
 21
26.344
 31
0.0
  0
LINE
  8
0
 62
     0
 10
29.8621
 20
26.344
 30
0.0
 11
29.8621
 21
21.8736
 31
0.0
  0
LINE
  8
0
 62
     0
 10
29.8621
 20
21.8736
 30
0.0
 11
31.586
 21
21.8736
 31
0.0
  0
LINE
  8
0
 62
     0
 10
31.586
 20
21.8736
 30
0.0
 11
31.586
 21
20.6733
 31
0.0
  0
LINE
  8
0
 62
     0
 10
31.586
 20
20.6733
 30
0.0
 11
34.8864
 21
20.6733
 31
0.0
  0
LINE
  8
0
 62
     0
 10
34.8864
 20
20.6733
 30
0.0
 11
34.8864
 21
21.8736
 31
0.0
  0
LINE
  8
0
 62
     0
 10
34.8864
 20
21.8736
 30
0.0
 11
36.613
 21
21.8736
 31
0.0
  0
LINE
  8
0
 62
     0
 10
36.613
 20
21.8736
 30
0.0
 11
36.613
 21
28.1437
 31
0.0
  0
LINE
  8
0
 62
     0
 10
36.613
 20
28.1437
 30
0.0
 11
37.4371
 21
28.1437
 31
0.0
  0
LINE
  8
0
 62
     0
 10
37.4371
 20
28.1437
 30
0.0
 11
37.4371
 21
30.9425
 31
0.0
  0
LINE
  8
0
 62
     0
 10
37.4371
 20
30.9425
 30
0.0
 11
36.613
 21
30.9425
 31
0.0
  0
LINE
  8
0
 62
     0
 10
36.613
 20
30.9425
 30
0.0
 11
36.613
 21
34.174
 31
0.0
  0
LINE
  8
0
 62
     0
 10
36.613
 20
34.174
 30
0.0
 11
29.8621
 21
34.174
 31
0.0
  0
LINE
  8
0
 62
     0
 10
29.8621
 20
34.174
 30
0.0
 11
29.8621
 21
30.9425
 31
0.0
  0
LINE
  8
0
 62
     0
 10
29.8621
 20
30.9425
 30
0.0
 11
28.3366
 21
30.9425
 31
0.0
  0
LINE
  8
0
 62
     0
 10
28.3366
 20
30.9425
 30
0.0
 11
28.3366
 21
31.5433
 31
0.0
  0
LINE
  8
0
 62
     0
 10
28.3366
 20
31.5433
 30
0.0
 11
29.1358
 21
31.5433
 31
0.0
  0
LINE
  8
0
 62
     0
 10
29.1358
 20
31.5433
 30
0.0
 11
29.1358
 21
34.6439
 31
0.0
  0
LINE
  8
0
 62
     0
 10
29.1358
 20
34.6439
 30
0.0
 11
28.3366
 21
34.6439
 31
0.0
  0
LINE
  8
0
 62
     0
 10
28.3366
 20
34.6439
 30
0.0
 11
28.3366
 21
35.6429
 31
0.0
  0
LINE
  8
0
 62
     0
 10
28.3366
 20
35.6429
 30
0.0
 11
14.3371
 21
35.6429
 31
0.0
  0
LINE
  8
0
 62
     0
 10
216.745
 20
35.6429
 30
0.0
 11
216.745
 21
34.6439
 31
0.0
  0
LINE
  8
0
 62
     0
 10
216.745
 20
34.6439
 30
0.0
 11
215.944
 21
34.6439
 31
0.0
  0
LINE
  8
0
 62
     0
 10
215.944
 20
34.6439
 30
0.0
 11
215.944
 21
31.5433
 31
0.0
  0
LINE
  8
0
 62
     0
 10
215.944
 20
31.5433
 30
0.0
 11
216.745
 21
31.5433
 31
0.0
  0
LINE
  8
0
 62
     0
 10
216.745
 20
31.5433
 30
0.0
 11
216.745
 21
25.7431
 31
0.0
  0
LINE
  8
0
 62
     0
 10
216.745
 20
25.7431
 30
0.0
 11
215.944
 21
25.7431
 31
0.0
  0
LINE
  8
0
 62
     0
 10
215.944
 20
25.7431
 30
0.0
 11
215.944
 21
22.6439
 31
0.0
  0
LINE
  8
0
 62
     0
 10
215.944
 20
22.6439
 30
0.0
 11
216.745
 21
22.6439
 31
0.0
  0
LINE
  8
0
 62
     0
 10
216.745
 20
22.6439
 30
0.0
 11
216.745
 21
21.6435
 31
0.0
  0
LINE
  8
0
 62
     0
 10
216.745
 20
21.6435
 30
0.0
 11
230.744
 21
21.6435
 31
0.0
  0
LINE
  8
0
 62
     0
 10
230.744
 20
21.6435
 30
0.0
 11
230.744
 21
22.6439
 31
0.0
  0
LINE
  8
0
 62
     0
 10
230.744
 20
22.6439
 30
0.0
 11
231.544
 21
22.6439
 31
0.0
  0
LINE
  8
0
 62
     0
 10
231.544
 20
22.6439
 30
0.0
 11
231.544
 21
25.7431
 31
0.0
  0
LINE
  8
0
 62
     0
 10
231.544
 20
25.7431
 30
0.0
 11
230.744
 21
25.7431
 31
0.0
  0
LINE
  8
0
 62
     0
 10
230.744
 20
25.7431
 30
0.0
 11
230.744
 21
31.5433
 31
0.0
  0
LINE
  8
0
 62
     0
 10
230.744
 20
31.5433
 30
0.0
 11
231.544
 21
31.5433
 31
0.0
  0
LINE
  8
0
 62
     0
 10
231.544
 20
31.5433
 30
0.0
 11
231.544
 21
34.6439
 31
0.0
  0
LINE
  8
0
 62
     0
 10
231.544
 20
34.6439
 30
0.0
 11
230.744
 21
34.6439
 31
0.0
  0
LINE
  8
0
 62
     0
 10
230.744
 20
34.6439
 30
0.0
 11
230.744
 21
35.6429
 31
0.0
  0
LINE
  8
0
 62
     0
 10
230.744
 20
35.6429
 30
0.0
 11
216.745
 21
35.6429
 31
0.0
  0
LINE
  8
0
 62
     0
 10
197.693
 20
35.6429
 30
0.0
 11
197.693
 21
34.6439
 31
0.0
  0
LINE
  8
0
 62
     0
 10
197.693
 20
34.6439
 30
0.0
 11
196.894
 21
34.6439
 31
0.0
  0
LINE
  8
0
 62
     0
 10
196.894
 20
34.6439
 30
0.0
 11
196.894
 21
31.5433
 31
0.0
  0
LINE
  8
0
 62
     0
 10
196.894
 20
31.5433
 30
0.0
 11
197.693
 21
31.5433
 31
0.0
  0
LINE
  8
0
 62
     0
 10
197.693
 20
31.5433
 30
0.0
 11
197.693
 21
25.7431
 31
0.0
  0
LINE
  8
0
 62
     0
 10
197.693
 20
25.7431
 30
0.0
 11
196.894
 21
25.7431
 31
0.0
  0
LINE
  8
0
 62
     0
 10
196.894
 20
25.7431
 30
0.0
 11
196.894
 21
22.6439
 31
0.0
  0
LINE
  8
0
 62
     0
 10
196.894
 20
22.6439
 30
0.0
 11
197.693
 21
22.6439
 31
0.0
  0
LINE
  8
0
 62
     0
 10
197.693
 20
22.6439
 30
0.0
 11
197.693
 21
21.6435
 31
0.0
  0
LINE
  8
0
 62
     0
 10
197.693
 20
21.6435
 30
0.0
 11
211.693
 21
21.6435
 31
0.0
  0
LINE
  8
0
 62
     0
 10
211.693
 20
21.6435
 30
0.0
 11
211.693
 21
22.6439
 31
0.0
  0
LINE
  8
0
 62
     0
 10
211.693
 20
22.6439
 30
0.0
 11
212.495
 21
22.6439
 31
0.0
  0
LINE
  8
0
 62
     0
 10
212.495
 20
22.6439
 30
0.0
 11
212.495
 21
25.7431
 31
0.0
  0
LINE
  8
0
 62
     0
 10
212.495
 20
25.7431
 30
0.0
 11
211.693
 21
25.7431
 31
0.0
  0
LINE
  8
0
 62
     0
 10
211.693
 20
25.7431
 30
0.0
 11
211.693
 21
31.5433
 31
0.0
  0
LINE
  8
0
 62
     0
 10
211.693
 20
31.5433
 30
0.0
 11
212.495
 21
31.5433
 31
0.0
  0
LINE
  8
0
 62
     0
 10
212.495
 20
31.5433
 30
0.0
 11
212.495
 21
34.6439
 31
0.0
  0
LINE
  8
0
 62
     0
 10
212.495
 20
34.6439
 30
0.0
 11
211.693
 21
34.6439
 31
0.0
  0
LINE
  8
0
 62
     0
 10
211.693
 20
34.6439
 30
0.0
 11
211.693
 21
35.6429
 31
0.0
  0
LINE
  8
0
 62
     0
 10
211.693
 20
35.6429
 30
0.0
 11
197.693
 21
35.6429
 31
0.0
  0
LINE
  8
0
 62
     0
 10
178.645
 20
35.6429
 30
0.0
 11
178.645
 21
34.6439
 31
0.0
  0
LINE
  8
0
 62
     0
 10
178.645
 20
34.6439
 30
0.0
 11
177.844
 21
34.6439
 31
0.0
  0
LINE
  8
0
 62
     0
 10
177.844
 20
34.6439
 30
0.0
 11
177.844
 21
31.5433
 31
0.0
  0
LINE
  8
0
 62
     0
 10
177.844
 20
31.5433
 30
0.0
 11
178.645
 21
31.5433
 31
0.0
  0
LINE
  8
0
 62
     0
 10
178.645
 20
31.5433
 30
0.0
 11
178.645
 21
25.7431
 31
0.0
  0
LINE
  8
0
 62
     0
 10
178.645
 20
25.7431
 30
0.0
 11
177.844
 21
25.7431
 31
0.0
  0
LINE
  8
0
 62
     0
 10
177.844
 20
25.7431
 30
0.0
 11
177.844
 21
22.6439
 31
0.0
  0
LINE
  8
0
 62
     0
 10
177.844
 20
22.6439
 30
0.0
 11
178.645
 21
22.6439
 31
0.0
  0
LINE
  8
0
 62
     0
 10
178.645
 20
22.6439
 30
0.0
 11
178.645
 21
21.6435
 31
0.0
  0
LINE
  8
0
 62
     0
 10
178.645
 20
21.6435
 30
0.0
 11
192.644
 21
21.6435
 31
0.0
  0
LINE
  8
0
 62
     0
 10
192.644
 20
21.6435
 30
0.0
 11
192.644
 21
22.6439
 31
0.0
  0
LINE
  8
0
 62
     0
 10
192.644
 20
22.6439
 30
0.0
 11
193.444
 21
22.6439
 31
0.0
  0
LINE
  8
0
 62
     0
 10
193.444
 20
22.6439
 30
0.0
 11
193.444
 21
25.7431
 31
0.0
  0
LINE
  8
0
 62
     0
 10
193.444
 20
25.7431
 30
0.0
 11
192.644
 21
25.7431
 31
0.0
  0
LINE
  8
0
 62
     0
 10
192.644
 20
25.7431
 30
0.0
 11
192.644
 21
31.5433
 31
0.0
  0
LINE
  8
0
 62
     0
 10
192.644
 20
31.5433
 30
0.0
 11
193.444
 21
31.5433
 31
0.0
  0
LINE
  8
0
 62
     0
 10
193.444
 20
31.5433
 30
0.0
 11
193.444
 21
34.6439
 31
0.0
  0
LINE
  8
0
 62
     0
 10
193.444
 20
34.6439
 30
0.0
 11
192.644
 21
34.6439
 31
0.0
  0
LINE
  8
0
 62
     0
 10
192.644
 20
34.6439
 30
0.0
 11
192.644
 21
35.6429
 31
0.0
  0
LINE
  8
0
 62
     0
 10
192.644
 20
35.6429
 30
0.0
 11
178.645
 21
35.6429
 31
0.0
  0
LINE
  8
0
 62
     0
 10
159.595
 20
35.6429
 30
0.0
 11
159.595
 21
34.6439
 31
0.0
  0
LINE
  8
0
 62
     0
 10
159.595
 20
34.6439
 30
0.0
 11
158.794
 21
34.6439
 31
0.0
  0
LINE
  8
0
 62
     0
 10
158.794
 20
34.6439
 30
0.0
 11
158.794
 21
31.5433
 31
0.0
  0
LINE
  8
0
 62
     0
 10
158.794
 20
31.5433
 30
0.0
 11
159.595
 21
31.5433
 31
0.0
  0
LINE
  8
0
 62
     0
 10
159.595
 20
31.5433
 30
0.0
 11
159.595
 21
25.7431
 31
0.0
  0
LINE
  8
0
 62
     0
 10
159.595
 20
25.7431
 30
0.0
 11
158.794
 21
25.7431
 31
0.0
  0
LINE
  8
0
 62
     0
 10
158.794
 20
25.7431
 30
0.0
 11
158.794
 21
22.6439
 31
0.0
  0
LINE
  8
0
 62
     0
 10
158.794
 20
22.6439
 30
0.0
 11
159.595
 21
22.6439
 31
0.0
  0
LINE
  8
0
 62
     0
 10
159.595
 20
22.6439
 30
0.0
 11
159.595
 21
21.6435
 31
0.0
  0
LINE
  8
0
 62
     0
 10
159.595
 20
21.6435
 30
0.0
 11
173.594
 21
21.6435
 31
0.0
  0
LINE
  8
0
 62
     0
 10
173.594
 20
21.6435
 30
0.0
 11
173.594
 21
22.6439
 31
0.0
  0
LINE
  8
0
 62
     0
 10
173.594
 20
22.6439
 30
0.0
 11
174.395
 21
22.6439
 31
0.0
  0
LINE
  8
0
 62
     0
 10
174.395
 20
22.6439
 30
0.0
 11
174.395
 21
25.7431
 31
0.0
  0
LINE
  8
0
 62
     0
 10
174.395
 20
25.7431
 30
0.0
 11
173.594
 21
25.7431
 31
0.0
  0
LINE
  8
0
 62
     0
 10
173.594
 20
25.7431
 30
0.0
 11
173.594
 21
31.5433
 31
0.0
  0
LINE
  8
0
 62
     0
 10
173.594
 20
31.5433
 30
0.0
 11
174.395
 21
31.5433
 31
0.0
  0
LINE
  8
0
 62
     0
 10
174.395
 20
31.5433
 30
0.0
 11
174.395
 21
34.6439
 31
0.0
  0
LINE
  8
0
 62
     0
 10
174.395
 20
34.6439
 30
0.0
 11
173.594
 21
34.6439
 31
0.0
  0
LINE
  8
0
 62
     0
 10
173.594
 20
34.6439
 30
0.0
 11
173.594
 21
35.6429
 31
0.0
  0
LINE
  8
0
 62
     0
 10
173.594
 20
35.6429
 30
0.0
 11
159.595
 21
35.6429
 31
0.0
  0
LINE
  8
0
 62
     0
 10
140.543
 20
35.6429
 30
0.0
 11
140.543
 21
34.6439
 31
0.0
  0
LINE
  8
0
 62
     0
 10
140.543
 20
34.6439
 30
0.0
 11
139.744
 21
34.6439
 31
0.0
  0
LINE
  8
0
 62
     0
 10
139.744
 20
34.6439
 30
0.0
 11
139.744
 21
31.5433
 31
0.0
  0
LINE
  8
0
 62
     0
 10
139.744
 20
31.5433
 30
0.0
 11
140.543
 21
31.5433
 31
0.0
  0
LINE
  8
0
 62
     0
 10
140.543
 20
31.5433
 30
0.0
 11
140.543
 21
25.7431
 31
0.0
  0
LINE
  8
0
 62
     0
 10
140.543
 20
25.7431
 30
0.0
 11
139.744
 21
25.7431
 31
0.0
  0
LINE
  8
0
 62
     0
 10
139.744
 20
25.7431
 30
0.0
 11
139.744
 21
22.6439
 31
0.0
  0
LINE
  8
0
 62
     0
 10
139.744
 20
22.6439
 30
0.0
 11
140.543
 21
22.6439
 31
0.0
  0
LINE
  8
0
 62
     0
 10
140.543
 20
22.6439
 30
0.0
 11
140.543
 21
21.6435
 31
0.0
  0
LINE
  8
0
 62
     0
 10
140.543
 20
21.6435
 30
0.0
 11
154.543
 21
21.6435
 31
0.0
  0
LINE
  8
0
 62
     0
 10
154.543
 20
21.6435
 30
0.0
 11
154.543
 21
22.6439
 31
0.0
  0
LINE
  8
0
 62
     0
 10
154.543
 20
22.6439
 30
0.0
 11
155.345
 21
22.6439
 31
0.0
  0
LINE
  8
0
 62
     0
 10
155.345
 20
22.6439
 30
0.0
 11
155.345
 21
25.7431
 31
0.0
  0
LINE
  8
0
 62
     0
 10
155.345
 20
25.7431
 30
0.0
 11
154.543
 21
25.7431
 31
0.0
  0
LINE
  8
0
 62
     0
 10
154.543
 20
25.7431
 30
0.0
 11
154.543
 21
31.5433
 31
0.0
  0
LINE
  8
0
 62
     0
 10
154.543
 20
31.5433
 30
0.0
 11
155.345
 21
31.5433
 31
0.0
  0
LINE
  8
0
 62
     0
 10
155.345
 20
31.5433
 30
0.0
 11
155.345
 21
34.6439
 31
0.0
  0
LINE
  8
0
 62
     0
 10
155.345
 20
34.6439
 30
0.0
 11
154.543
 21
34.6439
 31
0.0
  0
LINE
  8
0
 62
     0
 10
154.543
 20
34.6439
 30
0.0
 11
154.543
 21
35.6429
 31
0.0
  0
LINE
  8
0
 62
     0
 10
154.543
 20
35.6429
 30
0.0
 11
140.543
 21
35.6429
 31
0.0
  0
LINE
  8
0
 62
     0
 10
121.495
 20
35.6429
 30
0.0
 11
121.495
 21
34.6439
 31
0.0
  0
LINE
  8
0
 62
     0
 10
121.495
 20
34.6439
 30
0.0
 11
120.694
 21
34.6439
 31
0.0
  0
LINE
  8
0
 62
     0
 10
120.694
 20
34.6439
 30
0.0
 11
120.694
 21
31.5433
 31
0.0
  0
LINE
  8
0
 62
     0
 10
120.694
 20
31.5433
 30
0.0
 11
121.495
 21
31.5433
 31
0.0
  0
LINE
  8
0
 62
     0
 10
121.495
 20
31.5433
 30
0.0
 11
121.495
 21
25.7431
 31
0.0
  0
LINE
  8
0
 62
     0
 10
121.495
 20
25.7431
 30
0.0
 11
120.694
 21
25.7431
 31
0.0
  0
LINE
  8
0
 62
     0
 10
120.694
 20
25.7431
 30
0.0
 11
120.694
 21
22.6439
 31
0.0
  0
LINE
  8
0
 62
     0
 10
120.694
 20
22.6439
 30
0.0
 11
121.495
 21
22.6439
 31
0.0
  0
LINE
  8
0
 62
     0
 10
121.495
 20
22.6439
 30
0.0
 11
121.495
 21
21.6435
 31
0.0
  0
LINE
  8
0
 62
     0
 10
121.495
 20
21.6435
 30
0.0
 11
135.494
 21
21.6435
 31
0.0
  0
LINE
  8
0
 62
     0
 10
135.494
 20
21.6435
 30
0.0
 11
135.494
 21
22.6439
 31
0.0
  0
LINE
  8
0
 62
     0
 10
135.494
 20
22.6439
 30
0.0
 11
136.294
 21
22.6439
 31
0.0
  0
LINE
  8
0
 62
     0
 10
136.294
 20
22.6439
 30
0.0
 11
136.294
 21
25.7431
 31
0.0
  0
LINE
  8
0
 62
     0
 10
136.294
 20
25.7431
 30
0.0
 11
135.494
 21
25.7431
 31
0.0
  0
LINE
  8
0
 62
     0
 10
135.494
 20
25.7431
 30
0.0
 11
135.494
 21
31.5433
 31
0.0
  0
LINE
  8
0
 62
     0
 10
135.494
 20
31.5433
 30
0.0
 11
136.294
 21
31.5433
 31
0.0
  0
LINE
  8
0
 62
     0
 10
136.294
 20
31.5433
 30
0.0
 11
136.294
 21
34.6439
 31
0.0
  0
LINE
  8
0
 62
     0
 10
136.294
 20
34.6439
 30
0.0
 11
135.494
 21
34.6439
 31
0.0
  0
LINE
  8
0
 62
     0
 10
135.494
 20
34.6439
 30
0.0
 11
135.494
 21
35.6429
 31
0.0
  0
LINE
  8
0
 62
     0
 10
135.494
 20
35.6429
 30
0.0
 11
121.495
 21
35.6429
 31
0.0
  0
LINE
  8
0
 62
     0
 10
102.443
 20
35.6429
 30
0.0
 11
102.443
 21
34.6439
 31
0.0
  0
LINE
  8
0
 62
     0
 10
102.443
 20
34.6439
 30
0.0
 11
101.644
 21
34.6439
 31
0.0
  0
LINE
  8
0
 62
     0
 10
101.644
 20
34.6439
 30
0.0
 11
101.644
 21
31.5433
 31
0.0
  0
LINE
  8
0
 62
     0
 10
101.644
 20
31.5433
 30
0.0
 11
102.443
 21
31.5433
 31
0.0
  0
LINE
  8
0
 62
     0
 10
102.443
 20
31.5433
 30
0.0
 11
102.443
 21
25.7431
 31
0.0
  0
LINE
  8
0
 62
     0
 10
102.443
 20
25.7431
 30
0.0
 11
101.644
 21
25.7431
 31
0.0
  0
LINE
  8
0
 62
     0
 10
101.644
 20
25.7431
 30
0.0
 11
101.644
 21
22.6439
 31
0.0
  0
LINE
  8
0
 62
     0
 10
101.644
 20
22.6439
 30
0.0
 11
102.443
 21
22.6439
 31
0.0
  0
LINE
  8
0
 62
     0
 10
102.443
 20
22.6439
 30
0.0
 11
102.443
 21
21.6435
 31
0.0
  0
LINE
  8
0
 62
     0
 10
102.443
 20
21.6435
 30
0.0
 11
116.443
 21
21.6435
 31
0.0
  0
LINE
  8
0
 62
     0
 10
116.443
 20
21.6435
 30
0.0
 11
116.443
 21
22.6439
 31
0.0
  0
LINE
  8
0
 62
     0
 10
116.443
 20
22.6439
 30
0.0
 11
117.244
 21
22.6439
 31
0.0
  0
LINE
  8
0
 62
     0
 10
117.244
 20
22.6439
 30
0.0
 11
117.244
 21
25.7431
 31
0.0
  0
LINE
  8
0
 62
     0
 10
117.244
 20
25.7431
 30
0.0
 11
116.443
 21
25.7431
 31
0.0
  0
LINE
  8
0
 62
     0
 10
116.443
 20
25.7431
 30
0.0
 11
116.443
 21
31.5433
 31
0.0
  0
LINE
  8
0
 62
     0
 10
116.443
 20
31.5433
 30
0.0
 11
117.244
 21
31.5433
 31
0.0
  0
LINE
  8
0
 62
     0
 10
117.244
 20
31.5433
 30
0.0
 11
117.244
 21
34.6439
 31
0.0
  0
LINE
  8
0
 62
     0
 10
117.244
 20
34.6439
 30
0.0
 11
116.443
 21
34.6439
 31
0.0
  0
LINE
  8
0
 62
     0
 10
116.443
 20
34.6439
 30
0.0
 11
116.443
 21
35.6429
 31
0.0
  0
LINE
  8
0
 62
     0
 10
116.443
 20
35.6429
 30
0.0
 11
102.443
 21
35.6429
 31
0.0
  0
LINE
  8
0
 62
     0
 10
83.3949
 20
35.6429
 30
0.0
 11
83.3949
 21
34.6439
 31
0.0
  0
LINE
  8
0
 62
     0
 10
83.3949
 20
34.6439
 30
0.0
 11
82.5941
 21
34.6439
 31
0.0
  0
LINE
  8
0
 62
     0
 10
82.5941
 20
34.6439
 30
0.0
 11
82.5941
 21
31.5433
 31
0.0
  0
LINE
  8
0
 62
     0
 10
82.5941
 20
31.5433
 30
0.0
 11
83.3949
 21
31.5433
 31
0.0
  0
LINE
  8
0
 62
     0
 10
83.3949
 20
31.5433
 30
0.0
 11
83.3949
 21
25.7431
 31
0.0
  0
LINE
  8
0
 62
     0
 10
83.3949
 20
25.7431
 30
0.0
 11
82.5941
 21
25.7431
 31
0.0
  0
LINE
  8
0
 62
     0
 10
82.5941
 20
25.7431
 30
0.0
 11
82.5941
 21
22.6439
 31
0.0
  0
LINE
  8
0
 62
     0
 10
82.5941
 20
22.6439
 30
0.0
 11
83.3949
 21
22.6439
 31
0.0
  0
LINE
  8
0
 62
     0
 10
83.3949
 20
22.6439
 30
0.0
 11
83.3949
 21
21.6435
 31
0.0
  0
LINE
  8
0
 62
     0
 10
83.3949
 20
21.6435
 30
0.0
 11
97.3942
 21
21.6435
 31
0.0
  0
LINE
  8
0
 62
     0
 10
97.3942
 20
21.6435
 30
0.0
 11
97.3942
 21
22.6439
 31
0.0
  0
LINE
  8
0
 62
     0
 10
97.3942
 20
22.6439
 30
0.0
 11
98.1936
 21
22.6439
 31
0.0
  0
LINE
  8
0
 62
     0
 10
98.1936
 20
22.6439
 30
0.0
 11
98.1936
 21
25.7431
 31
0.0
  0
LINE
  8
0
 62
     0
 10
98.1936
 20
25.7431
 30
0.0
 11
97.3942
 21
25.7431
 31
0.0
  0
LINE
  8
0
 62
     0
 10
97.3942
 20
25.7431
 30
0.0
 11
97.3942
 21
31.5433
 31
0.0
  0
LINE
  8
0
 62
     0
 10
97.3942
 20
31.5433
 30
0.0
 11
98.1936
 21
31.5433
 31
0.0
  0
LINE
  8
0
 62
     0
 10
98.1936
 20
31.5433
 30
0.0
 11
98.1936
 21
34.6439
 31
0.0
  0
LINE
  8
0
 62
     0
 10
98.1936
 20
34.6439
 30
0.0
 11
97.3942
 21
34.6439
 31
0.0
  0
LINE
  8
0
 62
     0
 10
97.3942
 20
34.6439
 30
0.0
 11
97.3942
 21
35.6429
 31
0.0
  0
LINE
  8
0
 62
     0
 10
97.3942
 20
35.6429
 30
0.0
 11
83.3949
 21
35.6429
 31
0.0
  0
LINE
  8
0
 62
     0
 10
64.3449
 20
35.6429
 30
0.0
 11
64.3449
 21
34.6439
 31
0.0
  0
LINE
  8
0
 62
     0
 10
64.3449
 20
34.6439
 30
0.0
 11
63.5441
 21
34.6439
 31
0.0
  0
LINE
  8
0
 62
     0
 10
63.5441
 20
34.6439
 30
0.0
 11
63.5441
 21
31.5433
 31
0.0
  0
LINE
  8
0
 62
     0
 10
63.5441
 20
31.5433
 30
0.0
 11
64.3449
 21
31.5433
 31
0.0
  0
LINE
  8
0
 62
     0
 10
64.3449
 20
31.5433
 30
0.0
 11
64.3449
 21
25.7431
 31
0.0
  0
LINE
  8
0
 62
     0
 10
64.3449
 20
25.7431
 30
0.0
 11
63.5441
 21
25.7431
 31
0.0
  0
LINE
  8
0
 62
     0
 10
63.5441
 20
25.7431
 30
0.0
 11
63.5441
 21
22.6439
 31
0.0
  0
LINE
  8
0
 62
     0
 10
63.5441
 20
22.6439
 30
0.0
 11
64.3449
 21
22.6439
 31
0.0
  0
LINE
  8
0
 62
     0
 10
64.3449
 20
22.6439
 30
0.0
 11
64.3449
 21
21.6435
 31
0.0
  0
LINE
  8
0
 62
     0
 10
64.3449
 20
21.6435
 30
0.0
 11
78.3442
 21
21.6435
 31
0.0
  0
LINE
  8
0
 62
     0
 10
78.3442
 20
21.6435
 30
0.0
 11
78.3442
 21
22.6439
 31
0.0
  0
LINE
  8
0
 62
     0
 10
78.3442
 20
22.6439
 30
0.0
 11
79.145
 21
22.6439
 31
0.0
  0
LINE
  8
0
 62
     0
 10
79.145
 20
22.6439
 30
0.0
 11
79.145
 21
25.7431
 31
0.0
  0
LINE
  8
0
 62
     0
 10
79.145
 20
25.7431
 30
0.0
 11
78.3442
 21
25.7431
 31
0.0
  0
LINE
  8
0
 62
     0
 10
78.3442
 20
25.7431
 30
0.0
 11
78.3442
 21
31.5433
 31
0.0
  0
LINE
  8
0
 62
     0
 10
78.3442
 20
31.5433
 30
0.0
 11
79.145
 21
31.5433
 31
0.0
  0
LINE
  8
0
 62
     0
 10
79.145
 20
31.5433
 30
0.0
 11
79.145
 21
34.6439
 31
0.0
  0
LINE
  8
0
 62
     0
 10
79.145
 20
34.6439
 30
0.0
 11
78.3442
 21
34.6439
 31
0.0
  0
LINE
  8
0
 62
     0
 10
78.3442
 20
34.6439
 30
0.0
 11
78.3442
 21
35.6429
 31
0.0
  0
LINE
  8
0
 62
     0
 10
78.3442
 20
35.6429
 30
0.0
 11
64.3449
 21
35.6429
 31
0.0
  0
LINE
  8
0
 62
     0
 10
45.2949
 20
35.6429
 30
0.0
 11
45.2949
 21
34.6439
 31
0.0
  0
LINE
  8
0
 62
     0
 10
45.2949
 20
34.6439
 30
0.0
 11
44.4941
 21
34.6439
 31
0.0
  0
LINE
  8
0
 62
     0
 10
44.4941
 20
34.6439
 30
0.0
 11
44.4941
 21
31.5433
 31
0.0
  0
LINE
  8
0
 62
     0
 10
44.4941
 20
31.5433
 30
0.0
 11
45.2949
 21
31.5433
 31
0.0
  0
LINE
  8
0
 62
     0
 10
45.2949
 20
31.5433
 30
0.0
 11
45.2949
 21
25.7431
 31
0.0
  0
LINE
  8
0
 62
     0
 10
45.2949
 20
25.7431
 30
0.0
 11
44.4941
 21
25.7431
 31
0.0
  0
LINE
  8
0
 62
     0
 10
44.4941
 20
25.7431
 30
0.0
 11
44.4941
 21
22.6439
 31
0.0
  0
LINE
  8
0
 62
     0
 10
44.4941
 20
22.6439
 30
0.0
 11
45.2949
 21
22.6439
 31
0.0
  0
LINE
  8
0
 62
     0
 10
45.2949
 20
22.6439
 30
0.0
 11
45.2949
 21
21.6435
 31
0.0
  0
LINE
  8
0
 62
     0
 10
45.2949
 20
21.6435
 30
0.0
 11
59.2942
 21
21.6435
 31
0.0
  0
LINE
  8
0
 62
     0
 10
59.2942
 20
21.6435
 30
0.0
 11
59.2942
 21
22.6439
 31
0.0
  0
LINE
  8
0
 62
     0
 10
59.2942
 20
22.6439
 30
0.0
 11
60.095
 21
22.6439
 31
0.0
  0
LINE
  8
0
 62
     0
 10
60.095
 20
22.6439
 30
0.0
 11
60.095
 21
25.7431
 31
0.0
  0
LINE
  8
0
 62
     0
 10
60.095
 20
25.7431
 30
0.0
 11
59.2942
 21
25.7431
 31
0.0
  0
LINE
  8
0
 62
     0
 10
59.2942
 20
25.7431
 30
0.0
 11
59.2942
 21
31.5433
 31
0.0
  0
LINE
  8
0
 62
     0
 10
59.2942
 20
31.5433
 30
0.0
 11
60.095
 21
31.5433
 31
0.0
  0
LINE
  8
0
 62
     0
 10
60.095
 20
31.5433
 30
0.0
 11
60.095
 21
34.6439
 31
0.0
  0
LINE
  8
0
 62
     0
 10
60.095
 20
34.6439
 30
0.0
 11
59.2942
 21
34.6439
 31
0.0
  0
LINE
  8
0
 62
     0
 10
59.2942
 20
34.6439
 30
0.0
 11
59.2942
 21
35.6429
 31
0.0
  0
LINE
  8
0
 62
     0
 10
59.2942
 20
35.6429
 30
0.0
 11
45.2949
 21
35.6429
 31
0.0
  0
LINE
  8
0
 62
     0
 10
257.223
 20
54.6929
 30
0.0
 11
257.223
 21
53.6924
 31
0.0
  0
LINE
  8
0
 62
     0
 10
257.223
 20
53.6924
 30
0.0
 11
256.424
 21
53.6924
 31
0.0
  0
LINE
  8
0
 62
     0
 10
256.424
 20
53.6924
 30
0.0
 11
256.424
 21
50.5933
 31
0.0
  0
LINE
  8
0
 62
     0
 10
256.424
 20
50.5933
 30
0.0
 11
257.223
 21
50.5933
 31
0.0
  0
LINE
  8
0
 62
     0
 10
257.223
 20
50.5933
 30
0.0
 11
257.223
 21
49.9939
 31
0.0
  0
LINE
  8
0
 62
     0
 10
257.223
 20
49.9939
 30
0.0
 11
255.699
 21
49.9939
 31
0.0
  0
LINE
  8
0
 62
     0
 10
255.699
 20
49.9939
 30
0.0
 11
255.699
 21
53.2225
 31
0.0
  0
LINE
  8
0
 62
     0
 10
255.699
 20
53.2225
 30
0.0
 11
248.95
 21
53.2225
 31
0.0
  0
LINE
  8
0
 62
     0
 10
248.95
 20
53.2225
 30
0.0
 11
248.95
 21
49.9939
 31
0.0
  0
LINE
  8
0
 62
     0
 10
248.95
 20
49.9939
 30
0.0
 11
248.126
 21
49.9939
 31
0.0
  0
LINE
  8
0
 62
     0
 10
248.126
 20
49.9939
 30
0.0
 11
248.126
 21
47.1921
 31
0.0
  0
LINE
  8
0
 62
     0
 10
248.126
 20
47.1921
 30
0.0
 11
248.95
 21
47.1921
 31
0.0
  0
LINE
  8
0
 62
     0
 10
248.95
 20
47.1921
 30
0.0
 11
248.95
 21
40.9236
 31
0.0
  0
LINE
  8
0
 62
     0
 10
248.95
 20
40.9236
 30
0.0
 11
250.675
 21
40.9236
 31
0.0
  0
LINE
  8
0
 62
     0
 10
250.675
 20
40.9236
 30
0.0
 11
250.675
 21
39.7221
 31
0.0
  0
LINE
  8
0
 62
     0
 10
250.675
 20
39.7221
 30
0.0
 11
253.974
 21
39.7221
 31
0.0
  0
LINE
  8
0
 62
     0
 10
253.974
 20
39.7221
 30
0.0
 11
253.974
 21
40.9236
 31
0.0
  0
LINE
  8
0
 62
     0
 10
253.974
 20
40.9236
 30
0.0
 11
255.699
 21
40.9236
 31
0.0
  0
LINE
  8
0
 62
     0
 10
255.699
 20
40.9236
 30
0.0
 11
255.699
 21
45.394
 31
0.0
  0
LINE
  8
0
 62
     0
 10
255.699
 20
45.394
 30
0.0
 11
257.223
 21
45.394
 31
0.0
  0
LINE
  8
0
 62
     0
 10
257.223
 20
45.394
 30
0.0
 11
257.223
 21
44.7933
 31
0.0
  0
LINE
  8
0
 62
     0
 10
257.223
 20
44.7933
 30
0.0
 11
256.424
 21
44.7933
 31
0.0
  0
LINE
  8
0
 62
     0
 10
256.424
 20
44.7933
 30
0.0
 11
256.424
 21
41.6927
 31
0.0
  0
LINE
  8
0
 62
     0
 10
256.424
 20
41.6927
 30
0.0
 11
257.223
 21
41.6927
 31
0.0
  0
LINE
  8
0
 62
     0
 10
257.223
 20
41.6927
 30
0.0
 11
257.223
 21
40.6922
 31
0.0
  0
LINE
  8
0
 62
     0
 10
257.223
 20
40.6922
 30
0.0
 11
271.224
 21
40.6922
 31
0.0
  0
LINE
  8
0
 62
     0
 10
271.224
 20
40.6922
 30
0.0
 11
271.224
 21
41.6927
 31
0.0
  0
LINE
  8
0
 62
     0
 10
271.224
 20
41.6927
 30
0.0
 11
272.025
 21
41.6927
 31
0.0
  0
LINE
  8
0
 62
     0
 10
272.025
 20
41.6927
 30
0.0
 11
272.025
 21
44.7933
 31
0.0
  0
LINE
  8
0
 62
     0
 10
272.025
 20
44.7933
 30
0.0
 11
271.224
 21
44.7933
 31
0.0
  0
LINE
  8
0
 62
     0
 10
271.224
 20
44.7933
 30
0.0
 11
271.224
 21
45.394
 31
0.0
  0
LINE
  8
0
 62
     0
 10
271.224
 20
45.394
 30
0.0
 11
272.749
 21
45.394
 31
0.0
  0
LINE
  8
0
 62
     0
 10
272.749
 20
45.394
 30
0.0
 11
272.749
 21
40.9236
 31
0.0
  0
LINE
  8
0
 62
     0
 10
272.749
 20
40.9236
 30
0.0
 11
274.475
 21
40.9236
 31
0.0
  0
LINE
  8
0
 62
     0
 10
274.475
 20
40.9236
 30
0.0
 11
274.475
 21
39.7221
 31
0.0
  0
LINE
  8
0
 62
     0
 10
274.475
 20
39.7221
 30
0.0
 11
277.774
 21
39.7221
 31
0.0
  0
LINE
  8
0
 62
     0
 10
277.774
 20
39.7221
 30
0.0
 11
277.774
 21
40.9236
 31
0.0
  0
LINE
  8
0
 62
     0
 10
277.774
 20
40.9236
 30
0.0
 11
279.499
 21
40.9236
 31
0.0
  0
LINE
  8
0
 62
     0
 10
279.499
 20
40.9236
 30
0.0
 11
279.499
 21
47.1921
 31
0.0
  0
LINE
  8
0
 62
     0
 10
279.499
 20
47.1921
 30
0.0
 11
280.325
 21
47.1921
 31
0.0
  0
LINE
  8
0
 62
     0
 10
280.325
 20
47.1921
 30
0.0
 11
280.325
 21
49.9939
 31
0.0
  0
LINE
  8
0
 62
     0
 10
280.325
 20
49.9939
 30
0.0
 11
279.499
 21
49.9939
 31
0.0
  0
LINE
  8
0
 62
     0
 10
279.499
 20
49.9939
 30
0.0
 11
279.499
 21
53.2225
 31
0.0
  0
LINE
  8
0
 62
     0
 10
279.499
 20
53.2225
 30
0.0
 11
272.749
 21
53.2225
 31
0.0
  0
LINE
  8
0
 62
     0
 10
272.749
 20
53.2225
 30
0.0
 11
272.749
 21
49.9939
 31
0.0
  0
LINE
  8
0
 62
     0
 10
272.749
 20
49.9939
 30
0.0
 11
271.224
 21
49.9939
 31
0.0
  0
LINE
  8
0
 62
     0
 10
271.224
 20
49.9939
 30
0.0
 11
271.224
 21
50.5933
 31
0.0
  0
LINE
  8
0
 62
     0
 10
271.224
 20
50.5933
 30
0.0
 11
272.025
 21
50.5933
 31
0.0
  0
LINE
  8
0
 62
     0
 10
272.025
 20
50.5933
 30
0.0
 11
272.025
 21
53.6924
 31
0.0
  0
LINE
  8
0
 62
     0
 10
272.025
 20
53.6924
 30
0.0
 11
271.224
 21
53.6924
 31
0.0
  0
LINE
  8
0
 62
     0
 10
271.224
 20
53.6924
 30
0.0
 11
271.224
 21
54.6929
 31
0.0
  0
LINE
  8
0
 62
     0
 10
271.224
 20
54.6929
 30
0.0
 11
257.223
 21
54.6929
 31
0.0
  0
LINE
  8
0
 62
     0
 10
226.27
 20
54.6929
 30
0.0
 11
226.27
 21
53.6924
 31
0.0
  0
LINE
  8
0
 62
     0
 10
226.27
 20
53.6924
 30
0.0
 11
225.469
 21
53.6924
 31
0.0
  0
LINE
  8
0
 62
     0
 10
225.469
 20
53.6924
 30
0.0
 11
225.469
 21
50.5933
 31
0.0
  0
LINE
  8
0
 62
     0
 10
225.469
 20
50.5933
 30
0.0
 11
226.27
 21
50.5933
 31
0.0
  0
LINE
  8
0
 62
     0
 10
226.27
 20
50.5933
 30
0.0
 11
226.27
 21
44.7933
 31
0.0
  0
LINE
  8
0
 62
     0
 10
226.27
 20
44.7933
 30
0.0
 11
225.469
 21
44.7933
 31
0.0
  0
LINE
  8
0
 62
     0
 10
225.469
 20
44.7933
 30
0.0
 11
225.469
 21
41.6927
 31
0.0
  0
LINE
  8
0
 62
     0
 10
225.469
 20
41.6927
 30
0.0
 11
226.27
 21
41.6927
 31
0.0
  0
LINE
  8
0
 62
     0
 10
226.27
 20
41.6927
 30
0.0
 11
226.27
 21
40.6922
 31
0.0
  0
LINE
  8
0
 62
     0
 10
226.27
 20
40.6922
 30
0.0
 11
240.269
 21
40.6922
 31
0.0
  0
LINE
  8
0
 62
     0
 10
240.269
 20
40.6922
 30
0.0
 11
240.269
 21
41.6927
 31
0.0
  0
LINE
  8
0
 62
     0
 10
240.269
 20
41.6927
 30
0.0
 11
241.069
 21
41.6927
 31
0.0
  0
LINE
  8
0
 62
     0
 10
241.069
 20
41.6927
 30
0.0
 11
241.069
 21
44.7933
 31
0.0
  0
LINE
  8
0
 62
     0
 10
241.069
 20
44.7933
 30
0.0
 11
240.269
 21
44.7933
 31
0.0
  0
LINE
  8
0
 62
     0
 10
240.269
 20
44.7933
 30
0.0
 11
240.269
 21
50.5933
 31
0.0
  0
LINE
  8
0
 62
     0
 10
240.269
 20
50.5933
 30
0.0
 11
241.069
 21
50.5933
 31
0.0
  0
LINE
  8
0
 62
     0
 10
241.069
 20
50.5933
 30
0.0
 11
241.069
 21
53.6924
 31
0.0
  0
LINE
  8
0
 62
     0
 10
241.069
 20
53.6924
 30
0.0
 11
240.269
 21
53.6924
 31
0.0
  0
LINE
  8
0
 62
     0
 10
240.269
 20
53.6924
 30
0.0
 11
240.269
 21
54.6929
 31
0.0
  0
LINE
  8
0
 62
     0
 10
240.269
 20
54.6929
 30
0.0
 11
226.27
 21
54.6929
 31
0.0
  0
LINE
  8
0
 62
     0
 10
207.22
 20
54.6929
 30
0.0
 11
207.22
 21
53.6924
 31
0.0
  0
LINE
  8
0
 62
     0
 10
207.22
 20
53.6924
 30
0.0
 11
206.419
 21
53.6924
 31
0.0
  0
LINE
  8
0
 62
     0
 10
206.419
 20
53.6924
 30
0.0
 11
206.419
 21
50.5933
 31
0.0
  0
LINE
  8
0
 62
     0
 10
206.419
 20
50.5933
 30
0.0
 11
207.22
 21
50.5933
 31
0.0
  0
LINE
  8
0
 62
     0
 10
207.22
 20
50.5933
 30
0.0
 11
207.22
 21
44.7933
 31
0.0
  0
LINE
  8
0
 62
     0
 10
207.22
 20
44.7933
 30
0.0
 11
206.419
 21
44.7933
 31
0.0
  0
LINE
  8
0
 62
     0
 10
206.419
 20
44.7933
 30
0.0
 11
206.419
 21
41.6927
 31
0.0
  0
LINE
  8
0
 62
     0
 10
206.419
 20
41.6927
 30
0.0
 11
207.22
 21
41.6927
 31
0.0
  0
LINE
  8
0
 62
     0
 10
207.22
 20
41.6927
 30
0.0
 11
207.22
 21
40.6922
 31
0.0
  0
LINE
  8
0
 62
     0
 10
207.22
 20
40.6922
 30
0.0
 11
221.219
 21
40.6922
 31
0.0
  0
LINE
  8
0
 62
     0
 10
221.219
 20
40.6922
 30
0.0
 11
221.219
 21
41.6927
 31
0.0
  0
LINE
  8
0
 62
     0
 10
221.219
 20
41.6927
 30
0.0
 11
222.02
 21
41.6927
 31
0.0
  0
LINE
  8
0
 62
     0
 10
222.02
 20
41.6927
 30
0.0
 11
222.02
 21
44.7933
 31
0.0
  0
LINE
  8
0
 62
     0
 10
222.02
 20
44.7933
 30
0.0
 11
221.219
 21
44.7933
 31
0.0
  0
LINE
  8
0
 62
     0
 10
221.219
 20
44.7933
 30
0.0
 11
221.219
 21
50.5933
 31
0.0
  0
LINE
  8
0
 62
     0
 10
221.219
 20
50.5933
 30
0.0
 11
222.02
 21
50.5933
 31
0.0
  0
LINE
  8
0
 62
     0
 10
222.02
 20
50.5933
 30
0.0
 11
222.02
 21
53.6924
 31
0.0
  0
LINE
  8
0
 62
     0
 10
222.02
 20
53.6924
 30
0.0
 11
221.219
 21
53.6924
 31
0.0
  0
LINE
  8
0
 62
     0
 10
221.219
 20
53.6924
 30
0.0
 11
221.219
 21
54.6929
 31
0.0
  0
LINE
  8
0
 62
     0
 10
221.219
 20
54.6929
 30
0.0
 11
207.22
 21
54.6929
 31
0.0
  0
LINE
  8
0
 62
     0
 10
188.168
 20
54.6929
 30
0.0
 11
188.168
 21
53.6924
 31
0.0
  0
LINE
  8
0
 62
     0
 10
188.168
 20
53.6924
 30
0.0
 11
187.369
 21
53.6924
 31
0.0
  0
LINE
  8
0
 62
     0
 10
187.369
 20
53.6924
 30
0.0
 11
187.369
 21
50.5933
 31
0.0
  0
LINE
  8
0
 62
     0
 10
187.369
 20
50.5933
 30
0.0
 11
188.168
 21
50.5933
 31
0.0
  0
LINE
  8
0
 62
     0
 10
188.168
 20
50.5933
 30
0.0
 11
188.168
 21
44.7933
 31
0.0
  0
LINE
  8
0
 62
     0
 10
188.168
 20
44.7933
 30
0.0
 11
187.369
 21
44.7933
 31
0.0
  0
LINE
  8
0
 62
     0
 10
187.369
 20
44.7933
 30
0.0
 11
187.369
 21
41.6927
 31
0.0
  0
LINE
  8
0
 62
     0
 10
187.369
 20
41.6927
 30
0.0
 11
188.168
 21
41.6927
 31
0.0
  0
LINE
  8
0
 62
     0
 10
188.168
 20
41.6927
 30
0.0
 11
188.168
 21
40.6922
 31
0.0
  0
LINE
  8
0
 62
     0
 10
188.168
 20
40.6922
 30
0.0
 11
202.168
 21
40.6922
 31
0.0
  0
LINE
  8
0
 62
     0
 10
202.168
 20
40.6922
 30
0.0
 11
202.168
 21
41.6927
 31
0.0
  0
LINE
  8
0
 62
     0
 10
202.168
 20
41.6927
 30
0.0
 11
202.97
 21
41.6927
 31
0.0
  0
LINE
  8
0
 62
     0
 10
202.97
 20
41.6927
 30
0.0
 11
202.97
 21
44.7933
 31
0.0
  0
LINE
  8
0
 62
     0
 10
202.97
 20
44.7933
 30
0.0
 11
202.168
 21
44.7933
 31
0.0
  0
LINE
  8
0
 62
     0
 10
202.168
 20
44.7933
 30
0.0
 11
202.168
 21
50.5933
 31
0.0
  0
LINE
  8
0
 62
     0
 10
202.168
 20
50.5933
 30
0.0
 11
202.97
 21
50.5933
 31
0.0
  0
LINE
  8
0
 62
     0
 10
202.97
 20
50.5933
 30
0.0
 11
202.97
 21
53.6924
 31
0.0
  0
LINE
  8
0
 62
     0
 10
202.97
 20
53.6924
 30
0.0
 11
202.168
 21
53.6924
 31
0.0
  0
LINE
  8
0
 62
     0
 10
202.168
 20
53.6924
 30
0.0
 11
202.168
 21
54.6929
 31
0.0
  0
LINE
  8
0
 62
     0
 10
202.168
 20
54.6929
 30
0.0
 11
188.168
 21
54.6929
 31
0.0
  0
LINE
  8
0
 62
     0
 10
169.12
 20
54.6929
 30
0.0
 11
169.12
 21
53.6924
 31
0.0
  0
LINE
  8
0
 62
     0
 10
169.12
 20
53.6924
 30
0.0
 11
168.319
 21
53.6924
 31
0.0
  0
LINE
  8
0
 62
     0
 10
168.319
 20
53.6924
 30
0.0
 11
168.319
 21
50.5933
 31
0.0
  0
LINE
  8
0
 62
     0
 10
168.319
 20
50.5933
 30
0.0
 11
169.12
 21
50.5933
 31
0.0
  0
LINE
  8
0
 62
     0
 10
169.12
 20
50.5933
 30
0.0
 11
169.12
 21
44.7933
 31
0.0
  0
LINE
  8
0
 62
     0
 10
169.12
 20
44.7933
 30
0.0
 11
168.319
 21
44.7933
 31
0.0
  0
LINE
  8
0
 62
     0
 10
168.319
 20
44.7933
 30
0.0
 11
168.319
 21
41.6927
 31
0.0
  0
LINE
  8
0
 62
     0
 10
168.319
 20
41.6927
 30
0.0
 11
169.12
 21
41.6927
 31
0.0
  0
LINE
  8
0
 62
     0
 10
169.12
 20
41.6927
 30
0.0
 11
169.12
 21
40.6922
 31
0.0
  0
LINE
  8
0
 62
     0
 10
169.12
 20
40.6922
 30
0.0
 11
183.119
 21
40.6922
 31
0.0
  0
LINE
  8
0
 62
     0
 10
183.119
 20
40.6922
 30
0.0
 11
183.119
 21
41.6927
 31
0.0
  0
LINE
  8
0
 62
     0
 10
183.119
 20
41.6927
 30
0.0
 11
183.919
 21
41.6927
 31
0.0
  0
LINE
  8
0
 62
     0
 10
183.919
 20
41.6927
 30
0.0
 11
183.919
 21
44.7933
 31
0.0
  0
LINE
  8
0
 62
     0
 10
183.919
 20
44.7933
 30
0.0
 11
183.119
 21
44.7933
 31
0.0
  0
LINE
  8
0
 62
     0
 10
183.119
 20
44.7933
 30
0.0
 11
183.119
 21
50.5933
 31
0.0
  0
LINE
  8
0
 62
     0
 10
183.119
 20
50.5933
 30
0.0
 11
183.919
 21
50.5933
 31
0.0
  0
LINE
  8
0
 62
     0
 10
183.919
 20
50.5933
 30
0.0
 11
183.919
 21
53.6924
 31
0.0
  0
LINE
  8
0
 62
     0
 10
183.919
 20
53.6924
 30
0.0
 11
183.119
 21
53.6924
 31
0.0
  0
LINE
  8
0
 62
     0
 10
183.119
 20
53.6924
 30
0.0
 11
183.119
 21
54.6929
 31
0.0
  0
LINE
  8
0
 62
     0
 10
183.119
 20
54.6929
 30
0.0
 11
169.12
 21
54.6929
 31
0.0
  0
LINE
  8
0
 62
     0
 10
150.068
 20
54.6929
 30
0.0
 11
150.068
 21
53.6924
 31
0.0
  0
LINE
  8
0
 62
     0
 10
150.068
 20
53.6924
 30
0.0
 11
149.269
 21
53.6924
 31
0.0
  0
LINE
  8
0
 62
     0
 10
149.269
 20
53.6924
 30
0.0
 11
149.269
 21
50.5933
 31
0.0
  0
LINE
  8
0
 62
     0
 10
149.269
 20
50.5933
 30
0.0
 11
150.068
 21
50.5933
 31
0.0
  0
LINE
  8
0
 62
     0
 10
150.068
 20
50.5933
 30
0.0
 11
150.068
 21
44.7933
 31
0.0
  0
LINE
  8
0
 62
     0
 10
150.068
 20
44.7933
 30
0.0
 11
149.269
 21
44.7933
 31
0.0
  0
LINE
  8
0
 62
     0
 10
149.269
 20
44.7933
 30
0.0
 11
149.269
 21
41.6927
 31
0.0
  0
LINE
  8
0
 62
     0
 10
149.269
 20
41.6927
 30
0.0
 11
150.068
 21
41.6927
 31
0.0
  0
LINE
  8
0
 62
     0
 10
150.068
 20
41.6927
 30
0.0
 11
150.068
 21
40.6922
 31
0.0
  0
LINE
  8
0
 62
     0
 10
150.068
 20
40.6922
 30
0.0
 11
164.068
 21
40.6922
 31
0.0
  0
LINE
  8
0
 62
     0
 10
164.068
 20
40.6922
 30
0.0
 11
164.068
 21
41.6927
 31
0.0
  0
LINE
  8
0
 62
     0
 10
164.068
 20
41.6927
 30
0.0
 11
164.87
 21
41.6927
 31
0.0
  0
LINE
  8
0
 62
     0
 10
164.87
 20
41.6927
 30
0.0
 11
164.87
 21
44.7933
 31
0.0
  0
LINE
  8
0
 62
     0
 10
164.87
 20
44.7933
 30
0.0
 11
164.068
 21
44.7933
 31
0.0
  0
LINE
  8
0
 62
     0
 10
164.068
 20
44.7933
 30
0.0
 11
164.068
 21
50.5933
 31
0.0
  0
LINE
  8
0
 62
     0
 10
164.068
 20
50.5933
 30
0.0
 11
164.87
 21
50.5933
 31
0.0
  0
LINE
  8
0
 62
     0
 10
164.87
 20
50.5933
 30
0.0
 11
164.87
 21
53.6924
 31
0.0
  0
LINE
  8
0
 62
     0
 10
164.87
 20
53.6924
 30
0.0
 11
164.068
 21
53.6924
 31
0.0
  0
LINE
  8
0
 62
     0
 10
164.068
 20
53.6924
 30
0.0
 11
164.068
 21
54.6929
 31
0.0
  0
LINE
  8
0
 62
     0
 10
164.068
 20
54.6929
 30
0.0
 11
150.068
 21
54.6929
 31
0.0
  0
LINE
  8
0
 62
     0
 10
131.018
 20
54.6929
 30
0.0
 11
131.018
 21
53.6924
 31
0.0
  0
LINE
  8
0
 62
     0
 10
131.018
 20
53.6924
 30
0.0
 11
130.218
 21
53.6924
 31
0.0
  0
LINE
  8
0
 62
     0
 10
130.218
 20
53.6924
 30
0.0
 11
130.218
 21
50.5933
 31
0.0
  0
LINE
  8
0
 62
     0
 10
130.218
 20
50.5933
 30
0.0
 11
131.018
 21
50.5933
 31
0.0
  0
LINE
  8
0
 62
     0
 10
131.018
 20
50.5933
 30
0.0
 11
131.018
 21
44.7933
 31
0.0
  0
LINE
  8
0
 62
     0
 10
131.018
 20
44.7933
 30
0.0
 11
130.218
 21
44.7933
 31
0.0
  0
LINE
  8
0
 62
     0
 10
130.218
 20
44.7933
 30
0.0
 11
130.218
 21
41.6927
 31
0.0
  0
LINE
  8
0
 62
     0
 10
130.218
 20
41.6927
 30
0.0
 11
131.018
 21
41.6927
 31
0.0
  0
LINE
  8
0
 62
     0
 10
131.018
 20
41.6927
 30
0.0
 11
131.018
 21
40.6922
 31
0.0
  0
LINE
  8
0
 62
     0
 10
131.018
 20
40.6922
 30
0.0
 11
145.018
 21
40.6922
 31
0.0
  0
LINE
  8
0
 62
     0
 10
145.018
 20
40.6922
 30
0.0
 11
145.018
 21
41.6927
 31
0.0
  0
LINE
  8
0
 62
     0
 10
145.018
 20
41.6927
 30
0.0
 11
145.819
 21
41.6927
 31
0.0
  0
LINE
  8
0
 62
     0
 10
145.819
 20
41.6927
 30
0.0
 11
145.819
 21
44.7933
 31
0.0
  0
LINE
  8
0
 62
     0
 10
145.819
 20
44.7933
 30
0.0
 11
145.018
 21
44.7933
 31
0.0
  0
LINE
  8
0
 62
     0
 10
145.018
 20
44.7933
 30
0.0
 11
145.018
 21
50.5933
 31
0.0
  0
LINE
  8
0
 62
     0
 10
145.018
 20
50.5933
 30
0.0
 11
145.819
 21
50.5933
 31
0.0
  0
LINE
  8
0
 62
     0
 10
145.819
 20
50.5933
 30
0.0
 11
145.819
 21
53.6924
 31
0.0
  0
LINE
  8
0
 62
     0
 10
145.819
 20
53.6924
 30
0.0
 11
145.018
 21
53.6924
 31
0.0
  0
LINE
  8
0
 62
     0
 10
145.018
 20
53.6924
 30
0.0
 11
145.018
 21
54.6929
 31
0.0
  0
LINE
  8
0
 62
     0
 10
145.018
 20
54.6929
 30
0.0
 11
131.018
 21
54.6929
 31
0.0
  0
LINE
  8
0
 62
     0
 10
111.967
 20
54.6929
 30
0.0
 11
111.967
 21
53.6924
 31
0.0
  0
LINE
  8
0
 62
     0
 10
111.967
 20
53.6924
 30
0.0
 11
111.169
 21
53.6924
 31
0.0
  0
LINE
  8
0
 62
     0
 10
111.169
 20
53.6924
 30
0.0
 11
111.169
 21
50.5933
 31
0.0
  0
LINE
  8
0
 62
     0
 10
111.169
 20
50.5933
 30
0.0
 11
111.967
 21
50.5933
 31
0.0
  0
LINE
  8
0
 62
     0
 10
111.967
 20
50.5933
 30
0.0
 11
111.967
 21
44.7933
 31
0.0
  0
LINE
  8
0
 62
     0
 10
111.967
 20
44.7933
 30
0.0
 11
111.169
 21
44.7933
 31
0.0
  0
LINE
  8
0
 62
     0
 10
111.169
 20
44.7933
 30
0.0
 11
111.169
 21
41.6927
 31
0.0
  0
LINE
  8
0
 62
     0
 10
111.169
 20
41.6927
 30
0.0
 11
111.967
 21
41.6927
 31
0.0
  0
LINE
  8
0
 62
     0
 10
111.967
 20
41.6927
 30
0.0
 11
111.967
 21
40.6922
 31
0.0
  0
LINE
  8
0
 62
     0
 10
111.967
 20
40.6922
 30
0.0
 11
125.969
 21
40.6922
 31
0.0
  0
LINE
  8
0
 62
     0
 10
125.969
 20
40.6922
 30
0.0
 11
125.969
 21
41.6927
 31
0.0
  0
LINE
  8
0
 62
     0
 10
125.969
 20
41.6927
 30
0.0
 11
126.769
 21
41.6927
 31
0.0
  0
LINE
  8
0
 62
     0
 10
126.769
 20
41.6927
 30
0.0
 11
126.769
 21
44.7933
 31
0.0
  0
LINE
  8
0
 62
     0
 10
126.769
 20
44.7933
 30
0.0
 11
125.969
 21
44.7933
 31
0.0
  0
LINE
  8
0
 62
     0
 10
125.969
 20
44.7933
 30
0.0
 11
125.969
 21
50.5933
 31
0.0
  0
LINE
  8
0
 62
     0
 10
125.969
 20
50.5933
 30
0.0
 11
126.769
 21
50.5933
 31
0.0
  0
LINE
  8
0
 62
     0
 10
126.769
 20
50.5933
 30
0.0
 11
126.769
 21
53.6924
 31
0.0
  0
LINE
  8
0
 62
     0
 10
126.769
 20
53.6924
 30
0.0
 11
125.969
 21
53.6924
 31
0.0
  0
LINE
  8
0
 62
     0
 10
125.969
 20
53.6924
 30
0.0
 11
125.969
 21
54.6929
 31
0.0
  0
LINE
  8
0
 62
     0
 10
125.969
 20
54.6929
 30
0.0
 11
111.967
 21
54.6929
 31
0.0
  0
LINE
  8
0
 62
     0
 10
92.9185
 20
54.6929
 30
0.0
 11
92.9185
 21
53.6924
 31
0.0
  0
LINE
  8
0
 62
     0
 10
92.9185
 20
53.6924
 30
0.0
 11
92.1191
 21
53.6924
 31
0.0
  0
LINE
  8
0
 62
     0
 10
92.1191
 20
53.6924
 30
0.0
 11
92.1191
 21
50.5933
 31
0.0
  0
LINE
  8
0
 62
     0
 10
92.1191
 20
50.5933
 30
0.0
 11
92.9185
 21
50.5933
 31
0.0
  0
LINE
  8
0
 62
     0
 10
92.9185
 20
50.5933
 30
0.0
 11
92.9185
 21
44.7933
 31
0.0
  0
LINE
  8
0
 62
     0
 10
92.9185
 20
44.7933
 30
0.0
 11
92.1191
 21
44.7933
 31
0.0
  0
LINE
  8
0
 62
     0
 10
92.1191
 20
44.7933
 30
0.0
 11
92.1191
 21
41.6927
 31
0.0
  0
LINE
  8
0
 62
     0
 10
92.1191
 20
41.6927
 30
0.0
 11
92.9185
 21
41.6927
 31
0.0
  0
LINE
  8
0
 62
     0
 10
92.9185
 20
41.6927
 30
0.0
 11
92.9185
 21
40.6922
 31
0.0
  0
LINE
  8
0
 62
     0
 10
92.9185
 20
40.6922
 30
0.0
 11
106.918
 21
40.6922
 31
0.0
  0
LINE
  8
0
 62
     0
 10
106.918
 20
40.6922
 30
0.0
 11
106.918
 21
41.6927
 31
0.0
  0
LINE
  8
0
 62
     0
 10
106.918
 20
41.6927
 30
0.0
 11
107.717
 21
41.6927
 31
0.0
  0
LINE
  8
0
 62
     0
 10
107.717
 20
41.6927
 30
0.0
 11
107.717
 21
44.7933
 31
0.0
  0
LINE
  8
0
 62
     0
 10
107.717
 20
44.7933
 30
0.0
 11
106.918
 21
44.7933
 31
0.0
  0
LINE
  8
0
 62
     0
 10
106.918
 20
44.7933
 30
0.0
 11
106.918
 21
50.5933
 31
0.0
  0
LINE
  8
0
 62
     0
 10
106.918
 20
50.5933
 30
0.0
 11
107.717
 21
50.5933
 31
0.0
  0
LINE
  8
0
 62
     0
 10
107.717
 20
50.5933
 30
0.0
 11
107.717
 21
53.6924
 31
0.0
  0
LINE
  8
0
 62
     0
 10
107.717
 20
53.6924
 30
0.0
 11
106.918
 21
53.6924
 31
0.0
  0
LINE
  8
0
 62
     0
 10
106.918
 20
53.6924
 30
0.0
 11
106.918
 21
54.6929
 31
0.0
  0
LINE
  8
0
 62
     0
 10
106.918
 20
54.6929
 30
0.0
 11
92.9185
 21
54.6929
 31
0.0
  0
LINE
  8
0
 62
     0
 10
73.8685
 20
54.6929
 30
0.0
 11
73.8685
 21
53.6924
 31
0.0
  0
LINE
  8
0
 62
     0
 10
73.8685
 20
53.6924
 30
0.0
 11
73.0691
 21
53.6924
 31
0.0
  0
LINE
  8
0
 62
     0
 10
73.0691
 20
53.6924
 30
0.0
 11
73.0691
 21
50.5933
 31
0.0
  0
LINE
  8
0
 62
     0
 10
73.0691
 20
50.5933
 30
0.0
 11
73.8685
 21
50.5933
 31
0.0
  0
LINE
  8
0
 62
     0
 10
73.8685
 20
50.5933
 30
0.0
 11
73.8685
 21
44.7933
 31
0.0
  0
LINE
  8
0
 62
     0
 10
73.8685
 20
44.7933
 30
0.0
 11
73.0691
 21
44.7933
 31
0.0
  0
LINE
  8
0
 62
     0
 10
73.0691
 20
44.7933
 30
0.0
 11
73.0691
 21
41.6927
 31
0.0
  0
LINE
  8
0
 62
     0
 10
73.0691
 20
41.6927
 30
0.0
 11
73.8685
 21
41.6927
 31
0.0
  0
LINE
  8
0
 62
     0
 10
73.8685
 20
41.6927
 30
0.0
 11
73.8685
 21
40.6922
 31
0.0
  0
LINE
  8
0
 62
     0
 10
73.8685
 20
40.6922
 30
0.0
 11
87.8678
 21
40.6922
 31
0.0
  0
LINE
  8
0
 62
     0
 10
87.8678
 20
40.6922
 30
0.0
 11
87.8678
 21
41.6927
 31
0.0
  0
LINE
  8
0
 62
     0
 10
87.8678
 20
41.6927
 30
0.0
 11
88.6686
 21
41.6927
 31
0.0
  0
LINE
  8
0
 62
     0
 10
88.6686
 20
41.6927
 30
0.0
 11
88.6686
 21
44.7933
 31
0.0
  0
LINE
  8
0
 62
     0
 10
88.6686
 20
44.7933
 30
0.0
 11
87.8678
 21
44.7933
 31
0.0
  0
LINE
  8
0
 62
     0
 10
87.8678
 20
44.7933
 30
0.0
 11
87.8678
 21
50.5933
 31
0.0
  0
LINE
  8
0
 62
     0
 10
87.8678
 20
50.5933
 30
0.0
 11
88.6686
 21
50.5933
 31
0.0
  0
LINE
  8
0
 62
     0
 10
88.6686
 20
50.5933
 30
0.0
 11
88.6686
 21
53.6924
 31
0.0
  0
LINE
  8
0
 62
     0
 10
88.6686
 20
53.6924
 30
0.0
 11
87.8678
 21
53.6924
 31
0.0
  0
LINE
  8
0
 62
     0
 10
87.8678
 20
53.6924
 30
0.0
 11
87.8678
 21
54.6929
 31
0.0
  0
LINE
  8
0
 62
     0
 10
87.8678
 20
54.6929
 30
0.0
 11
73.8685
 21
54.6929
 31
0.0
  0
LINE
  8
0
 62
     0
 10
54.8171
 20
54.6929
 30
0.0
 11
54.8171
 21
53.6924
 31
0.0
  0
LINE
  8
0
 62
     0
 10
54.8171
 20
53.6924
 30
0.0
 11
54.0191
 21
53.6924
 31
0.0
  0
LINE
  8
0
 62
     0
 10
54.0191
 20
53.6924
 30
0.0
 11
54.0191
 21
50.5933
 31
0.0
  0
LINE
  8
0
 62
     0
 10
54.0191
 20
50.5933
 30
0.0
 11
54.8171
 21
50.5933
 31
0.0
  0
LINE
  8
0
 62
     0
 10
54.8171
 20
50.5933
 30
0.0
 11
54.8171
 21
44.7933
 31
0.0
  0
LINE
  8
0
 62
     0
 10
54.8171
 20
44.7933
 30
0.0
 11
54.0191
 21
44.7933
 31
0.0
  0
LINE
  8
0
 62
     0
 10
54.0191
 20
44.7933
 30
0.0
 11
54.0191
 21
41.6927
 31
0.0
  0
LINE
  8
0
 62
     0
 10
54.0191
 20
41.6927
 30
0.0
 11
54.8171
 21
41.6927
 31
0.0
  0
LINE
  8
0
 62
     0
 10
54.8171
 20
41.6927
 30
0.0
 11
54.8171
 21
40.6922
 31
0.0
  0
LINE
  8
0
 62
     0
 10
54.8171
 20
40.6922
 30
0.0
 11
68.8178
 21
40.6922
 31
0.0
  0
LINE
  8
0
 62
     0
 10
68.8178
 20
40.6922
 30
0.0
 11
68.8178
 21
41.6927
 31
0.0
  0
LINE
  8
0
 62
     0
 10
68.8178
 20
41.6927
 30
0.0
 11
69.6186
 21
41.6927
 31
0.0
  0
LINE
  8
0
 62
     0
 10
69.6186
 20
41.6927
 30
0.0
 11
69.6186
 21
44.7933
 31
0.0
  0
LINE
  8
0
 62
     0
 10
69.6186
 20
44.7933
 30
0.0
 11
68.8178
 21
44.7933
 31
0.0
  0
LINE
  8
0
 62
     0
 10
68.8178
 20
44.7933
 30
0.0
 11
68.8178
 21
50.5933
 31
0.0
  0
LINE
  8
0
 62
     0
 10
68.8178
 20
50.5933
 30
0.0
 11
69.6186
 21
50.5933
 31
0.0
  0
LINE
  8
0
 62
     0
 10
69.6186
 20
50.5933
 30
0.0
 11
69.6186
 21
53.6924
 31
0.0
  0
LINE
  8
0
 62
     0
 10
69.6186
 20
53.6924
 30
0.0
 11
68.8178
 21
53.6924
 31
0.0
  0
LINE
  8
0
 62
     0
 10
68.8178
 20
53.6924
 30
0.0
 11
68.8178
 21
54.6929
 31
0.0
  0
LINE
  8
0
 62
     0
 10
68.8178
 20
54.6929
 30
0.0
 11
54.8171
 21
54.6929
 31
0.0
  0
LINE
  8
0
 62
     0
 10
35.7699
 20
54.6929
 30
0.0
 11
35.7699
 21
53.6924
 31
0.0
  0
LINE
  8
0
 62
     0
 10
35.7699
 20
53.6924
 30
0.0
 11
34.9691
 21
53.6924
 31
0.0
  0
LINE
  8
0
 62
     0
 10
34.9691
 20
53.6924
 30
0.0
 11
34.9691
 21
50.5933
 31
0.0
  0
LINE
  8
0
 62
     0
 10
34.9691
 20
50.5933
 30
0.0
 11
35.7699
 21
50.5933
 31
0.0
  0
LINE
  8
0
 62
     0
 10
35.7699
 20
50.5933
 30
0.0
 11
35.7699
 21
44.7933
 31
0.0
  0
LINE
  8
0
 62
     0
 10
35.7699
 20
44.7933
 30
0.0
 11
34.9691
 21
44.7933
 31
0.0
  0
LINE
  8
0
 62
     0
 10
34.9691
 20
44.7933
 30
0.0
 11
34.9691
 21
41.6927
 31
0.0
  0
LINE
  8
0
 62
     0
 10
34.9691
 20
41.6927
 30
0.0
 11
35.7699
 21
41.6927
 31
0.0
  0
LINE
  8
0
 62
     0
 10
35.7699
 20
41.6927
 30
0.0
 11
35.7699
 21
40.6922
 31
0.0
  0
LINE
  8
0
 62
     0
 10
35.7699
 20
40.6922
 30
0.0
 11
49.7692
 21
40.6922
 31
0.0
  0
LINE
  8
0
 62
     0
 10
49.7692
 20
40.6922
 30
0.0
 11
49.7692
 21
41.6927
 31
0.0
  0
LINE
  8
0
 62
     0
 10
49.7692
 20
41.6927
 30
0.0
 11
50.5672
 21
41.6927
 31
0.0
  0
LINE
  8
0
 62
     0
 10
50.5672
 20
41.6927
 30
0.0
 11
50.5672
 21
44.7933
 31
0.0
  0
LINE
  8
0
 62
     0
 10
50.5672
 20
44.7933
 30
0.0
 11
49.7692
 21
44.7933
 31
0.0
  0
LINE
  8
0
 62
     0
 10
49.7692
 20
44.7933
 30
0.0
 11
49.7692
 21
50.5933
 31
0.0
  0
LINE
  8
0
 62
     0
 10
49.7692
 20
50.5933
 30
0.0
 11
50.5672
 21
50.5933
 31
0.0
  0
LINE
  8
0
 62
     0
 10
50.5672
 20
50.5933
 30
0.0
 11
50.5672
 21
53.6924
 31
0.0
  0
LINE
  8
0
 62
     0
 10
50.5672
 20
53.6924
 30
0.0
 11
49.7692
 21
53.6924
 31
0.0
  0
LINE
  8
0
 62
     0
 10
49.7692
 20
53.6924
 30
0.0
 11
49.7692
 21
54.6929
 31
0.0
  0
LINE
  8
0
 62
     0
 10
49.7692
 20
54.6929
 30
0.0
 11
35.7699
 21
54.6929
 31
0.0
  0
LINE
  8
0
 62
     0
 10
9.57598
 20
54.6929
 30
0.0
 11
9.57598
 21
53.6924
 31
0.0
  0
LINE
  8
0
 62
     0
 10
9.57598
 20
53.6924
 30
0.0
 11
8.77535
 21
53.6924
 31
0.0
  0
LINE
  8
0
 62
     0
 10
8.77535
 20
53.6924
 30
0.0
 11
8.77535
 21
50.5933
 31
0.0
  0
LINE
  8
0
 62
     0
 10
8.77535
 20
50.5933
 30
0.0
 11
9.57598
 21
50.5933
 31
0.0
  0
LINE
  8
0
 62
     0
 10
9.57598
 20
50.5933
 30
0.0
 11
9.57598
 21
44.7933
 31
0.0
  0
LINE
  8
0
 62
     0
 10
9.57598
 20
44.7933
 30
0.0
 11
8.77535
 21
44.7933
 31
0.0
  0
LINE
  8
0
 62
     0
 10
8.77535
 20
44.7933
 30
0.0
 11
8.77535
 21
41.6927
 31
0.0
  0
LINE
  8
0
 62
     0
 10
8.77535
 20
41.6927
 30
0.0
 11
9.57598
 21
41.6927
 31
0.0
  0
LINE
  8
0
 62
     0
 10
9.57598
 20
41.6927
 30
0.0
 11
9.57598
 21
40.6922
 31
0.0
  0
LINE
  8
0
 62
     0
 10
9.57598
 20
40.6922
 30
0.0
 11
23.5755
 21
40.6922
 31
0.0
  0
LINE
  8
0
 62
     0
 10
23.5755
 20
40.6922
 30
0.0
 11
23.5755
 21
41.6927
 31
0.0
  0
LINE
  8
0
 62
     0
 10
23.5755
 20
41.6927
 30
0.0
 11
24.3761
 21
41.6927
 31
0.0
  0
LINE
  8
0
 62
     0
 10
24.3761
 20
41.6927
 30
0.0
 11
24.3761
 21
44.7933
 31
0.0
  0
LINE
  8
0
 62
     0
 10
24.3761
 20
44.7933
 30
0.0
 11
23.5755
 21
44.7933
 31
0.0
  0
LINE
  8
0
 62
     0
 10
23.5755
 20
44.7933
 30
0.0
 11
23.5755
 21
50.5933
 31
0.0
  0
LINE
  8
0
 62
     0
 10
23.5755
 20
50.5933
 30
0.0
 11
24.3761
 21
50.5933
 31
0.0
  0
LINE
  8
0
 62
     0
 10
24.3761
 20
50.5933
 30
0.0
 11
24.3761
 21
53.6924
 31
0.0
  0
LINE
  8
0
 62
     0
 10
24.3761
 20
53.6924
 30
0.0
 11
23.5755
 21
53.6924
 31
0.0
  0
LINE
  8
0
 62
     0
 10
23.5755
 20
53.6924
 30
0.0
 11
23.5755
 21
54.6929
 31
0.0
  0
LINE
  8
0
 62
     0
 10
23.5755
 20
54.6929
 30
0.0
 11
9.57598
 21
54.6929
 31
0.0
  0
LINE
  8
0
 62
     0
 10
127.71
 20
50.0712
 30
0.0
 11
127.012
 21
49.7156
 31
0.0
  0
LINE
  8
0
 62
     0
 10
127.012
 20
49.7156
 30
0.0
 11
126.46
 21
49.1613
 31
0.0
  0
LINE
  8
0
 62
     0
 10
126.46
 20
49.1613
 30
0.0
 11
126.103
 21
48.4657
 31
0.0
  0
LINE
  8
0
 62
     0
 10
126.103
 20
48.4657
 30
0.0
 11
125.983
 21
47.6913
 31
0.0
  0
LINE
  8
0
 62
     0
 10
125.983
 20
47.6913
 30
0.0
 11
126.103
 21
46.9209
 31
0.0
  0
LINE
  8
0
 62
     0
 10
126.103
 20
46.9209
 30
0.0
 11
126.46
 21
46.222
 31
0.0
  0
LINE
  8
0
 62
     0
 10
126.46
 20
46.222
 30
0.0
 11
127.012
 21
45.671
 31
0.0
  0
LINE
  8
0
 62
     0
 10
127.012
 20
45.671
 30
0.0
 11
127.71
 21
45.314
 31
0.0
  0
LINE
  8
0
 62
     0
 10
127.71
 20
45.314
 30
0.0
 11
128.483
 21
45.1915
 31
0.0
  0
LINE
  8
0
 62
     0
 10
128.483
 20
45.1915
 30
0.0
 11
129.255
 21
45.314
 31
0.0
  0
LINE
  8
0
 62
     0
 10
129.255
 20
45.314
 30
0.0
 11
129.952
 21
45.671
 31
0.0
  0
LINE
  8
0
 62
     0
 10
129.952
 20
45.671
 30
0.0
 11
130.504
 21
46.222
 31
0.0
  0
LINE
  8
0
 62
     0
 10
130.504
 20
46.222
 30
0.0
 11
130.859
 21
46.9209
 31
0.0
  0
LINE
  8
0
 62
     0
 10
130.859
 20
46.9209
 30
0.0
 11
130.983
 21
47.6913
 31
0.0
  0
LINE
  8
0
 62
     0
 10
130.983
 20
47.6913
 30
0.0
 11
130.859
 21
48.4657
 31
0.0
  0
LINE
  8
0
 62
     0
 10
130.859
 20
48.4657
 30
0.0
 11
130.504
 21
49.1613
 31
0.0
  0
LINE
  8
0
 62
     0
 10
130.504
 20
49.1613
 30
0.0
 11
129.952
 21
49.7156
 31
0.0
  0
LINE
  8
0
 62
     0
 10
129.952
 20
49.7156
 30
0.0
 11
129.255
 21
50.0712
 31
0.0
  0
LINE
  8
0
 62
     0
 10
129.255
 20
50.0712
 30
0.0
 11
128.483
 21
50.1908
 31
0.0
  0
LINE
  8
0
 62
     0
 10
128.483
 20
50.1908
 30
0.0
 11
127.71
 21
50.0712
 31
0.0
  0
LINE
  8
0
 62
     0
 10
264.368
 20
73.7429
 30
0.0
 11
264.368
 21
72.7438
 31
0.0
  0
LINE
  8
0
 62
     0
 10
264.368
 20
72.7438
 30
0.0
 11
263.569
 21
72.7438
 31
0.0
  0
LINE
  8
0
 62
     0
 10
263.569
 20
72.7438
 30
0.0
 11
263.569
 21
69.6433
 31
0.0
  0
LINE
  8
0
 62
     0
 10
263.569
 20
69.6433
 30
0.0
 11
264.368
 21
69.6433
 31
0.0
  0
LINE
  8
0
 62
     0
 10
264.368
 20
69.6433
 30
0.0
 11
264.368
 21
63.8433
 31
0.0
  0
LINE
  8
0
 62
     0
 10
264.368
 20
63.8433
 30
0.0
 11
263.569
 21
63.8433
 31
0.0
  0
LINE
  8
0
 62
     0
 10
263.569
 20
63.8433
 30
0.0
 11
263.569
 21
60.7441
 31
0.0
  0
LINE
  8
0
 62
     0
 10
263.569
 20
60.7441
 30
0.0
 11
264.368
 21
60.7441
 31
0.0
  0
LINE
  8
0
 62
     0
 10
264.368
 20
60.7441
 30
0.0
 11
264.368
 21
59.7436
 31
0.0
  0
LINE
  8
0
 62
     0
 10
264.368
 20
59.7436
 30
0.0
 11
278.368
 21
59.7436
 31
0.0
  0
LINE
  8
0
 62
     0
 10
278.368
 20
59.7436
 30
0.0
 11
278.368
 21
60.7441
 31
0.0
  0
LINE
  8
0
 62
     0
 10
278.368
 20
60.7441
 30
0.0
 11
279.169
 21
60.7441
 31
0.0
  0
LINE
  8
0
 62
     0
 10
279.169
 20
60.7441
 30
0.0
 11
279.169
 21
63.8433
 31
0.0
  0
LINE
  8
0
 62
     0
 10
279.169
 20
63.8433
 30
0.0
 11
278.368
 21
63.8433
 31
0.0
  0
LINE
  8
0
 62
     0
 10
278.368
 20
63.8433
 30
0.0
 11
278.368
 21
69.6433
 31
0.0
  0
LINE
  8
0
 62
     0
 10
278.368
 20
69.6433
 30
0.0
 11
279.169
 21
69.6433
 31
0.0
  0
LINE
  8
0
 62
     0
 10
279.169
 20
69.6433
 30
0.0
 11
279.169
 21
72.7438
 31
0.0
  0
LINE
  8
0
 62
     0
 10
279.169
 20
72.7438
 30
0.0
 11
278.368
 21
72.7438
 31
0.0
  0
LINE
  8
0
 62
     0
 10
278.368
 20
72.7438
 30
0.0
 11
278.368
 21
73.7429
 31
0.0
  0
LINE
  8
0
 62
     0
 10
278.368
 20
73.7429
 30
0.0
 11
264.368
 21
73.7429
 31
0.0
  0
LINE
  8
0
 62
     0
 10
240.556
 20
73.7429
 30
0.0
 11
240.556
 21
72.7438
 31
0.0
  0
LINE
  8
0
 62
     0
 10
240.556
 20
72.7438
 30
0.0
 11
239.757
 21
72.7438
 31
0.0
  0
LINE
  8
0
 62
     0
 10
239.757
 20
72.7438
 30
0.0
 11
239.757
 21
69.6433
 31
0.0
  0
LINE
  8
0
 62
     0
 10
239.757
 20
69.6433
 30
0.0
 11
240.556
 21
69.6433
 31
0.0
  0
LINE
  8
0
 62
     0
 10
240.556
 20
69.6433
 30
0.0
 11
240.556
 21
63.8433
 31
0.0
  0
LINE
  8
0
 62
     0
 10
240.556
 20
63.8433
 30
0.0
 11
239.757
 21
63.8433
 31
0.0
  0
LINE
  8
0
 62
     0
 10
239.757
 20
63.8433
 30
0.0
 11
239.757
 21
60.7441
 31
0.0
  0
LINE
  8
0
 62
     0
 10
239.757
 20
60.7441
 30
0.0
 11
240.556
 21
60.7441
 31
0.0
  0
LINE
  8
0
 62
     0
 10
240.556
 20
60.7441
 30
0.0
 11
240.556
 21
59.7436
 31
0.0
  0
LINE
  8
0
 62
     0
 10
240.556
 20
59.7436
 30
0.0
 11
254.555
 21
59.7436
 31
0.0
  0
LINE
  8
0
 62
     0
 10
254.555
 20
59.7436
 30
0.0
 11
254.555
 21
60.7441
 31
0.0
  0
LINE
  8
0
 62
     0
 10
254.555
 20
60.7441
 30
0.0
 11
255.356
 21
60.7441
 31
0.0
  0
LINE
  8
0
 62
     0
 10
255.356
 20
60.7441
 30
0.0
 11
255.356
 21
63.8433
 31
0.0
  0
LINE
  8
0
 62
     0
 10
255.356
 20
63.8433
 30
0.0
 11
254.555
 21
63.8433
 31
0.0
  0
LINE
  8
0
 62
     0
 10
254.555
 20
63.8433
 30
0.0
 11
254.555
 21
69.6433
 31
0.0
  0
LINE
  8
0
 62
     0
 10
254.555
 20
69.6433
 30
0.0
 11
255.356
 21
69.6433
 31
0.0
  0
LINE
  8
0
 62
     0
 10
255.356
 20
69.6433
 30
0.0
 11
255.356
 21
72.7438
 31
0.0
  0
LINE
  8
0
 62
     0
 10
255.356
 20
72.7438
 30
0.0
 11
254.555
 21
72.7438
 31
0.0
  0
LINE
  8
0
 62
     0
 10
254.555
 20
72.7438
 30
0.0
 11
254.555
 21
73.7429
 31
0.0
  0
LINE
  8
0
 62
     0
 10
254.555
 20
73.7429
 30
0.0
 11
240.556
 21
73.7429
 31
0.0
  0
LINE
  8
0
 62
     0
 10
221.506
 20
73.7429
 30
0.0
 11
221.506
 21
72.7438
 31
0.0
  0
LINE
  8
0
 62
     0
 10
221.506
 20
72.7438
 30
0.0
 11
220.705
 21
72.7438
 31
0.0
  0
LINE
  8
0
 62
     0
 10
220.705
 20
72.7438
 30
0.0
 11
220.705
 21
69.6433
 31
0.0
  0
LINE
  8
0
 62
     0
 10
220.705
 20
69.6433
 30
0.0
 11
221.506
 21
69.6433
 31
0.0
  0
LINE
  8
0
 62
     0
 10
221.506
 20
69.6433
 30
0.0
 11
221.506
 21
63.8433
 31
0.0
  0
LINE
  8
0
 62
     0
 10
221.506
 20
63.8433
 30
0.0
 11
220.705
 21
63.8433
 31
0.0
  0
LINE
  8
0
 62
     0
 10
220.705
 20
63.8433
 30
0.0
 11
220.705
 21
60.7441
 31
0.0
  0
LINE
  8
0
 62
     0
 10
220.705
 20
60.7441
 30
0.0
 11
221.506
 21
60.7441
 31
0.0
  0
LINE
  8
0
 62
     0
 10
221.506
 20
60.7441
 30
0.0
 11
221.506
 21
59.7436
 31
0.0
  0
LINE
  8
0
 62
     0
 10
221.506
 20
59.7436
 30
0.0
 11
235.507
 21
59.7436
 31
0.0
  0
LINE
  8
0
 62
     0
 10
235.507
 20
59.7436
 30
0.0
 11
235.507
 21
60.7441
 31
0.0
  0
LINE
  8
0
 62
     0
 10
235.507
 20
60.7441
 30
0.0
 11
236.306
 21
60.7441
 31
0.0
  0
LINE
  8
0
 62
     0
 10
236.306
 20
60.7441
 30
0.0
 11
236.306
 21
63.8433
 31
0.0
  0
LINE
  8
0
 62
     0
 10
236.306
 20
63.8433
 30
0.0
 11
235.507
 21
63.8433
 31
0.0
  0
LINE
  8
0
 62
     0
 10
235.507
 20
63.8433
 30
0.0
 11
235.507
 21
69.6433
 31
0.0
  0
LINE
  8
0
 62
     0
 10
235.507
 20
69.6433
 30
0.0
 11
236.306
 21
69.6433
 31
0.0
  0
LINE
  8
0
 62
     0
 10
236.306
 20
69.6433
 30
0.0
 11
236.306
 21
72.7438
 31
0.0
  0
LINE
  8
0
 62
     0
 10
236.306
 20
72.7438
 30
0.0
 11
235.507
 21
72.7438
 31
0.0
  0
LINE
  8
0
 62
     0
 10
235.507
 20
72.7438
 30
0.0
 11
235.507
 21
73.7429
 31
0.0
  0
LINE
  8
0
 62
     0
 10
235.507
 20
73.7429
 30
0.0
 11
221.506
 21
73.7429
 31
0.0
  0
LINE
  8
0
 62
     0
 10
202.456
 20
73.7429
 30
0.0
 11
202.456
 21
72.7438
 31
0.0
  0
LINE
  8
0
 62
     0
 10
202.456
 20
72.7438
 30
0.0
 11
201.657
 21
72.7438
 31
0.0
  0
LINE
  8
0
 62
     0
 10
201.657
 20
72.7438
 30
0.0
 11
201.657
 21
69.6433
 31
0.0
  0
LINE
  8
0
 62
     0
 10
201.657
 20
69.6433
 30
0.0
 11
202.456
 21
69.6433
 31
0.0
  0
LINE
  8
0
 62
     0
 10
202.456
 20
69.6433
 30
0.0
 11
202.456
 21
63.8433
 31
0.0
  0
LINE
  8
0
 62
     0
 10
202.456
 20
63.8433
 30
0.0
 11
201.657
 21
63.8433
 31
0.0
  0
LINE
  8
0
 62
     0
 10
201.657
 20
63.8433
 30
0.0
 11
201.657
 21
60.7441
 31
0.0
  0
LINE
  8
0
 62
     0
 10
201.657
 20
60.7441
 30
0.0
 11
202.456
 21
60.7441
 31
0.0
  0
LINE
  8
0
 62
     0
 10
202.456
 20
60.7441
 30
0.0
 11
202.456
 21
59.7436
 31
0.0
  0
LINE
  8
0
 62
     0
 10
202.456
 20
59.7436
 30
0.0
 11
216.455
 21
59.7436
 31
0.0
  0
LINE
  8
0
 62
     0
 10
216.455
 20
59.7436
 30
0.0
 11
216.455
 21
60.7441
 31
0.0
  0
LINE
  8
0
 62
     0
 10
216.455
 20
60.7441
 30
0.0
 11
217.256
 21
60.7441
 31
0.0
  0
LINE
  8
0
 62
     0
 10
217.256
 20
60.7441
 30
0.0
 11
217.256
 21
63.8433
 31
0.0
  0
LINE
  8
0
 62
     0
 10
217.256
 20
63.8433
 30
0.0
 11
216.455
 21
63.8433
 31
0.0
  0
LINE
  8
0
 62
     0
 10
216.455
 20
63.8433
 30
0.0
 11
216.455
 21
69.6433
 31
0.0
  0
LINE
  8
0
 62
     0
 10
216.455
 20
69.6433
 30
0.0
 11
217.256
 21
69.6433
 31
0.0
  0
LINE
  8
0
 62
     0
 10
217.256
 20
69.6433
 30
0.0
 11
217.256
 21
72.7438
 31
0.0
  0
LINE
  8
0
 62
     0
 10
217.256
 20
72.7438
 30
0.0
 11
216.455
 21
72.7438
 31
0.0
  0
LINE
  8
0
 62
     0
 10
216.455
 20
72.7438
 30
0.0
 11
216.455
 21
73.7429
 31
0.0
  0
LINE
  8
0
 62
     0
 10
216.455
 20
73.7429
 30
0.0
 11
202.456
 21
73.7429
 31
0.0
  0
LINE
  8
0
 62
     0
 10
183.406
 20
73.7429
 30
0.0
 11
183.406
 21
72.7438
 31
0.0
  0
LINE
  8
0
 62
     0
 10
183.406
 20
72.7438
 30
0.0
 11
182.607
 21
72.7438
 31
0.0
  0
LINE
  8
0
 62
     0
 10
182.607
 20
72.7438
 30
0.0
 11
182.607
 21
69.6433
 31
0.0
  0
LINE
  8
0
 62
     0
 10
182.607
 20
69.6433
 30
0.0
 11
183.406
 21
69.6433
 31
0.0
  0
LINE
  8
0
 62
     0
 10
183.406
 20
69.6433
 30
0.0
 11
183.406
 21
63.8433
 31
0.0
  0
LINE
  8
0
 62
     0
 10
183.406
 20
63.8433
 30
0.0
 11
182.607
 21
63.8433
 31
0.0
  0
LINE
  8
0
 62
     0
 10
182.607
 20
63.8433
 30
0.0
 11
182.607
 21
60.7441
 31
0.0
  0
LINE
  8
0
 62
     0
 10
182.607
 20
60.7441
 30
0.0
 11
183.406
 21
60.7441
 31
0.0
  0
LINE
  8
0
 62
     0
 10
183.406
 20
60.7441
 30
0.0
 11
183.406
 21
59.7436
 31
0.0
  0
LINE
  8
0
 62
     0
 10
183.406
 20
59.7436
 30
0.0
 11
197.407
 21
59.7436
 31
0.0
  0
LINE
  8
0
 62
     0
 10
197.407
 20
59.7436
 30
0.0
 11
197.407
 21
60.7441
 31
0.0
  0
LINE
  8
0
 62
     0
 10
197.407
 20
60.7441
 30
0.0
 11
198.206
 21
60.7441
 31
0.0
  0
LINE
  8
0
 62
     0
 10
198.206
 20
60.7441
 30
0.0
 11
198.206
 21
63.8433
 31
0.0
  0
LINE
  8
0
 62
     0
 10
198.206
 20
63.8433
 30
0.0
 11
197.407
 21
63.8433
 31
0.0
  0
LINE
  8
0
 62
     0
 10
197.407
 20
63.8433
 30
0.0
 11
197.407
 21
69.6433
 31
0.0
  0
LINE
  8
0
 62
     0
 10
197.407
 20
69.6433
 30
0.0
 11
198.206
 21
69.6433
 31
0.0
  0
LINE
  8
0
 62
     0
 10
198.206
 20
69.6433
 30
0.0
 11
198.206
 21
72.7438
 31
0.0
  0
LINE
  8
0
 62
     0
 10
198.206
 20
72.7438
 30
0.0
 11
197.407
 21
72.7438
 31
0.0
  0
LINE
  8
0
 62
     0
 10
197.407
 20
72.7438
 30
0.0
 11
197.407
 21
73.7429
 31
0.0
  0
LINE
  8
0
 62
     0
 10
197.407
 20
73.7429
 30
0.0
 11
183.406
 21
73.7429
 31
0.0
  0
LINE
  8
0
 62
     0
 10
164.356
 20
73.7429
 30
0.0
 11
164.356
 21
72.7438
 31
0.0
  0
LINE
  8
0
 62
     0
 10
164.356
 20
72.7438
 30
0.0
 11
163.555
 21
72.7438
 31
0.0
  0
LINE
  8
0
 62
     0
 10
163.555
 20
72.7438
 30
0.0
 11
163.555
 21
69.6433
 31
0.0
  0
LINE
  8
0
 62
     0
 10
163.555
 20
69.6433
 30
0.0
 11
164.356
 21
69.6433
 31
0.0
  0
LINE
  8
0
 62
     0
 10
164.356
 20
69.6433
 30
0.0
 11
164.356
 21
63.8433
 31
0.0
  0
LINE
  8
0
 62
     0
 10
164.356
 20
63.8433
 30
0.0
 11
163.555
 21
63.8433
 31
0.0
  0
LINE
  8
0
 62
     0
 10
163.555
 20
63.8433
 30
0.0
 11
163.555
 21
60.7441
 31
0.0
  0
LINE
  8
0
 62
     0
 10
163.555
 20
60.7441
 30
0.0
 11
164.356
 21
60.7441
 31
0.0
  0
LINE
  8
0
 62
     0
 10
164.356
 20
60.7441
 30
0.0
 11
164.356
 21
59.7436
 31
0.0
  0
LINE
  8
0
 62
     0
 10
164.356
 20
59.7436
 30
0.0
 11
178.357
 21
59.7436
 31
0.0
  0
LINE
  8
0
 62
     0
 10
178.357
 20
59.7436
 30
0.0
 11
178.357
 21
60.7441
 31
0.0
  0
LINE
  8
0
 62
     0
 10
178.357
 20
60.7441
 30
0.0
 11
179.156
 21
60.7441
 31
0.0
  0
LINE
  8
0
 62
     0
 10
179.156
 20
60.7441
 30
0.0
 11
179.156
 21
63.8433
 31
0.0
  0
LINE
  8
0
 62
     0
 10
179.156
 20
63.8433
 30
0.0
 11
178.357
 21
63.8433
 31
0.0
  0
LINE
  8
0
 62
     0
 10
178.357
 20
63.8433
 30
0.0
 11
178.357
 21
69.6433
 31
0.0
  0
LINE
  8
0
 62
     0
 10
178.357
 20
69.6433
 30
0.0
 11
179.156
 21
69.6433
 31
0.0
  0
LINE
  8
0
 62
     0
 10
179.156
 20
69.6433
 30
0.0
 11
179.156
 21
72.7438
 31
0.0
  0
LINE
  8
0
 62
     0
 10
179.156
 20
72.7438
 30
0.0
 11
178.357
 21
72.7438
 31
0.0
  0
LINE
  8
0
 62
     0
 10
178.357
 20
72.7438
 30
0.0
 11
178.357
 21
73.7429
 31
0.0
  0
LINE
  8
0
 62
     0
 10
178.357
 20
73.7429
 30
0.0
 11
164.356
 21
73.7429
 31
0.0
  0
LINE
  8
0
 62
     0
 10
145.306
 20
73.7429
 30
0.0
 11
145.306
 21
72.7438
 31
0.0
  0
LINE
  8
0
 62
     0
 10
145.306
 20
72.7438
 30
0.0
 11
144.507
 21
72.7438
 31
0.0
  0
LINE
  8
0
 62
     0
 10
144.507
 20
72.7438
 30
0.0
 11
144.507
 21
69.6433
 31
0.0
  0
LINE
  8
0
 62
     0
 10
144.507
 20
69.6433
 30
0.0
 11
145.306
 21
69.6433
 31
0.0
  0
LINE
  8
0
 62
     0
 10
145.306
 20
69.6433
 30
0.0
 11
145.306
 21
63.8433
 31
0.0
  0
LINE
  8
0
 62
     0
 10
145.306
 20
63.8433
 30
0.0
 11
144.507
 21
63.8433
 31
0.0
  0
LINE
  8
0
 62
     0
 10
144.507
 20
63.8433
 30
0.0
 11
144.507
 21
60.7441
 31
0.0
  0
LINE
  8
0
 62
     0
 10
144.507
 20
60.7441
 30
0.0
 11
145.306
 21
60.7441
 31
0.0
  0
LINE
  8
0
 62
     0
 10
145.306
 20
60.7441
 30
0.0
 11
145.306
 21
59.7436
 31
0.0
  0
LINE
  8
0
 62
     0
 10
145.306
 20
59.7436
 30
0.0
 11
159.305
 21
59.7436
 31
0.0
  0
LINE
  8
0
 62
     0
 10
159.305
 20
59.7436
 30
0.0
 11
159.305
 21
60.7441
 31
0.0
  0
LINE
  8
0
 62
     0
 10
159.305
 20
60.7441
 30
0.0
 11
160.106
 21
60.7441
 31
0.0
  0
LINE
  8
0
 62
     0
 10
160.106
 20
60.7441
 30
0.0
 11
160.106
 21
63.8433
 31
0.0
  0
LINE
  8
0
 62
     0
 10
160.106
 20
63.8433
 30
0.0
 11
159.305
 21
63.8433
 31
0.0
  0
LINE
  8
0
 62
     0
 10
159.305
 20
63.8433
 30
0.0
 11
159.305
 21
69.6433
 31
0.0
  0
LINE
  8
0
 62
     0
 10
159.305
 20
69.6433
 30
0.0
 11
160.106
 21
69.6433
 31
0.0
  0
LINE
  8
0
 62
     0
 10
160.106
 20
69.6433
 30
0.0
 11
160.106
 21
72.7438
 31
0.0
  0
LINE
  8
0
 62
     0
 10
160.106
 20
72.7438
 30
0.0
 11
159.305
 21
72.7438
 31
0.0
  0
LINE
  8
0
 62
     0
 10
159.305
 20
72.7438
 30
0.0
 11
159.305
 21
73.7429
 31
0.0
  0
LINE
  8
0
 62
     0
 10
159.305
 20
73.7429
 30
0.0
 11
145.306
 21
73.7429
 31
0.0
  0
LINE
  8
0
 62
     0
 10
126.256
 20
73.7429
 30
0.0
 11
126.256
 21
72.7438
 31
0.0
  0
LINE
  8
0
 62
     0
 10
126.256
 20
72.7438
 30
0.0
 11
125.455
 21
72.7438
 31
0.0
  0
LINE
  8
0
 62
     0
 10
125.455
 20
72.7438
 30
0.0
 11
125.455
 21
69.6433
 31
0.0
  0
LINE
  8
0
 62
     0
 10
125.455
 20
69.6433
 30
0.0
 11
126.256
 21
69.6433
 31
0.0
  0
LINE
  8
0
 62
     0
 10
126.256
 20
69.6433
 30
0.0
 11
126.256
 21
63.8433
 31
0.0
  0
LINE
  8
0
 62
     0
 10
126.256
 20
63.8433
 30
0.0
 11
125.455
 21
63.8433
 31
0.0
  0
LINE
  8
0
 62
     0
 10
125.455
 20
63.8433
 30
0.0
 11
125.455
 21
60.7441
 31
0.0
  0
LINE
  8
0
 62
     0
 10
125.455
 20
60.7441
 30
0.0
 11
126.256
 21
60.7441
 31
0.0
  0
LINE
  8
0
 62
     0
 10
126.256
 20
60.7441
 30
0.0
 11
126.256
 21
59.7436
 31
0.0
  0
LINE
  8
0
 62
     0
 10
126.256
 20
59.7436
 30
0.0
 11
140.257
 21
59.7436
 31
0.0
  0
LINE
  8
0
 62
     0
 10
140.257
 20
59.7436
 30
0.0
 11
140.257
 21
60.7441
 31
0.0
  0
LINE
  8
0
 62
     0
 10
140.257
 20
60.7441
 30
0.0
 11
141.056
 21
60.7441
 31
0.0
  0
LINE
  8
0
 62
     0
 10
141.056
 20
60.7441
 30
0.0
 11
141.056
 21
63.8433
 31
0.0
  0
LINE
  8
0
 62
     0
 10
141.056
 20
63.8433
 30
0.0
 11
140.257
 21
63.8433
 31
0.0
  0
LINE
  8
0
 62
     0
 10
140.257
 20
63.8433
 30
0.0
 11
140.257
 21
69.6433
 31
0.0
  0
LINE
  8
0
 62
     0
 10
140.257
 20
69.6433
 30
0.0
 11
141.056
 21
69.6433
 31
0.0
  0
LINE
  8
0
 62
     0
 10
141.056
 20
69.6433
 30
0.0
 11
141.056
 21
72.7438
 31
0.0
  0
LINE
  8
0
 62
     0
 10
141.056
 20
72.7438
 30
0.0
 11
140.257
 21
72.7438
 31
0.0
  0
LINE
  8
0
 62
     0
 10
140.257
 20
72.7438
 30
0.0
 11
140.257
 21
73.7429
 31
0.0
  0
LINE
  8
0
 62
     0
 10
140.257
 20
73.7429
 30
0.0
 11
126.256
 21
73.7429
 31
0.0
  0
LINE
  8
0
 62
     0
 10
107.206
 20
73.7429
 30
0.0
 11
107.206
 21
72.7438
 31
0.0
  0
LINE
  8
0
 62
     0
 10
107.206
 20
72.7438
 30
0.0
 11
106.407
 21
72.7438
 31
0.0
  0
LINE
  8
0
 62
     0
 10
106.407
 20
72.7438
 30
0.0
 11
106.407
 21
69.6433
 31
0.0
  0
LINE
  8
0
 62
     0
 10
106.407
 20
69.6433
 30
0.0
 11
107.206
 21
69.6433
 31
0.0
  0
LINE
  8
0
 62
     0
 10
107.206
 20
69.6433
 30
0.0
 11
107.206
 21
63.8433
 31
0.0
  0
LINE
  8
0
 62
     0
 10
107.206
 20
63.8433
 30
0.0
 11
106.407
 21
63.8433
 31
0.0
  0
LINE
  8
0
 62
     0
 10
106.407
 20
63.8433
 30
0.0
 11
106.407
 21
60.7441
 31
0.0
  0
LINE
  8
0
 62
     0
 10
106.407
 20
60.7441
 30
0.0
 11
107.206
 21
60.7441
 31
0.0
  0
LINE
  8
0
 62
     0
 10
107.206
 20
60.7441
 30
0.0
 11
107.206
 21
59.7436
 31
0.0
  0
LINE
  8
0
 62
     0
 10
107.206
 20
59.7436
 30
0.0
 11
121.205
 21
59.7436
 31
0.0
  0
LINE
  8
0
 62
     0
 10
121.205
 20
59.7436
 30
0.0
 11
121.205
 21
60.7441
 31
0.0
  0
LINE
  8
0
 62
     0
 10
121.205
 20
60.7441
 30
0.0
 11
122.006
 21
60.7441
 31
0.0
  0
LINE
  8
0
 62
     0
 10
122.006
 20
60.7441
 30
0.0
 11
122.006
 21
63.8433
 31
0.0
  0
LINE
  8
0
 62
     0
 10
122.006
 20
63.8433
 30
0.0
 11
121.205
 21
63.8433
 31
0.0
  0
LINE
  8
0
 62
     0
 10
121.205
 20
63.8433
 30
0.0
 11
121.205
 21
69.6433
 31
0.0
  0
LINE
  8
0
 62
     0
 10
121.205
 20
69.6433
 30
0.0
 11
122.006
 21
69.6433
 31
0.0
  0
LINE
  8
0
 62
     0
 10
122.006
 20
69.6433
 30
0.0
 11
122.006
 21
72.7438
 31
0.0
  0
LINE
  8
0
 62
     0
 10
122.006
 20
72.7438
 30
0.0
 11
121.205
 21
72.7438
 31
0.0
  0
LINE
  8
0
 62
     0
 10
121.205
 20
72.7438
 30
0.0
 11
121.205
 21
73.7429
 31
0.0
  0
LINE
  8
0
 62
     0
 10
121.205
 20
73.7429
 30
0.0
 11
107.206
 21
73.7429
 31
0.0
  0
LINE
  8
0
 62
     0
 10
88.156
 20
73.7429
 30
0.0
 11
88.156
 21
72.7438
 31
0.0
  0
LINE
  8
0
 62
     0
 10
88.156
 20
72.7438
 30
0.0
 11
87.3566
 21
72.7438
 31
0.0
  0
LINE
  8
0
 62
     0
 10
87.3566
 20
72.7438
 30
0.0
 11
87.3566
 21
69.6433
 31
0.0
  0
LINE
  8
0
 62
     0
 10
87.3566
 20
69.6433
 30
0.0
 11
88.156
 21
69.6433
 31
0.0
  0
LINE
  8
0
 62
     0
 10
88.156
 20
69.6433
 30
0.0
 11
88.156
 21
63.8433
 31
0.0
  0
LINE
  8
0
 62
     0
 10
88.156
 20
63.8433
 30
0.0
 11
87.3566
 21
63.8433
 31
0.0
  0
LINE
  8
0
 62
     0
 10
87.3566
 20
63.8433
 30
0.0
 11
87.3566
 21
60.7441
 31
0.0
  0
LINE
  8
0
 62
     0
 10
87.3566
 20
60.7441
 30
0.0
 11
88.156
 21
60.7441
 31
0.0
  0
LINE
  8
0
 62
     0
 10
88.156
 20
60.7441
 30
0.0
 11
88.156
 21
59.7436
 31
0.0
  0
LINE
  8
0
 62
     0
 10
88.156
 20
59.7436
 30
0.0
 11
102.157
 21
59.7436
 31
0.0
  0
LINE
  8
0
 62
     0
 10
102.157
 20
59.7436
 30
0.0
 11
102.157
 21
60.7441
 31
0.0
  0
LINE
  8
0
 62
     0
 10
102.157
 20
60.7441
 30
0.0
 11
102.956
 21
60.7441
 31
0.0
  0
LINE
  8
0
 62
     0
 10
102.956
 20
60.7441
 30
0.0
 11
102.956
 21
63.8433
 31
0.0
  0
LINE
  8
0
 62
     0
 10
102.956
 20
63.8433
 30
0.0
 11
102.157
 21
63.8433
 31
0.0
  0
LINE
  8
0
 62
     0
 10
102.157
 20
63.8433
 30
0.0
 11
102.157
 21
69.6433
 31
0.0
  0
LINE
  8
0
 62
     0
 10
102.157
 20
69.6433
 30
0.0
 11
102.956
 21
69.6433
 31
0.0
  0
LINE
  8
0
 62
     0
 10
102.956
 20
69.6433
 30
0.0
 11
102.956
 21
72.7438
 31
0.0
  0
LINE
  8
0
 62
     0
 10
102.956
 20
72.7438
 30
0.0
 11
102.157
 21
72.7438
 31
0.0
  0
LINE
  8
0
 62
     0
 10
102.157
 20
72.7438
 30
0.0
 11
102.157
 21
73.7429
 31
0.0
  0
LINE
  8
0
 62
     0
 10
102.157
 20
73.7429
 30
0.0
 11
88.156
 21
73.7429
 31
0.0
  0
LINE
  8
0
 62
     0
 10
69.106
 20
73.7429
 30
0.0
 11
69.106
 21
72.7438
 31
0.0
  0
LINE
  8
0
 62
     0
 10
69.106
 20
72.7438
 30
0.0
 11
68.3066
 21
72.7438
 31
0.0
  0
LINE
  8
0
 62
     0
 10
68.3066
 20
72.7438
 30
0.0
 11
68.3066
 21
69.6433
 31
0.0
  0
LINE
  8
0
 62
     0
 10
68.3066
 20
69.6433
 30
0.0
 11
69.106
 21
69.6433
 31
0.0
  0
LINE
  8
0
 62
     0
 10
69.106
 20
69.6433
 30
0.0
 11
69.106
 21
63.8433
 31
0.0
  0
LINE
  8
0
 62
     0
 10
69.106
 20
63.8433
 30
0.0
 11
68.3066
 21
63.8433
 31
0.0
  0
LINE
  8
0
 62
     0
 10
68.3066
 20
63.8433
 30
0.0
 11
68.3066
 21
60.7441
 31
0.0
  0
LINE
  8
0
 62
     0
 10
68.3066
 20
60.7441
 30
0.0
 11
69.106
 21
60.7441
 31
0.0
  0
LINE
  8
0
 62
     0
 10
69.106
 20
60.7441
 30
0.0
 11
69.106
 21
59.7436
 31
0.0
  0
LINE
  8
0
 62
     0
 10
69.106
 20
59.7436
 30
0.0
 11
83.1067
 21
59.7436
 31
0.0
  0
LINE
  8
0
 62
     0
 10
83.1067
 20
59.7436
 30
0.0
 11
83.1067
 21
60.7441
 31
0.0
  0
LINE
  8
0
 62
     0
 10
83.1067
 20
60.7441
 30
0.0
 11
83.9061
 21
60.7441
 31
0.0
  0
LINE
  8
0
 62
     0
 10
83.9061
 20
60.7441
 30
0.0
 11
83.9061
 21
63.8433
 31
0.0
  0
LINE
  8
0
 62
     0
 10
83.9061
 20
63.8433
 30
0.0
 11
83.1067
 21
63.8433
 31
0.0
  0
LINE
  8
0
 62
     0
 10
83.1067
 20
63.8433
 30
0.0
 11
83.1067
 21
69.6433
 31
0.0
  0
LINE
  8
0
 62
     0
 10
83.1067
 20
69.6433
 30
0.0
 11
83.9061
 21
69.6433
 31
0.0
  0
LINE
  8
0
 62
     0
 10
83.9061
 20
69.6433
 30
0.0
 11
83.9061
 21
72.7438
 31
0.0
  0
LINE
  8
0
 62
     0
 10
83.9061
 20
72.7438
 30
0.0
 11
83.1067
 21
72.7438
 31
0.0
  0
LINE
  8
0
 62
     0
 10
83.1067
 20
72.7438
 30
0.0
 11
83.1067
 21
73.7429
 31
0.0
  0
LINE
  8
0
 62
     0
 10
83.1067
 20
73.7429
 30
0.0
 11
69.106
 21
73.7429
 31
0.0
  0
LINE
  8
0
 62
     0
 10
50.056
 20
73.7429
 30
0.0
 11
50.056
 21
72.7438
 31
0.0
  0
LINE
  8
0
 62
     0
 10
50.056
 20
72.7438
 30
0.0
 11
49.2552
 21
72.7438
 31
0.0
  0
LINE
  8
0
 62
     0
 10
49.2552
 20
72.7438
 30
0.0
 11
49.2552
 21
69.6433
 31
0.0
  0
LINE
  8
0
 62
     0
 10
49.2552
 20
69.6433
 30
0.0
 11
50.056
 21
69.6433
 31
0.0
  0
LINE
  8
0
 62
     0
 10
50.056
 20
69.6433
 30
0.0
 11
50.056
 21
63.8433
 31
0.0
  0
LINE
  8
0
 62
     0
 10
50.056
 20
63.8433
 30
0.0
 11
49.2552
 21
63.8433
 31
0.0
  0
LINE
  8
0
 62
     0
 10
49.2552
 20
63.8433
 30
0.0
 11
49.2552
 21
60.7441
 31
0.0
  0
LINE
  8
0
 62
     0
 10
49.2552
 20
60.7441
 30
0.0
 11
50.056
 21
60.7441
 31
0.0
  0
LINE
  8
0
 62
     0
 10
50.056
 20
60.7441
 30
0.0
 11
50.056
 21
59.7436
 31
0.0
  0
LINE
  8
0
 62
     0
 10
50.056
 20
59.7436
 30
0.0
 11
64.0567
 21
59.7436
 31
0.0
  0
LINE
  8
0
 62
     0
 10
64.0567
 20
59.7436
 30
0.0
 11
64.0567
 21
60.7441
 31
0.0
  0
LINE
  8
0
 62
     0
 10
64.0567
 20
60.7441
 30
0.0
 11
64.8561
 21
60.7441
 31
0.0
  0
LINE
  8
0
 62
     0
 10
64.8561
 20
60.7441
 30
0.0
 11
64.8561
 21
63.8433
 31
0.0
  0
LINE
  8
0
 62
     0
 10
64.8561
 20
63.8433
 30
0.0
 11
64.0567
 21
63.8433
 31
0.0
  0
LINE
  8
0
 62
     0
 10
64.0567
 20
63.8433
 30
0.0
 11
64.0567
 21
69.6433
 31
0.0
  0
LINE
  8
0
 62
     0
 10
64.0567
 20
69.6433
 30
0.0
 11
64.8561
 21
69.6433
 31
0.0
  0
LINE
  8
0
 62
     0
 10
64.8561
 20
69.6433
 30
0.0
 11
64.8561
 21
72.7438
 31
0.0
  0
LINE
  8
0
 62
     0
 10
64.8561
 20
72.7438
 30
0.0
 11
64.0567
 21
72.7438
 31
0.0
  0
LINE
  8
0
 62
     0
 10
64.0567
 20
72.7438
 30
0.0
 11
64.0567
 21
73.7429
 31
0.0
  0
LINE
  8
0
 62
     0
 10
64.0567
 20
73.7429
 30
0.0
 11
50.056
 21
73.7429
 31
0.0
  0
LINE
  8
0
 62
     0
 10
31.0059
 20
73.7429
 30
0.0
 11
31.0059
 21
72.7438
 31
0.0
  0
LINE
  8
0
 62
     0
 10
31.0059
 20
72.7438
 30
0.0
 11
30.2052
 21
72.7438
 31
0.0
  0
LINE
  8
0
 62
     0
 10
30.2052
 20
72.7438
 30
0.0
 11
30.2052
 21
69.6433
 31
0.0
  0
LINE
  8
0
 62
     0
 10
30.2052
 20
69.6433
 30
0.0
 11
31.0059
 21
69.6433
 31
0.0
  0
LINE
  8
0
 62
     0
 10
31.0059
 20
69.6433
 30
0.0
 11
31.0059
 21
63.8433
 31
0.0
  0
LINE
  8
0
 62
     0
 10
31.0059
 20
63.8433
 30
0.0
 11
30.2052
 21
63.8433
 31
0.0
  0
LINE
  8
0
 62
     0
 10
30.2052
 20
63.8433
 30
0.0
 11
30.2052
 21
60.7441
 31
0.0
  0
LINE
  8
0
 62
     0
 10
30.2052
 20
60.7441
 30
0.0
 11
31.0059
 21
60.7441
 31
0.0
  0
LINE
  8
0
 62
     0
 10
31.0059
 20
60.7441
 30
0.0
 11
31.0059
 21
59.7436
 31
0.0
  0
LINE
  8
0
 62
     0
 10
31.0059
 20
59.7436
 30
0.0
 11
45.0053
 21
59.7436
 31
0.0
  0
LINE
  8
0
 62
     0
 10
45.0053
 20
59.7436
 30
0.0
 11
45.0053
 21
60.7441
 31
0.0
  0
LINE
  8
0
 62
     0
 10
45.0053
 20
60.7441
 30
0.0
 11
45.8061
 21
60.7441
 31
0.0
  0
LINE
  8
0
 62
     0
 10
45.8061
 20
60.7441
 30
0.0
 11
45.8061
 21
63.8433
 31
0.0
  0
LINE
  8
0
 62
     0
 10
45.8061
 20
63.8433
 30
0.0
 11
45.0053
 21
63.8433
 31
0.0
  0
LINE
  8
0
 62
     0
 10
45.0053
 20
63.8433
 30
0.0
 11
45.0053
 21
69.6433
 31
0.0
  0
LINE
  8
0
 62
     0
 10
45.0053
 20
69.6433
 30
0.0
 11
45.8061
 21
69.6433
 31
0.0
  0
LINE
  8
0
 62
     0
 10
45.8061
 20
69.6433
 30
0.0
 11
45.8061
 21
72.7438
 31
0.0
  0
LINE
  8
0
 62
     0
 10
45.8061
 20
72.7438
 30
0.0
 11
45.0053
 21
72.7438
 31
0.0
  0
LINE
  8
0
 62
     0
 10
45.0053
 20
72.7438
 30
0.0
 11
45.0053
 21
73.7429
 31
0.0
  0
LINE
  8
0
 62
     0
 10
45.0053
 20
73.7429
 30
0.0
 11
31.0059
 21
73.7429
 31
0.0
  0
LINE
  8
0
 62
     0
 10
7.19473
 20
73.7429
 30
0.0
 11
7.19473
 21
72.7438
 31
0.0
  0
LINE
  8
0
 62
     0
 10
7.19473
 20
72.7438
 30
0.0
 11
6.3941
 21
72.7438
 31
0.0
  0
LINE
  8
0
 62
     0
 10
6.3941
 20
72.7438
 30
0.0
 11
6.3941
 21
69.6433
 31
0.0
  0
LINE
  8
0
 62
     0
 10
6.3941
 20
69.6433
 30
0.0
 11
7.19473
 21
69.6433
 31
0.0
  0
LINE
  8
0
 62
     0
 10
7.19473
 20
69.6433
 30
0.0
 11
7.19473
 21
63.8433
 31
0.0
  0
LINE
  8
0
 62
     0
 10
7.19473
 20
63.8433
 30
0.0
 11
6.3941
 21
63.8433
 31
0.0
  0
LINE
  8
0
 62
     0
 10
6.3941
 20
63.8433
 30
0.0
 11
6.3941
 21
60.7441
 31
0.0
  0
LINE
  8
0
 62
     0
 10
6.3941
 20
60.7441
 30
0.0
 11
7.19473
 21
60.7441
 31
0.0
  0
LINE
  8
0
 62
     0
 10
7.19473
 20
60.7441
 30
0.0
 11
7.19473
 21
59.7436
 31
0.0
  0
LINE
  8
0
 62
     0
 10
7.19473
 20
59.7436
 30
0.0
 11
21.1942
 21
59.7436
 31
0.0
  0
LINE
  8
0
 62
     0
 10
21.1942
 20
59.7436
 30
0.0
 11
21.1942
 21
60.7441
 31
0.0
  0
LINE
  8
0
 62
     0
 10
21.1942
 20
60.7441
 30
0.0
 11
21.9935
 21
60.7441
 31
0.0
  0
LINE
  8
0
 62
     0
 10
21.9935
 20
60.7441
 30
0.0
 11
21.9935
 21
63.8433
 31
0.0
  0
LINE
  8
0
 62
     0
 10
21.9935
 20
63.8433
 30
0.0
 11
21.1942
 21
63.8433
 31
0.0
  0
LINE
  8
0
 62
     0
 10
21.1942
 20
63.8433
 30
0.0
 11
21.1942
 21
69.6433
 31
0.0
  0
LINE
  8
0
 62
     0
 10
21.1942
 20
69.6433
 30
0.0
 11
21.9935
 21
69.6433
 31
0.0
  0
LINE
  8
0
 62
     0
 10
21.9935
 20
69.6433
 30
0.0
 11
21.9935
 21
72.7438
 31
0.0
  0
LINE
  8
0
 62
     0
 10
21.9935
 20
72.7438
 30
0.0
 11
21.1942
 21
72.7438
 31
0.0
  0
LINE
  8
0
 62
     0
 10
21.1942
 20
72.7438
 30
0.0
 11
21.1942
 21
73.7429
 31
0.0
  0
LINE
  8
0
 62
     0
 10
21.1942
 20
73.7429
 30
0.0
 11
7.19473
 21
73.7429
 31
0.0
  0
LINE
  8
0
 62
     0
 10
259.559
 20
69.4711
 30
0.0
 11
258.862
 21
69.1155
 31
0.0
  0
LINE
  8
0
 62
     0
 10
258.862
 20
69.1155
 30
0.0
 11
258.309
 21
68.5631
 31
0.0
  0
LINE
  8
0
 62
     0
 10
258.309
 20
68.5631
 30
0.0
 11
257.954
 21
67.8656
 31
0.0
  0
LINE
  8
0
 62
     0
 10
257.954
 20
67.8656
 30
0.0
 11
257.831
 21
67.0913
 31
0.0
  0
LINE
  8
0
 62
     0
 10
257.831
 20
67.0913
 30
0.0
 11
257.954
 21
66.3208
 31
0.0
  0
LINE
  8
0
 62
     0
 10
257.954
 20
66.3208
 30
0.0
 11
258.309
 21
65.6237
 31
0.0
  0
LINE
  8
0
 62
     0
 10
258.309
 20
65.6237
 30
0.0
 11
258.862
 21
65.0709
 31
0.0
  0
LINE
  8
0
 62
     0
 10
258.862
 20
65.0709
 30
0.0
 11
259.559
 21
64.7153
 31
0.0
  0
LINE
  8
0
 62
     0
 10
259.559
 20
64.7153
 30
0.0
 11
260.332
 21
64.5915
 31
0.0
  0
LINE
  8
0
 62
     0
 10
260.332
 20
64.5915
 30
0.0
 11
261.104
 21
64.7153
 31
0.0
  0
LINE
  8
0
 62
     0
 10
261.104
 20
64.7153
 30
0.0
 11
261.801
 21
65.0709
 31
0.0
  0
LINE
  8
0
 62
     0
 10
261.801
 20
65.0709
 30
0.0
 11
262.354
 21
65.6237
 31
0.0
  0
LINE
  8
0
 62
     0
 10
262.354
 20
65.6237
 30
0.0
 11
262.708
 21
66.3208
 31
0.0
  0
LINE
  8
0
 62
     0
 10
262.708
 20
66.3208
 30
0.0
 11
262.832
 21
67.0913
 31
0.0
  0
LINE
  8
0
 62
     0
 10
262.832
 20
67.0913
 30
0.0
 11
262.708
 21
67.8656
 31
0.0
  0
LINE
  8
0
 62
     0
 10
262.708
 20
67.8656
 30
0.0
 11
262.354
 21
68.5631
 31
0.0
  0
LINE
  8
0
 62
     0
 10
262.354
 20
68.5631
 30
0.0
 11
261.801
 21
69.1155
 31
0.0
  0
LINE
  8
0
 62
     0
 10
261.801
 20
69.1155
 30
0.0
 11
261.104
 21
69.4711
 31
0.0
  0
LINE
  8
0
 62
     0
 10
261.104
 20
69.4711
 30
0.0
 11
260.332
 21
69.5925
 31
0.0
  0
LINE
  8
0
 62
     0
 10
260.332
 20
69.5925
 30
0.0
 11
259.559
 21
69.4711
 31
0.0
  0
LINE
  8
0
 62
     0
 10
24.7082
 20
69.4711
 30
0.0
 11
24.0123
 21
69.1155
 31
0.0
  0
LINE
  8
0
 62
     0
 10
24.0123
 20
69.1155
 30
0.0
 11
23.4583
 21
68.5631
 31
0.0
  0
LINE
  8
0
 62
     0
 10
23.4583
 20
68.5631
 30
0.0
 11
23.1042
 21
67.8656
 31
0.0
  0
LINE
  8
0
 62
     0
 10
23.1042
 20
67.8656
 30
0.0
 11
22.9829
 21
67.0913
 31
0.0
  0
LINE
  8
0
 62
     0
 10
22.9829
 20
67.0913
 30
0.0
 11
23.1042
 21
66.3208
 31
0.0
  0
LINE
  8
0
 62
     0
 10
23.1042
 20
66.3208
 30
0.0
 11
23.4583
 21
65.6237
 31
0.0
  0
LINE
  8
0
 62
     0
 10
23.4583
 20
65.6237
 30
0.0
 11
24.0123
 21
65.0709
 31
0.0
  0
LINE
  8
0
 62
     0
 10
24.0123
 20
65.0709
 30
0.0
 11
24.7082
 21
64.7153
 31
0.0
  0
LINE
  8
0
 62
     0
 10
24.7082
 20
64.7153
 30
0.0
 11
25.4827
 21
64.5915
 31
0.0
  0
LINE
  8
0
 62
     0
 10
25.4827
 20
64.5915
 30
0.0
 11
26.2544
 21
64.7153
 31
0.0
  0
LINE
  8
0
 62
     0
 10
26.2544
 20
64.7153
 30
0.0
 11
26.9517
 21
65.0709
 31
0.0
  0
LINE
  8
0
 62
     0
 10
26.9517
 20
65.0709
 30
0.0
 11
27.5029
 21
65.6237
 31
0.0
  0
LINE
  8
0
 62
     0
 10
27.5029
 20
65.6237
 30
0.0
 11
27.8598
 21
66.3208
 31
0.0
  0
LINE
  8
0
 62
     0
 10
27.8598
 20
66.3208
 30
0.0
 11
27.9811
 21
67.0913
 31
0.0
  0
LINE
  8
0
 62
     0
 10
27.9811
 20
67.0913
 30
0.0
 11
27.8598
 21
67.8656
 31
0.0
  0
LINE
  8
0
 62
     0
 10
27.8598
 20
67.8656
 30
0.0
 11
27.5029
 21
68.5631
 31
0.0
  0
LINE
  8
0
 62
     0
 10
27.5029
 20
68.5631
 30
0.0
 11
26.9517
 21
69.1155
 31
0.0
  0
LINE
  8
0
 62
     0
 10
26.9517
 20
69.1155
 30
0.0
 11
26.2544
 21
69.4711
 31
0.0
  0
LINE
  8
0
 62
     0
 10
26.2544
 20
69.4711
 30
0.0
 11
25.4827
 21
69.5925
 31
0.0
  0
LINE
  8
0
 62
     0
 10
25.4827
 20
69.5925
 30
0.0
 11
24.7082
 21
69.4711
 31
0.0
  0
LINE
  8
0
 62
     0
 10
259.606
 20
92.7929
 30
0.0
 11
259.606
 21
91.7938
 31
0.0
  0
LINE
  8
0
 62
     0
 10
259.606
 20
91.7938
 30
0.0
 11
258.805
 21
91.7938
 31
0.0
  0
LINE
  8
0
 62
     0
 10
258.805
 20
91.7938
 30
0.0
 11
258.805
 21
88.6933
 31
0.0
  0
LINE
  8
0
 62
     0
 10
258.805
 20
88.6933
 30
0.0
 11
259.606
 21
88.6933
 31
0.0
  0
LINE
  8
0
 62
     0
 10
259.606
 20
88.6933
 30
0.0
 11
259.606
 21
88.0939
 31
0.0
  0
LINE
  8
0
 62
     0
 10
259.606
 20
88.0939
 30
0.0
 11
258.08
 21
88.0939
 31
0.0
  0
LINE
  8
0
 62
     0
 10
258.08
 20
88.0939
 30
0.0
 11
258.08
 21
91.3239
 31
0.0
  0
LINE
  8
0
 62
     0
 10
258.08
 20
91.3239
 30
0.0
 11
251.331
 21
91.3239
 31
0.0
  0
LINE
  8
0
 62
     0
 10
251.331
 20
91.3239
 30
0.0
 11
251.331
 21
88.0939
 31
0.0
  0
LINE
  8
0
 62
     0
 10
251.331
 20
88.0939
 30
0.0
 11
250.507
 21
88.0939
 31
0.0
  0
LINE
  8
0
 62
     0
 10
250.507
 20
88.0939
 30
0.0
 11
250.507
 21
85.2936
 31
0.0
  0
LINE
  8
0
 62
     0
 10
250.507
 20
85.2936
 30
0.0
 11
251.331
 21
85.2936
 31
0.0
  0
LINE
  8
0
 62
     0
 10
251.331
 20
85.2936
 30
0.0
 11
251.331
 21
79.0222
 31
0.0
  0
LINE
  8
0
 62
     0
 10
251.331
 20
79.0222
 30
0.0
 11
253.056
 21
79.0222
 31
0.0
  0
LINE
  8
0
 62
     0
 10
253.056
 20
79.0222
 30
0.0
 11
253.056
 21
77.8235
 31
0.0
  0
LINE
  8
0
 62
     0
 10
253.056
 20
77.8235
 30
0.0
 11
256.355
 21
77.8235
 31
0.0
  0
LINE
  8
0
 62
     0
 10
256.355
 20
77.8235
 30
0.0
 11
256.355
 21
79.0222
 31
0.0
  0
LINE
  8
0
 62
     0
 10
256.355
 20
79.0222
 30
0.0
 11
258.08
 21
79.0222
 31
0.0
  0
LINE
  8
0
 62
     0
 10
258.08
 20
79.0222
 30
0.0
 11
258.08
 21
83.494
 31
0.0
  0
LINE
  8
0
 62
     0
 10
258.08
 20
83.494
 30
0.0
 11
259.606
 21
83.494
 31
0.0
  0
LINE
  8
0
 62
     0
 10
259.606
 20
83.494
 30
0.0
 11
259.606
 21
82.8933
 31
0.0
  0
LINE
  8
0
 62
     0
 10
259.606
 20
82.8933
 30
0.0
 11
258.805
 21
82.8933
 31
0.0
  0
LINE
  8
0
 62
     0
 10
258.805
 20
82.8933
 30
0.0
 11
258.805
 21
79.7941
 31
0.0
  0
LINE
  8
0
 62
     0
 10
258.805
 20
79.7941
 30
0.0
 11
259.606
 21
79.7941
 31
0.0
  0
LINE
  8
0
 62
     0
 10
259.606
 20
79.7941
 30
0.0
 11
259.606
 21
78.7936
 31
0.0
  0
LINE
  8
0
 62
     0
 10
259.606
 20
78.7936
 30
0.0
 11
273.605
 21
78.7936
 31
0.0
  0
LINE
  8
0
 62
     0
 10
273.605
 20
78.7936
 30
0.0
 11
273.605
 21
79.7941
 31
0.0
  0
LINE
  8
0
 62
     0
 10
273.605
 20
79.7941
 30
0.0
 11
274.406
 21
79.7941
 31
0.0
  0
LINE
  8
0
 62
     0
 10
274.406
 20
79.7941
 30
0.0
 11
274.406
 21
82.8933
 31
0.0
  0
LINE
  8
0
 62
     0
 10
274.406
 20
82.8933
 30
0.0
 11
273.605
 21
82.8933
 31
0.0
  0
LINE
  8
0
 62
     0
 10
273.605
 20
82.8933
 30
0.0
 11
273.605
 21
83.494
 31
0.0
  0
LINE
  8
0
 62
     0
 10
273.605
 20
83.494
 30
0.0
 11
275.131
 21
83.494
 31
0.0
  0
LINE
  8
0
 62
     0
 10
275.131
 20
83.494
 30
0.0
 11
275.131
 21
79.0222
 31
0.0
  0
LINE
  8
0
 62
     0
 10
275.131
 20
79.0222
 30
0.0
 11
276.856
 21
79.0222
 31
0.0
  0
LINE
  8
0
 62
     0
 10
276.856
 20
79.0222
 30
0.0
 11
276.856
 21
77.8235
 31
0.0
  0
LINE
  8
0
 62
     0
 10
276.856
 20
77.8235
 30
0.0
 11
280.155
 21
77.8235
 31
0.0
  0
LINE
  8
0
 62
     0
 10
280.155
 20
77.8235
 30
0.0
 11
280.155
 21
79.0222
 31
0.0
  0
LINE
  8
0
 62
     0
 10
280.155
 20
79.0222
 30
0.0
 11
281.88
 21
79.0222
 31
0.0
  0
LINE
  8
0
 62
     0
 10
281.88
 20
79.0222
 30
0.0
 11
281.88
 21
85.2936
 31
0.0
  0
LINE
  8
0
 62
     0
 10
281.88
 20
85.2936
 30
0.0
 11
282.706
 21
85.2936
 31
0.0
  0
LINE
  8
0
 62
     0
 10
282.706
 20
85.2936
 30
0.0
 11
282.706
 21
88.0939
 31
0.0
  0
LINE
  8
0
 62
     0
 10
282.706
 20
88.0939
 30
0.0
 11
281.88
 21
88.0939
 31
0.0
  0
LINE
  8
0
 62
     0
 10
281.88
 20
88.0939
 30
0.0
 11
281.88
 21
91.3239
 31
0.0
  0
LINE
  8
0
 62
     0
 10
281.88
 20
91.3239
 30
0.0
 11
275.131
 21
91.3239
 31
0.0
  0
LINE
  8
0
 62
     0
 10
275.131
 20
91.3239
 30
0.0
 11
275.131
 21
88.0939
 31
0.0
  0
LINE
  8
0
 62
     0
 10
275.131
 20
88.0939
 30
0.0
 11
273.605
 21
88.0939
 31
0.0
  0
LINE
  8
0
 62
     0
 10
273.605
 20
88.0939
 30
0.0
 11
273.605
 21
88.6933
 31
0.0
  0
LINE
  8
0
 62
     0
 10
273.605
 20
88.6933
 30
0.0
 11
274.406
 21
88.6933
 31
0.0
  0
LINE
  8
0
 62
     0
 10
274.406
 20
88.6933
 30
0.0
 11
274.406
 21
91.7938
 31
0.0
  0
LINE
  8
0
 62
     0
 10
274.406
 20
91.7938
 30
0.0
 11
273.605
 21
91.7938
 31
0.0
  0
LINE
  8
0
 62
     0
 10
273.605
 20
91.7938
 30
0.0
 11
273.605
 21
92.7929
 31
0.0
  0
LINE
  8
0
 62
     0
 10
273.605
 20
92.7929
 30
0.0
 11
259.606
 21
92.7929
 31
0.0
  0
LINE
  8
0
 62
     0
 10
231.031
 20
92.7929
 30
0.0
 11
231.031
 21
91.7938
 31
0.0
  0
LINE
  8
0
 62
     0
 10
231.031
 20
91.7938
 30
0.0
 11
230.232
 21
91.7938
 31
0.0
  0
LINE
  8
0
 62
     0
 10
230.232
 20
91.7938
 30
0.0
 11
230.232
 21
88.6933
 31
0.0
  0
LINE
  8
0
 62
     0
 10
230.232
 20
88.6933
 30
0.0
 11
231.031
 21
88.6933
 31
0.0
  0
LINE
  8
0
 62
     0
 10
231.031
 20
88.6933
 30
0.0
 11
231.031
 21
82.8933
 31
0.0
  0
LINE
  8
0
 62
     0
 10
231.031
 20
82.8933
 30
0.0
 11
230.232
 21
82.8933
 31
0.0
  0
LINE
  8
0
 62
     0
 10
230.232
 20
82.8933
 30
0.0
 11
230.232
 21
79.7941
 31
0.0
  0
LINE
  8
0
 62
     0
 10
230.232
 20
79.7941
 30
0.0
 11
231.031
 21
79.7941
 31
0.0
  0
LINE
  8
0
 62
     0
 10
231.031
 20
79.7941
 30
0.0
 11
231.031
 21
78.7936
 31
0.0
  0
LINE
  8
0
 62
     0
 10
231.031
 20
78.7936
 30
0.0
 11
245.032
 21
78.7936
 31
0.0
  0
LINE
  8
0
 62
     0
 10
245.032
 20
78.7936
 30
0.0
 11
245.032
 21
79.7941
 31
0.0
  0
LINE
  8
0
 62
     0
 10
245.032
 20
79.7941
 30
0.0
 11
245.831
 21
79.7941
 31
0.0
  0
LINE
  8
0
 62
     0
 10
245.831
 20
79.7941
 30
0.0
 11
245.831
 21
82.8933
 31
0.0
  0
LINE
  8
0
 62
     0
 10
245.831
 20
82.8933
 30
0.0
 11
245.032
 21
82.8933
 31
0.0
  0
LINE
  8
0
 62
     0
 10
245.032
 20
82.8933
 30
0.0
 11
245.032
 21
88.6933
 31
0.0
  0
LINE
  8
0
 62
     0
 10
245.032
 20
88.6933
 30
0.0
 11
245.831
 21
88.6933
 31
0.0
  0
LINE
  8
0
 62
     0
 10
245.831
 20
88.6933
 30
0.0
 11
245.831
 21
91.7938
 31
0.0
  0
LINE
  8
0
 62
     0
 10
245.831
 20
91.7938
 30
0.0
 11
245.032
 21
91.7938
 31
0.0
  0
LINE
  8
0
 62
     0
 10
245.032
 20
91.7938
 30
0.0
 11
245.032
 21
92.7929
 31
0.0
  0
LINE
  8
0
 62
     0
 10
245.032
 20
92.7929
 30
0.0
 11
231.031
 21
92.7929
 31
0.0
  0
LINE
  8
0
 62
     0
 10
211.981
 20
92.7929
 30
0.0
 11
211.981
 21
91.7938
 31
0.0
  0
LINE
  8
0
 62
     0
 10
211.981
 20
91.7938
 30
0.0
 11
211.18
 21
91.7938
 31
0.0
  0
LINE
  8
0
 62
     0
 10
211.18
 20
91.7938
 30
0.0
 11
211.18
 21
88.6933
 31
0.0
  0
LINE
  8
0
 62
     0
 10
211.18
 20
88.6933
 30
0.0
 11
211.981
 21
88.6933
 31
0.0
  0
LINE
  8
0
 62
     0
 10
211.981
 20
88.6933
 30
0.0
 11
211.981
 21
82.8933
 31
0.0
  0
LINE
  8
0
 62
     0
 10
211.981
 20
82.8933
 30
0.0
 11
211.18
 21
82.8933
 31
0.0
  0
LINE
  8
0
 62
     0
 10
211.18
 20
82.8933
 30
0.0
 11
211.18
 21
79.7941
 31
0.0
  0
LINE
  8
0
 62
     0
 10
211.18
 20
79.7941
 30
0.0
 11
211.981
 21
79.7941
 31
0.0
  0
LINE
  8
0
 62
     0
 10
211.981
 20
79.7941
 30
0.0
 11
211.981
 21
78.7936
 31
0.0
  0
LINE
  8
0
 62
     0
 10
211.981
 20
78.7936
 30
0.0
 11
225.982
 21
78.7936
 31
0.0
  0
LINE
  8
0
 62
     0
 10
225.982
 20
78.7936
 30
0.0
 11
225.982
 21
79.7941
 31
0.0
  0
LINE
  8
0
 62
     0
 10
225.982
 20
79.7941
 30
0.0
 11
226.781
 21
79.7941
 31
0.0
  0
LINE
  8
0
 62
     0
 10
226.781
 20
79.7941
 30
0.0
 11
226.781
 21
82.8933
 31
0.0
  0
LINE
  8
0
 62
     0
 10
226.781
 20
82.8933
 30
0.0
 11
225.982
 21
82.8933
 31
0.0
  0
LINE
  8
0
 62
     0
 10
225.982
 20
82.8933
 30
0.0
 11
225.982
 21
88.6933
 31
0.0
  0
LINE
  8
0
 62
     0
 10
225.982
 20
88.6933
 30
0.0
 11
226.781
 21
88.6933
 31
0.0
  0
LINE
  8
0
 62
     0
 10
226.781
 20
88.6933
 30
0.0
 11
226.781
 21
91.7938
 31
0.0
  0
LINE
  8
0
 62
     0
 10
226.781
 20
91.7938
 30
0.0
 11
225.982
 21
91.7938
 31
0.0
  0
LINE
  8
0
 62
     0
 10
225.982
 20
91.7938
 30
0.0
 11
225.982
 21
92.7929
 31
0.0
  0
LINE
  8
0
 62
     0
 10
225.982
 20
92.7929
 30
0.0
 11
211.981
 21
92.7929
 31
0.0
  0
LINE
  8
0
 62
     0
 10
192.931
 20
92.7929
 30
0.0
 11
192.931
 21
91.7938
 31
0.0
  0
LINE
  8
0
 62
     0
 10
192.931
 20
91.7938
 30
0.0
 11
192.132
 21
91.7938
 31
0.0
  0
LINE
  8
0
 62
     0
 10
192.132
 20
91.7938
 30
0.0
 11
192.132
 21
88.6933
 31
0.0
  0
LINE
  8
0
 62
     0
 10
192.132
 20
88.6933
 30
0.0
 11
192.931
 21
88.6933
 31
0.0
  0
LINE
  8
0
 62
     0
 10
192.931
 20
88.6933
 30
0.0
 11
192.931
 21
82.8933
 31
0.0
  0
LINE
  8
0
 62
     0
 10
192.931
 20
82.8933
 30
0.0
 11
192.132
 21
82.8933
 31
0.0
  0
LINE
  8
0
 62
     0
 10
192.132
 20
82.8933
 30
0.0
 11
192.132
 21
79.7941
 31
0.0
  0
LINE
  8
0
 62
     0
 10
192.132
 20
79.7941
 30
0.0
 11
192.931
 21
79.7941
 31
0.0
  0
LINE
  8
0
 62
     0
 10
192.931
 20
79.7941
 30
0.0
 11
192.931
 21
78.7936
 31
0.0
  0
LINE
  8
0
 62
     0
 10
192.931
 20
78.7936
 30
0.0
 11
206.93
 21
78.7936
 31
0.0
  0
LINE
  8
0
 62
     0
 10
206.93
 20
78.7936
 30
0.0
 11
206.93
 21
79.7941
 31
0.0
  0
LINE
  8
0
 62
     0
 10
206.93
 20
79.7941
 30
0.0
 11
207.731
 21
79.7941
 31
0.0
  0
LINE
  8
0
 62
     0
 10
207.731
 20
79.7941
 30
0.0
 11
207.731
 21
82.8933
 31
0.0
  0
LINE
  8
0
 62
     0
 10
207.731
 20
82.8933
 30
0.0
 11
206.93
 21
82.8933
 31
0.0
  0
LINE
  8
0
 62
     0
 10
206.93
 20
82.8933
 30
0.0
 11
206.93
 21
88.6933
 31
0.0
  0
LINE
  8
0
 62
     0
 10
206.93
 20
88.6933
 30
0.0
 11
207.731
 21
88.6933
 31
0.0
  0
LINE
  8
0
 62
     0
 10
207.731
 20
88.6933
 30
0.0
 11
207.731
 21
91.7938
 31
0.0
  0
LINE
  8
0
 62
     0
 10
207.731
 20
91.7938
 30
0.0
 11
206.93
 21
91.7938
 31
0.0
  0
LINE
  8
0
 62
     0
 10
206.93
 20
91.7938
 30
0.0
 11
206.93
 21
92.7929
 31
0.0
  0
LINE
  8
0
 62
     0
 10
206.93
 20
92.7929
 30
0.0
 11
192.931
 21
92.7929
 31
0.0
  0
LINE
  8
0
 62
     0
 10
173.881
 20
92.7929
 30
0.0
 11
173.881
 21
91.7938
 31
0.0
  0
LINE
  8
0
 62
     0
 10
173.881
 20
91.7938
 30
0.0
 11
173.08
 21
91.7938
 31
0.0
  0
LINE
  8
0
 62
     0
 10
173.08
 20
91.7938
 30
0.0
 11
173.08
 21
88.6933
 31
0.0
  0
LINE
  8
0
 62
     0
 10
173.08
 20
88.6933
 30
0.0
 11
173.881
 21
88.6933
 31
0.0
  0
LINE
  8
0
 62
     0
 10
173.881
 20
88.6933
 30
0.0
 11
173.881
 21
82.8933
 31
0.0
  0
LINE
  8
0
 62
     0
 10
173.881
 20
82.8933
 30
0.0
 11
173.08
 21
82.8933
 31
0.0
  0
LINE
  8
0
 62
     0
 10
173.08
 20
82.8933
 30
0.0
 11
173.08
 21
79.7941
 31
0.0
  0
LINE
  8
0
 62
     0
 10
173.08
 20
79.7941
 30
0.0
 11
173.881
 21
79.7941
 31
0.0
  0
LINE
  8
0
 62
     0
 10
173.881
 20
79.7941
 30
0.0
 11
173.881
 21
78.7936
 31
0.0
  0
LINE
  8
0
 62
     0
 10
173.881
 20
78.7936
 30
0.0
 11
187.882
 21
78.7936
 31
0.0
  0
LINE
  8
0
 62
     0
 10
187.882
 20
78.7936
 30
0.0
 11
187.882
 21
79.7941
 31
0.0
  0
LINE
  8
0
 62
     0
 10
187.882
 20
79.7941
 30
0.0
 11
188.681
 21
79.7941
 31
0.0
  0
LINE
  8
0
 62
     0
 10
188.681
 20
79.7941
 30
0.0
 11
188.681
 21
82.8933
 31
0.0
  0
LINE
  8
0
 62
     0
 10
188.681
 20
82.8933
 30
0.0
 11
187.882
 21
82.8933
 31
0.0
  0
LINE
  8
0
 62
     0
 10
187.882
 20
82.8933
 30
0.0
 11
187.882
 21
88.6933
 31
0.0
  0
LINE
  8
0
 62
     0
 10
187.882
 20
88.6933
 30
0.0
 11
188.681
 21
88.6933
 31
0.0
  0
LINE
  8
0
 62
     0
 10
188.681
 20
88.6933
 30
0.0
 11
188.681
 21
91.7938
 31
0.0
  0
LINE
  8
0
 62
     0
 10
188.681
 20
91.7938
 30
0.0
 11
187.882
 21
91.7938
 31
0.0
  0
LINE
  8
0
 62
     0
 10
187.882
 20
91.7938
 30
0.0
 11
187.882
 21
92.7929
 31
0.0
  0
LINE
  8
0
 62
     0
 10
187.882
 20
92.7929
 30
0.0
 11
173.881
 21
92.7929
 31
0.0
  0
LINE
  8
0
 62
     0
 10
154.831
 20
92.7929
 30
0.0
 11
154.831
 21
91.7938
 31
0.0
  0
LINE
  8
0
 62
     0
 10
154.831
 20
91.7938
 30
0.0
 11
154.032
 21
91.7938
 31
0.0
  0
LINE
  8
0
 62
     0
 10
154.032
 20
91.7938
 30
0.0
 11
154.032
 21
88.6933
 31
0.0
  0
LINE
  8
0
 62
     0
 10
154.032
 20
88.6933
 30
0.0
 11
154.831
 21
88.6933
 31
0.0
  0
LINE
  8
0
 62
     0
 10
154.831
 20
88.6933
 30
0.0
 11
154.831
 21
82.8933
 31
0.0
  0
LINE
  8
0
 62
     0
 10
154.831
 20
82.8933
 30
0.0
 11
154.032
 21
82.8933
 31
0.0
  0
LINE
  8
0
 62
     0
 10
154.032
 20
82.8933
 30
0.0
 11
154.032
 21
79.7941
 31
0.0
  0
LINE
  8
0
 62
     0
 10
154.032
 20
79.7941
 30
0.0
 11
154.831
 21
79.7941
 31
0.0
  0
LINE
  8
0
 62
     0
 10
154.831
 20
79.7941
 30
0.0
 11
154.831
 21
78.7936
 31
0.0
  0
LINE
  8
0
 62
     0
 10
154.831
 20
78.7936
 30
0.0
 11
168.83
 21
78.7936
 31
0.0
  0
LINE
  8
0
 62
     0
 10
168.83
 20
78.7936
 30
0.0
 11
168.83
 21
79.7941
 31
0.0
  0
LINE
  8
0
 62
     0
 10
168.83
 20
79.7941
 30
0.0
 11
169.631
 21
79.7941
 31
0.0
  0
LINE
  8
0
 62
     0
 10
169.631
 20
79.7941
 30
0.0
 11
169.631
 21
82.8933
 31
0.0
  0
LINE
  8
0
 62
     0
 10
169.631
 20
82.8933
 30
0.0
 11
168.83
 21
82.8933
 31
0.0
  0
LINE
  8
0
 62
     0
 10
168.83
 20
82.8933
 30
0.0
 11
168.83
 21
88.6933
 31
0.0
  0
LINE
  8
0
 62
     0
 10
168.83
 20
88.6933
 30
0.0
 11
169.631
 21
88.6933
 31
0.0
  0
LINE
  8
0
 62
     0
 10
169.631
 20
88.6933
 30
0.0
 11
169.631
 21
91.7938
 31
0.0
  0
LINE
  8
0
 62
     0
 10
169.631
 20
91.7938
 30
0.0
 11
168.83
 21
91.7938
 31
0.0
  0
LINE
  8
0
 62
     0
 10
168.83
 20
91.7938
 30
0.0
 11
168.83
 21
92.7929
 31
0.0
  0
LINE
  8
0
 62
     0
 10
168.83
 20
92.7929
 30
0.0
 11
154.831
 21
92.7929
 31
0.0
  0
LINE
  8
0
 62
     0
 10
135.781
 20
92.7929
 30
0.0
 11
135.781
 21
91.7938
 31
0.0
  0
LINE
  8
0
 62
     0
 10
135.781
 20
91.7938
 30
0.0
 11
134.982
 21
91.7938
 31
0.0
  0
LINE
  8
0
 62
     0
 10
134.982
 20
91.7938
 30
0.0
 11
134.982
 21
88.6933
 31
0.0
  0
LINE
  8
0
 62
     0
 10
134.982
 20
88.6933
 30
0.0
 11
135.781
 21
88.6933
 31
0.0
  0
LINE
  8
0
 62
     0
 10
135.781
 20
88.6933
 30
0.0
 11
135.781
 21
82.8933
 31
0.0
  0
LINE
  8
0
 62
     0
 10
135.781
 20
82.8933
 30
0.0
 11
134.982
 21
82.8933
 31
0.0
  0
LINE
  8
0
 62
     0
 10
134.982
 20
82.8933
 30
0.0
 11
134.982
 21
79.7941
 31
0.0
  0
LINE
  8
0
 62
     0
 10
134.982
 20
79.7941
 30
0.0
 11
135.781
 21
79.7941
 31
0.0
  0
LINE
  8
0
 62
     0
 10
135.781
 20
79.7941
 30
0.0
 11
135.781
 21
78.7936
 31
0.0
  0
LINE
  8
0
 62
     0
 10
135.781
 20
78.7936
 30
0.0
 11
149.782
 21
78.7936
 31
0.0
  0
LINE
  8
0
 62
     0
 10
149.782
 20
78.7936
 30
0.0
 11
149.782
 21
79.7941
 31
0.0
  0
LINE
  8
0
 62
     0
 10
149.782
 20
79.7941
 30
0.0
 11
150.581
 21
79.7941
 31
0.0
  0
LINE
  8
0
 62
     0
 10
150.581
 20
79.7941
 30
0.0
 11
150.581
 21
82.8933
 31
0.0
  0
LINE
  8
0
 62
     0
 10
150.581
 20
82.8933
 30
0.0
 11
149.782
 21
82.8933
 31
0.0
  0
LINE
  8
0
 62
     0
 10
149.782
 20
82.8933
 30
0.0
 11
149.782
 21
88.6933
 31
0.0
  0
LINE
  8
0
 62
     0
 10
149.782
 20
88.6933
 30
0.0
 11
150.581
 21
88.6933
 31
0.0
  0
LINE
  8
0
 62
     0
 10
150.581
 20
88.6933
 30
0.0
 11
150.581
 21
91.7938
 31
0.0
  0
LINE
  8
0
 62
     0
 10
150.581
 20
91.7938
 30
0.0
 11
149.782
 21
91.7938
 31
0.0
  0
LINE
  8
0
 62
     0
 10
149.782
 20
91.7938
 30
0.0
 11
149.782
 21
92.7929
 31
0.0
  0
LINE
  8
0
 62
     0
 10
149.782
 20
92.7929
 30
0.0
 11
135.781
 21
92.7929
 31
0.0
  0
LINE
  8
0
 62
     0
 10
116.731
 20
92.7929
 30
0.0
 11
116.731
 21
91.7938
 31
0.0
  0
LINE
  8
0
 62
     0
 10
116.731
 20
91.7938
 30
0.0
 11
115.932
 21
91.7938
 31
0.0
  0
LINE
  8
0
 62
     0
 10
115.932
 20
91.7938
 30
0.0
 11
115.932
 21
88.6933
 31
0.0
  0
LINE
  8
0
 62
     0
 10
115.932
 20
88.6933
 30
0.0
 11
116.731
 21
88.6933
 31
0.0
  0
LINE
  8
0
 62
     0
 10
116.731
 20
88.6933
 30
0.0
 11
116.731
 21
82.8933
 31
0.0
  0
LINE
  8
0
 62
     0
 10
116.731
 20
82.8933
 30
0.0
 11
115.932
 21
82.8933
 31
0.0
  0
LINE
  8
0
 62
     0
 10
115.932
 20
82.8933
 30
0.0
 11
115.932
 21
79.7941
 31
0.0
  0
LINE
  8
0
 62
     0
 10
115.932
 20
79.7941
 30
0.0
 11
116.731
 21
79.7941
 31
0.0
  0
LINE
  8
0
 62
     0
 10
116.731
 20
79.7941
 30
0.0
 11
116.731
 21
78.7936
 31
0.0
  0
LINE
  8
0
 62
     0
 10
116.731
 20
78.7936
 30
0.0
 11
130.732
 21
78.7936
 31
0.0
  0
LINE
  8
0
 62
     0
 10
130.732
 20
78.7936
 30
0.0
 11
130.732
 21
79.7941
 31
0.0
  0
LINE
  8
0
 62
     0
 10
130.732
 20
79.7941
 30
0.0
 11
131.531
 21
79.7941
 31
0.0
  0
LINE
  8
0
 62
     0
 10
131.531
 20
79.7941
 30
0.0
 11
131.531
 21
82.8933
 31
0.0
  0
LINE
  8
0
 62
     0
 10
131.531
 20
82.8933
 30
0.0
 11
130.732
 21
82.8933
 31
0.0
  0
LINE
  8
0
 62
     0
 10
130.732
 20
82.8933
 30
0.0
 11
130.732
 21
88.6933
 31
0.0
  0
LINE
  8
0
 62
     0
 10
130.732
 20
88.6933
 30
0.0
 11
131.531
 21
88.6933
 31
0.0
  0
LINE
  8
0
 62
     0
 10
131.531
 20
88.6933
 30
0.0
 11
131.531
 21
91.7938
 31
0.0
  0
LINE
  8
0
 62
     0
 10
131.531
 20
91.7938
 30
0.0
 11
130.732
 21
91.7938
 31
0.0
  0
LINE
  8
0
 62
     0
 10
130.732
 20
91.7938
 30
0.0
 11
130.732
 21
92.7929
 31
0.0
  0
LINE
  8
0
 62
     0
 10
130.732
 20
92.7929
 30
0.0
 11
116.731
 21
92.7929
 31
0.0
  0
LINE
  8
0
 62
     0
 10
97.681
 20
92.7929
 30
0.0
 11
97.681
 21
91.7938
 31
0.0
  0
LINE
  8
0
 62
     0
 10
97.681
 20
91.7938
 30
0.0
 11
96.8816
 21
91.7938
 31
0.0
  0
LINE
  8
0
 62
     0
 10
96.8816
 20
91.7938
 30
0.0
 11
96.8816
 21
88.6933
 31
0.0
  0
LINE
  8
0
 62
     0
 10
96.8816
 20
88.6933
 30
0.0
 11
97.681
 21
88.6933
 31
0.0
  0
LINE
  8
0
 62
     0
 10
97.681
 20
88.6933
 30
0.0
 11
97.681
 21
82.8933
 31
0.0
  0
LINE
  8
0
 62
     0
 10
97.681
 20
82.8933
 30
0.0
 11
96.8816
 21
82.8933
 31
0.0
  0
LINE
  8
0
 62
     0
 10
96.8816
 20
82.8933
 30
0.0
 11
96.8816
 21
79.7941
 31
0.0
  0
LINE
  8
0
 62
     0
 10
96.8816
 20
79.7941
 30
0.0
 11
97.681
 21
79.7941
 31
0.0
  0
LINE
  8
0
 62
     0
 10
97.681
 20
79.7941
 30
0.0
 11
97.681
 21
78.7936
 31
0.0
  0
LINE
  8
0
 62
     0
 10
97.681
 20
78.7936
 30
0.0
 11
111.682
 21
78.7936
 31
0.0
  0
LINE
  8
0
 62
     0
 10
111.682
 20
78.7936
 30
0.0
 11
111.682
 21
79.7941
 31
0.0
  0
LINE
  8
0
 62
     0
 10
111.682
 20
79.7941
 30
0.0
 11
112.481
 21
79.7941
 31
0.0
  0
LINE
  8
0
 62
     0
 10
112.481
 20
79.7941
 30
0.0
 11
112.481
 21
82.8933
 31
0.0
  0
LINE
  8
0
 62
     0
 10
112.481
 20
82.8933
 30
0.0
 11
111.682
 21
82.8933
 31
0.0
  0
LINE
  8
0
 62
     0
 10
111.682
 20
82.8933
 30
0.0
 11
111.682
 21
88.6933
 31
0.0
  0
LINE
  8
0
 62
     0
 10
111.682
 20
88.6933
 30
0.0
 11
112.481
 21
88.6933
 31
0.0
  0
LINE
  8
0
 62
     0
 10
112.481
 20
88.6933
 30
0.0
 11
112.481
 21
91.7938
 31
0.0
  0
LINE
  8
0
 62
     0
 10
112.481
 20
91.7938
 30
0.0
 11
111.682
 21
91.7938
 31
0.0
  0
LINE
  8
0
 62
     0
 10
111.682
 20
91.7938
 30
0.0
 11
111.682
 21
92.7929
 31
0.0
  0
LINE
  8
0
 62
     0
 10
111.682
 20
92.7929
 30
0.0
 11
97.681
 21
92.7929
 31
0.0
  0
LINE
  8
0
 62
     0
 10
78.631
 20
92.7929
 30
0.0
 11
78.631
 21
91.7938
 31
0.0
  0
LINE
  8
0
 62
     0
 10
78.631
 20
91.7938
 30
0.0
 11
77.8302
 21
91.7938
 31
0.0
  0
LINE
  8
0
 62
     0
 10
77.8302
 20
91.7938
 30
0.0
 11
77.8302
 21
88.6933
 31
0.0
  0
LINE
  8
0
 62
     0
 10
77.8302
 20
88.6933
 30
0.0
 11
78.631
 21
88.6933
 31
0.0
  0
LINE
  8
0
 62
     0
 10
78.631
 20
88.6933
 30
0.0
 11
78.631
 21
82.8933
 31
0.0
  0
LINE
  8
0
 62
     0
 10
78.631
 20
82.8933
 30
0.0
 11
77.8302
 21
82.8933
 31
0.0
  0
LINE
  8
0
 62
     0
 10
77.8302
 20
82.8933
 30
0.0
 11
77.8302
 21
79.7941
 31
0.0
  0
LINE
  8
0
 62
     0
 10
77.8302
 20
79.7941
 30
0.0
 11
78.631
 21
79.7941
 31
0.0
  0
LINE
  8
0
 62
     0
 10
78.631
 20
79.7941
 30
0.0
 11
78.631
 21
78.7936
 31
0.0
  0
LINE
  8
0
 62
     0
 10
78.631
 20
78.7936
 30
0.0
 11
92.6317
 21
78.7936
 31
0.0
  0
LINE
  8
0
 62
     0
 10
92.6317
 20
78.7936
 30
0.0
 11
92.6317
 21
79.7941
 31
0.0
  0
LINE
  8
0
 62
     0
 10
92.6317
 20
79.7941
 30
0.0
 11
93.4311
 21
79.7941
 31
0.0
  0
LINE
  8
0
 62
     0
 10
93.4311
 20
79.7941
 30
0.0
 11
93.4311
 21
82.8933
 31
0.0
  0
LINE
  8
0
 62
     0
 10
93.4311
 20
82.8933
 30
0.0
 11
92.6317
 21
82.8933
 31
0.0
  0
LINE
  8
0
 62
     0
 10
92.6317
 20
82.8933
 30
0.0
 11
92.6317
 21
88.6933
 31
0.0
  0
LINE
  8
0
 62
     0
 10
92.6317
 20
88.6933
 30
0.0
 11
93.4311
 21
88.6933
 31
0.0
  0
LINE
  8
0
 62
     0
 10
93.4311
 20
88.6933
 30
0.0
 11
93.4311
 21
91.7938
 31
0.0
  0
LINE
  8
0
 62
     0
 10
93.4311
 20
91.7938
 30
0.0
 11
92.6317
 21
91.7938
 31
0.0
  0
LINE
  8
0
 62
     0
 10
92.6317
 20
91.7938
 30
0.0
 11
92.6317
 21
92.7929
 31
0.0
  0
LINE
  8
0
 62
     0
 10
92.6317
 20
92.7929
 30
0.0
 11
78.631
 21
92.7929
 31
0.0
  0
LINE
  8
0
 62
     0
 10
59.581
 20
92.7929
 30
0.0
 11
59.581
 21
91.7938
 31
0.0
  0
LINE
  8
0
 62
     0
 10
59.581
 20
91.7938
 30
0.0
 11
58.7816
 21
91.7938
 31
0.0
  0
LINE
  8
0
 62
     0
 10
58.7816
 20
91.7938
 30
0.0
 11
58.7816
 21
88.6933
 31
0.0
  0
LINE
  8
0
 62
     0
 10
58.7816
 20
88.6933
 30
0.0
 11
59.581
 21
88.6933
 31
0.0
  0
LINE
  8
0
 62
     0
 10
59.581
 20
88.6933
 30
0.0
 11
59.581
 21
82.8933
 31
0.0
  0
LINE
  8
0
 62
     0
 10
59.581
 20
82.8933
 30
0.0
 11
58.7816
 21
82.8933
 31
0.0
  0
LINE
  8
0
 62
     0
 10
58.7816
 20
82.8933
 30
0.0
 11
58.7816
 21
79.7941
 31
0.0
  0
LINE
  8
0
 62
     0
 10
58.7816
 20
79.7941
 30
0.0
 11
59.581
 21
79.7941
 31
0.0
  0
LINE
  8
0
 62
     0
 10
59.581
 20
79.7941
 30
0.0
 11
59.581
 21
78.7936
 31
0.0
  0
LINE
  8
0
 62
     0
 10
59.581
 20
78.7936
 30
0.0
 11
73.5803
 21
78.7936
 31
0.0
  0
LINE
  8
0
 62
     0
 10
73.5803
 20
78.7936
 30
0.0
 11
73.5803
 21
79.7941
 31
0.0
  0
LINE
  8
0
 62
     0
 10
73.5803
 20
79.7941
 30
0.0
 11
74.3811
 21
79.7941
 31
0.0
  0
LINE
  8
0
 62
     0
 10
74.3811
 20
79.7941
 30
0.0
 11
74.3811
 21
82.8933
 31
0.0
  0
LINE
  8
0
 62
     0
 10
74.3811
 20
82.8933
 30
0.0
 11
73.5803
 21
82.8933
 31
0.0
  0
LINE
  8
0
 62
     0
 10
73.5803
 20
82.8933
 30
0.0
 11
73.5803
 21
88.6933
 31
0.0
  0
LINE
  8
0
 62
     0
 10
73.5803
 20
88.6933
 30
0.0
 11
74.3811
 21
88.6933
 31
0.0
  0
LINE
  8
0
 62
     0
 10
74.3811
 20
88.6933
 30
0.0
 11
74.3811
 21
91.7938
 31
0.0
  0
LINE
  8
0
 62
     0
 10
74.3811
 20
91.7938
 30
0.0
 11
73.5803
 21
91.7938
 31
0.0
  0
LINE
  8
0
 62
     0
 10
73.5803
 20
91.7938
 30
0.0
 11
73.5803
 21
92.7929
 31
0.0
  0
LINE
  8
0
 62
     0
 10
73.5803
 20
92.7929
 30
0.0
 11
59.581
 21
92.7929
 31
0.0
  0
LINE
  8
0
 62
     0
 10
40.531
 20
92.7929
 30
0.0
 11
40.531
 21
91.7938
 31
0.0
  0
LINE
  8
0
 62
     0
 10
40.531
 20
91.7938
 30
0.0
 11
39.7316
 21
91.7938
 31
0.0
  0
LINE
  8
0
 62
     0
 10
39.7316
 20
91.7938
 30
0.0
 11
39.7316
 21
88.6933
 31
0.0
  0
LINE
  8
0
 62
     0
 10
39.7316
 20
88.6933
 30
0.0
 11
40.531
 21
88.6933
 31
0.0
  0
LINE
  8
0
 62
     0
 10
40.531
 20
88.6933
 30
0.0
 11
40.531
 21
82.8933
 31
0.0
  0
LINE
  8
0
 62
     0
 10
40.531
 20
82.8933
 30
0.0
 11
39.7316
 21
82.8933
 31
0.0
  0
LINE
  8
0
 62
     0
 10
39.7316
 20
82.8933
 30
0.0
 11
39.7316
 21
79.7941
 31
0.0
  0
LINE
  8
0
 62
     0
 10
39.7316
 20
79.7941
 30
0.0
 11
40.531
 21
79.7941
 31
0.0
  0
LINE
  8
0
 62
     0
 10
40.531
 20
79.7941
 30
0.0
 11
40.531
 21
78.7936
 31
0.0
  0
LINE
  8
0
 62
     0
 10
40.531
 20
78.7936
 30
0.0
 11
54.5317
 21
78.7936
 31
0.0
  0
LINE
  8
0
 62
     0
 10
54.5317
 20
78.7936
 30
0.0
 11
54.5317
 21
79.7941
 31
0.0
  0
LINE
  8
0
 62
     0
 10
54.5317
 20
79.7941
 30
0.0
 11
55.3311
 21
79.7941
 31
0.0
  0
LINE
  8
0
 62
     0
 10
55.3311
 20
79.7941
 30
0.0
 11
55.3311
 21
82.8933
 31
0.0
  0
LINE
  8
0
 62
     0
 10
55.3311
 20
82.8933
 30
0.0
 11
54.5317
 21
82.8933
 31
0.0
  0
LINE
  8
0
 62
     0
 10
54.5317
 20
82.8933
 30
0.0
 11
54.5317
 21
88.6933
 31
0.0
  0
LINE
  8
0
 62
     0
 10
54.5317
 20
88.6933
 30
0.0
 11
55.3311
 21
88.6933
 31
0.0
  0
LINE
  8
0
 62
     0
 10
55.3311
 20
88.6933
 30
0.0
 11
55.3311
 21
91.7938
 31
0.0
  0
LINE
  8
0
 62
     0
 10
55.3311
 20
91.7938
 30
0.0
 11
54.5317
 21
91.7938
 31
0.0
  0
LINE
  8
0
 62
     0
 10
54.5317
 20
91.7938
 30
0.0
 11
54.5317
 21
92.7929
 31
0.0
  0
LINE
  8
0
 62
     0
 10
54.5317
 20
92.7929
 30
0.0
 11
40.531
 21
92.7929
 31
0.0
  0
LINE
  8
0
 62
     0
 10
21.4809
 20
92.7929
 30
0.0
 11
21.4809
 21
91.7938
 31
0.0
  0
LINE
  8
0
 62
     0
 10
21.4809
 20
91.7938
 30
0.0
 11
20.6816
 21
91.7938
 31
0.0
  0
LINE
  8
0
 62
     0
 10
20.6816
 20
91.7938
 30
0.0
 11
20.6816
 21
88.6933
 31
0.0
  0
LINE
  8
0
 62
     0
 10
20.6816
 20
88.6933
 30
0.0
 11
21.4809
 21
88.6933
 31
0.0
  0
LINE
  8
0
 62
     0
 10
21.4809
 20
88.6933
 30
0.0
 11
21.4809
 21
82.8933
 31
0.0
  0
LINE
  8
0
 62
     0
 10
21.4809
 20
82.8933
 30
0.0
 11
20.6816
 21
82.8933
 31
0.0
  0
LINE
  8
0
 62
     0
 10
20.6816
 20
82.8933
 30
0.0
 11
20.6816
 21
79.7941
 31
0.0
  0
LINE
  8
0
 62
     0
 10
20.6816
 20
79.7941
 30
0.0
 11
21.4809
 21
79.7941
 31
0.0
  0
LINE
  8
0
 62
     0
 10
21.4809
 20
79.7941
 30
0.0
 11
21.4809
 21
78.7936
 31
0.0
  0
LINE
  8
0
 62
     0
 10
21.4809
 20
78.7936
 30
0.0
 11
35.4817
 21
78.7936
 31
0.0
  0
LINE
  8
0
 62
     0
 10
35.4817
 20
78.7936
 30
0.0
 11
35.4817
 21
79.7941
 31
0.0
  0
LINE
  8
0
 62
     0
 10
35.4817
 20
79.7941
 30
0.0
 11
36.2811
 21
79.7941
 31
0.0
  0
LINE
  8
0
 62
     0
 10
36.2811
 20
79.7941
 30
0.0
 11
36.2811
 21
82.8933
 31
0.0
  0
LINE
  8
0
 62
     0
 10
36.2811
 20
82.8933
 30
0.0
 11
35.4817
 21
82.8933
 31
0.0
  0
LINE
  8
0
 62
     0
 10
35.4817
 20
82.8933
 30
0.0
 11
35.4817
 21
88.6933
 31
0.0
  0
LINE
  8
0
 62
     0
 10
35.4817
 20
88.6933
 30
0.0
 11
36.2811
 21
88.6933
 31
0.0
  0
LINE
  8
0
 62
     0
 10
36.2811
 20
88.6933
 30
0.0
 11
36.2811
 21
91.7938
 31
0.0
  0
LINE
  8
0
 62
     0
 10
36.2811
 20
91.7938
 30
0.0
 11
35.4817
 21
91.7938
 31
0.0
  0
LINE
  8
0
 62
     0
 10
35.4817
 20
91.7938
 30
0.0
 11
35.4817
 21
92.7929
 31
0.0
  0
LINE
  8
0
 62
     0
 10
35.4817
 20
92.7929
 30
0.0
 11
21.4809
 21
92.7929
 31
0.0
  0
LINE
  8
0
 62
     0
 10
2.43086
 20
92.7929
 30
0.0
 11
2.43086
 21
91.7938
 31
0.0
  0
LINE
  8
0
 62
     0
 10
2.43086
 20
91.7938
 30
0.0
 11
1.6316
 21
91.7938
 31
0.0
  0
LINE
  8
0
 62
     0
 10
1.6316
 20
91.7938
 30
0.0
 11
1.6316
 21
88.6933
 31
0.0
  0
LINE
  8
0
 62
     0
 10
1.6316
 20
88.6933
 30
0.0
 11
2.43086
 21
88.6933
 31
0.0
  0
LINE
  8
0
 62
     0
 10
2.43086
 20
88.6933
 30
0.0
 11
2.43086
 21
82.8933
 31
0.0
  0
LINE
  8
0
 62
     0
 10
2.43086
 20
82.8933
 30
0.0
 11
1.6316
 21
82.8933
 31
0.0
  0
LINE
  8
0
 62
     0
 10
1.6316
 20
82.8933
 30
0.0
 11
1.6316
 21
79.7941
 31
0.0
  0
LINE
  8
0
 62
     0
 10
1.6316
 20
79.7941
 30
0.0
 11
2.43086
 21
79.7941
 31
0.0
  0
LINE
  8
0
 62
     0
 10
2.43086
 20
79.7941
 30
0.0
 11
2.43086
 21
78.7936
 31
0.0
  0
LINE
  8
0
 62
     0
 10
2.43086
 20
78.7936
 30
0.0
 11
16.4317
 21
78.7936
 31
0.0
  0
LINE
  8
0
 62
     0
 10
16.4317
 20
78.7936
 30
0.0
 11
16.4317
 21
79.7941
 31
0.0
  0
LINE
  8
0
 62
     0
 10
16.4317
 20
79.7941
 30
0.0
 11
17.231
 21
79.7941
 31
0.0
  0
LINE
  8
0
 62
     0
 10
17.231
 20
79.7941
 30
0.0
 11
17.231
 21
82.8933
 31
0.0
  0
LINE
  8
0
 62
     0
 10
17.231
 20
82.8933
 30
0.0
 11
16.4317
 21
82.8933
 31
0.0
  0
LINE
  8
0
 62
     0
 10
16.4317
 20
82.8933
 30
0.0
 11
16.4317
 21
88.6933
 31
0.0
  0
LINE
  8
0
 62
     0
 10
16.4317
 20
88.6933
 30
0.0
 11
17.231
 21
88.6933
 31
0.0
  0
LINE
  8
0
 62
     0
 10
17.231
 20
88.6933
 30
0.0
 11
17.231
 21
91.7938
 31
0.0
  0
LINE
  8
0
 62
     0
 10
17.231
 20
91.7938
 30
0.0
 11
16.4317
 21
91.7938
 31
0.0
  0
LINE
  8
0
 62
     0
 10
16.4317
 20
91.7938
 30
0.0
 11
16.4317
 21
92.7929
 31
0.0
  0
LINE
  8
0
 62
     0
 10
16.4317
 20
92.7929
 30
0.0
 11
2.43086
 21
92.7929
 31
0.0
  0
ENDSEC
  0
EOF
