  0
SECTION
  2
BLOCKS
  0
ENDSEC
  0
SECTION
  2
ENTITIES
  0
LINE
  8
0
 10
355.6
 20
15.875
 11
233.088
 21
38.1
  0
LINE
  8
0
 10
233.088
 20
38.1
 11
233.088
 21
82.55
  0
LINE
  8
0
 10
233.088
 20
82.55
 11
0
 21
82.55
  0
LINE
  8
0
 10
0
 20
82.55
 11
0
 21
58.1747
  0
LINE
  8
0
 10
0
 20
58.1747
 11
78.1747
 21
58.1747
  0
LINE
  8
0
 10
78.1747
 20
58.1747
 11
78.1747
 21
0
  0
LINE
  8
0
 10
78.1747
 20
0
 11
355.6
 21
0
  0
LINE
  8
0
 10
355.6
 20
0
 11
355.6
 21
15.875
  0
LINE
  8
0
 10
165.944
 20
19.0988
 11
165.468
 21
19.2434
  0
LINE
  8
0
 10
165.468
 20
19.2434
 11
165.029
 21
19.4781
  0
LINE
  8
0
 10
165.029
 20
19.4781
 11
164.644
 21
19.794
  0
LINE
  8
0
 10
164.644
 20
19.794
 11
164.328
 21
20.1789
  0
LINE
  8
0
 10
164.328
 20
20.1789
 11
164.093
 21
20.618
  0
LINE
  8
0
 10
164.093
 20
20.618
 11
163.949
 21
21.0945
  0
LINE
  8
0
 10
163.949
 20
21.0945
 11
163.9
 21
21.59
  0
LINE
  8
0
 10
163.9
 20
21.59
 11
163.9
 21
67.31
  0
LINE
  8
0
 10
163.9
 20
67.31
 11
163.949
 21
67.8055
  0
LINE
  8
0
 10
163.949
 20
67.8055
 11
164.093
 21
68.282
  0
LINE
  8
0
 10
164.093
 20
68.282
 11
164.328
 21
68.7211
  0
LINE
  8
0
 10
164.328
 20
68.7211
 11
164.644
 21
69.106
  0
LINE
  8
0
 10
164.644
 20
69.106
 11
165.029
 21
69.4219
  0
LINE
  8
0
 10
165.029
 20
69.4219
 11
165.468
 21
69.6566
  0
LINE
  8
0
 10
165.468
 20
69.6566
 11
165.944
 21
69.8012
  0
LINE
  8
0
 10
165.944
 20
69.8012
 11
166.44
 21
69.85
  0
LINE
  8
0
 10
166.44
 20
69.85
 11
166.936
 21
69.8012
  0
LINE
  8
0
 10
166.936
 20
69.8012
 11
167.412
 21
69.6566
  0
LINE
  8
0
 10
167.412
 20
69.6566
 11
167.851
 21
69.4219
  0
LINE
  8
0
 10
167.851
 20
69.4219
 11
168.236
 21
69.106
  0
LINE
  8
0
 10
168.236
 20
69.106
 11
168.552
 21
68.7211
  0
LINE
  8
0
 10
168.552
 20
68.7211
 11
168.787
 21
68.282
  0
LINE
  8
0
 10
168.787
 20
68.282
 11
168.931
 21
67.8055
  0
LINE
  8
0
 10
168.931
 20
67.8055
 11
168.98
 21
67.31
  0
LINE
  8
0
 10
168.98
 20
67.31
 11
168.98
 21
21.59
  0
LINE
  8
0
 10
168.98
 20
21.59
 11
168.931
 21
21.0945
  0
LINE
  8
0
 10
168.931
 20
21.0945
 11
168.787
 21
20.618
  0
LINE
  8
0
 10
168.787
 20
20.618
 11
168.552
 21
20.1789
  0
LINE
  8
0
 10
168.552
 20
20.1789
 11
168.236
 21
19.794
  0
LINE
  8
0
 10
168.236
 20
19.794
 11
167.851
 21
19.4781
  0
LINE
  8
0
 10
167.851
 20
19.4781
 11
167.412
 21
19.2434
  0
LINE
  8
0
 10
167.412
 20
19.2434
 11
166.936
 21
19.0988
  0
LINE
  8
0
 10
166.936
 20
19.0988
 11
166.44
 21
19.05
  0
LINE
  8
0
 10
166.44
 20
19.05
 11
165.944
 21
19.0988
  0
LINE
  8
0
 10
186.462
 20
69.6566
 11
186.901
 21
69.4219
  0
LINE
  8
0
 10
186.901
 20
69.4219
 11
187.286
 21
69.106
  0
LINE
  8
0
 10
187.286
 20
69.106
 11
187.602
 21
68.7211
  0
LINE
  8
0
 10
187.602
 20
68.7211
 11
187.837
 21
68.282
  0
LINE
  8
0
 10
187.837
 20
68.282
 11
187.981
 21
67.8055
  0
LINE
  8
0
 10
187.981
 20
67.8055
 11
188.03
 21
67.31
  0
LINE
  8
0
 10
188.03
 20
67.31
 11
188.03
 21
21.59
  0
LINE
  8
0
 10
188.03
 20
21.59
 11
187.981
 21
21.0945
  0
LINE
  8
0
 10
187.981
 20
21.0945
 11
187.837
 21
20.618
  0
LINE
  8
0
 10
187.837
 20
20.618
 11
187.602
 21
20.1789
  0
LINE
  8
0
 10
187.602
 20
20.1789
 11
187.286
 21
19.794
  0
LINE
  8
0
 10
187.286
 20
19.794
 11
186.901
 21
19.4781
  0
LINE
  8
0
 10
186.901
 20
19.4781
 11
186.462
 21
19.2434
  0
LINE
  8
0
 10
186.462
 20
19.2434
 11
185.986
 21
19.0988
  0
LINE
  8
0
 10
185.986
 20
19.0988
 11
185.49
 21
19.05
  0
LINE
  8
0
 10
185.49
 20
19.05
 11
184.994
 21
19.0988
  0
LINE
  8
0
 10
184.994
 20
19.0988
 11
184.518
 21
19.2434
  0
LINE
  8
0
 10
184.518
 20
19.2434
 11
184.079
 21
19.4781
  0
LINE
  8
0
 10
184.079
 20
19.4781
 11
183.694
 21
19.794
  0
LINE
  8
0
 10
183.694
 20
19.794
 11
183.378
 21
20.1789
  0
LINE
  8
0
 10
183.378
 20
20.1789
 11
183.143
 21
20.618
  0
LINE
  8
0
 10
183.143
 20
20.618
 11
182.999
 21
21.0945
  0
LINE
  8
0
 10
182.999
 20
21.0945
 11
182.95
 21
21.59
  0
LINE
  8
0
 10
182.95
 20
21.59
 11
182.95
 21
67.31
  0
LINE
  8
0
 10
182.95
 20
67.31
 11
182.999
 21
67.8055
  0
LINE
  8
0
 10
182.999
 20
67.8055
 11
183.143
 21
68.282
  0
LINE
  8
0
 10
183.143
 20
68.282
 11
183.378
 21
68.7211
  0
LINE
  8
0
 10
183.378
 20
68.7211
 11
183.694
 21
69.106
  0
LINE
  8
0
 10
183.694
 20
69.106
 11
184.079
 21
69.4219
  0
LINE
  8
0
 10
184.079
 20
69.4219
 11
184.518
 21
69.6566
  0
LINE
  8
0
 10
184.518
 20
69.6566
 11
184.994
 21
69.8012
  0
LINE
  8
0
 10
184.994
 20
69.8012
 11
185.49
 21
69.85
  0
LINE
  8
0
 10
185.49
 20
69.85
 11
185.986
 21
69.8012
  0
LINE
  8
0
 10
185.986
 20
69.8012
 11
186.462
 21
69.6566
  0
LINE
  8
0
 10
89.7445
 20
19.0988
 11
89.268
 21
19.2434
  0
LINE
  8
0
 10
89.268
 20
19.2434
 11
88.8289
 21
19.4781
  0
LINE
  8
0
 10
88.8289
 20
19.4781
 11
88.444
 21
19.794
  0
LINE
  8
0
 10
88.444
 20
19.794
 11
88.1281
 21
20.1789
  0
LINE
  8
0
 10
88.1281
 20
20.1789
 11
87.8934
 21
20.618
  0
LINE
  8
0
 10
87.8934
 20
20.618
 11
87.7488
 21
21.0945
  0
LINE
  8
0
 10
87.7488
 20
21.0945
 11
87.7
 21
21.59
  0
LINE
  8
0
 10
87.7
 20
21.59
 11
87.7
 21
67.31
  0
LINE
  8
0
 10
87.7
 20
67.31
 11
87.7488
 21
67.8055
  0
LINE
  8
0
 10
87.7488
 20
67.8055
 11
87.8934
 21
68.282
  0
LINE
  8
0
 10
87.8934
 20
68.282
 11
88.1281
 21
68.7211
  0
LINE
  8
0
 10
88.1281
 20
68.7211
 11
88.444
 21
69.106
  0
LINE
  8
0
 10
88.444
 20
69.106
 11
88.8289
 21
69.4219
  0
LINE
  8
0
 10
88.8289
 20
69.4219
 11
89.268
 21
69.6566
  0
LINE
  8
0
 10
89.268
 20
69.6566
 11
89.7445
 21
69.8012
  0
LINE
  8
0
 10
89.7445
 20
69.8012
 11
90.24
 21
69.85
  0
LINE
  8
0
 10
90.24
 20
69.85
 11
90.7355
 21
69.8012
  0
LINE
  8
0
 10
90.7355
 20
69.8012
 11
91.212
 21
69.6566
  0
LINE
  8
0
 10
91.212
 20
69.6566
 11
91.6511
 21
69.4219
  0
LINE
  8
0
 10
91.6511
 20
69.4219
 11
92.036
 21
69.106
  0
LINE
  8
0
 10
92.036
 20
69.106
 11
92.3519
 21
68.7211
  0
LINE
  8
0
 10
92.3519
 20
68.7211
 11
92.5866
 21
68.282
  0
LINE
  8
0
 10
92.5866
 20
68.282
 11
92.7312
 21
67.8055
  0
LINE
  8
0
 10
92.7312
 20
67.8055
 11
92.78
 21
67.31
  0
LINE
  8
0
 10
92.78
 20
67.31
 11
92.78
 21
21.59
  0
LINE
  8
0
 10
92.78
 20
21.59
 11
92.7312
 21
21.0945
  0
LINE
  8
0
 10
92.7312
 20
21.0945
 11
92.5866
 21
20.618
  0
LINE
  8
0
 10
92.5866
 20
20.618
 11
92.3519
 21
20.1789
  0
LINE
  8
0
 10
92.3519
 20
20.1789
 11
92.036
 21
19.794
  0
LINE
  8
0
 10
92.036
 20
19.794
 11
91.6511
 21
19.4781
  0
LINE
  8
0
 10
91.6511
 20
19.4781
 11
91.212
 21
19.2434
  0
LINE
  8
0
 10
91.212
 20
19.2434
 11
90.7355
 21
19.0988
  0
LINE
  8
0
 10
90.7355
 20
19.0988
 11
90.24
 21
19.05
  0
LINE
  8
0
 10
90.24
 20
19.05
 11
89.7445
 21
19.0988
  0
LINE
  8
0
 10
108.794
 20
19.0988
 11
108.318
 21
19.2434
  0
LINE
  8
0
 10
108.318
 20
19.2434
 11
107.879
 21
19.4781
  0
LINE
  8
0
 10
107.879
 20
19.4781
 11
107.494
 21
19.794
  0
LINE
  8
0
 10
107.494
 20
19.794
 11
107.178
 21
20.1789
  0
LINE
  8
0
 10
107.178
 20
20.1789
 11
106.943
 21
20.618
  0
LINE
  8
0
 10
106.943
 20
20.618
 11
106.799
 21
21.0945
  0
LINE
  8
0
 10
106.799
 20
21.0945
 11
106.75
 21
21.59
  0
LINE
  8
0
 10
106.75
 20
21.59
 11
106.75
 21
67.31
  0
LINE
  8
0
 10
106.75
 20
67.31
 11
106.799
 21
67.8055
  0
LINE
  8
0
 10
106.799
 20
67.8055
 11
106.943
 21
68.282
  0
LINE
  8
0
 10
106.943
 20
68.282
 11
107.178
 21
68.7211
  0
LINE
  8
0
 10
107.178
 20
68.7211
 11
107.494
 21
69.106
  0
LINE
  8
0
 10
107.494
 20
69.106
 11
107.879
 21
69.4219
  0
LINE
  8
0
 10
107.879
 20
69.4219
 11
108.318
 21
69.6566
  0
LINE
  8
0
 10
108.318
 20
69.6566
 11
108.794
 21
69.8012
  0
LINE
  8
0
 10
108.794
 20
69.8012
 11
109.29
 21
69.85
  0
LINE
  8
0
 10
109.29
 20
69.85
 11
109.786
 21
69.8012
  0
LINE
  8
0
 10
109.786
 20
69.8012
 11
110.262
 21
69.6566
  0
LINE
  8
0
 10
110.262
 20
69.6566
 11
110.701
 21
69.4219
  0
LINE
  8
0
 10
110.701
 20
69.4219
 11
111.086
 21
69.106
  0
LINE
  8
0
 10
111.086
 20
69.106
 11
111.402
 21
68.7211
  0
LINE
  8
0
 10
111.402
 20
68.7211
 11
111.637
 21
68.282
  0
LINE
  8
0
 10
111.637
 20
68.282
 11
111.781
 21
67.8055
  0
LINE
  8
0
 10
111.781
 20
67.8055
 11
111.83
 21
67.31
  0
LINE
  8
0
 10
111.83
 20
67.31
 11
111.83
 21
21.59
  0
LINE
  8
0
 10
111.83
 20
21.59
 11
111.781
 21
21.0945
  0
LINE
  8
0
 10
111.781
 20
21.0945
 11
111.637
 21
20.618
  0
LINE
  8
0
 10
111.637
 20
20.618
 11
111.402
 21
20.1789
  0
LINE
  8
0
 10
111.402
 20
20.1789
 11
111.086
 21
19.794
  0
LINE
  8
0
 10
111.086
 20
19.794
 11
110.701
 21
19.4781
  0
LINE
  8
0
 10
110.701
 20
19.4781
 11
110.262
 21
19.2434
  0
LINE
  8
0
 10
110.262
 20
19.2434
 11
109.786
 21
19.0988
  0
LINE
  8
0
 10
109.786
 20
19.0988
 11
109.29
 21
19.05
  0
LINE
  8
0
 10
109.29
 20
19.05
 11
108.794
 21
19.0988
  0
LINE
  8
0
 10
127.844
 20
19.0988
 11
127.368
 21
19.2434
  0
LINE
  8
0
 10
127.368
 20
19.2434
 11
126.929
 21
19.4781
  0
LINE
  8
0
 10
126.929
 20
19.4781
 11
126.544
 21
19.794
  0
LINE
  8
0
 10
126.544
 20
19.794
 11
126.228
 21
20.1789
  0
LINE
  8
0
 10
126.228
 20
20.1789
 11
125.993
 21
20.618
  0
LINE
  8
0
 10
125.993
 20
20.618
 11
125.849
 21
21.0945
  0
LINE
  8
0
 10
125.849
 20
21.0945
 11
125.8
 21
21.59
  0
LINE
  8
0
 10
125.8
 20
21.59
 11
125.8
 21
67.31
  0
LINE
  8
0
 10
125.8
 20
67.31
 11
125.849
 21
67.8055
  0
LINE
  8
0
 10
125.849
 20
67.8055
 11
125.993
 21
68.282
  0
LINE
  8
0
 10
125.993
 20
68.282
 11
126.228
 21
68.7211
  0
LINE
  8
0
 10
126.228
 20
68.7211
 11
126.544
 21
69.106
  0
LINE
  8
0
 10
126.544
 20
69.106
 11
126.929
 21
69.4219
  0
LINE
  8
0
 10
126.929
 20
69.4219
 11
127.368
 21
69.6566
  0
LINE
  8
0
 10
127.368
 20
69.6566
 11
127.844
 21
69.8012
  0
LINE
  8
0
 10
127.844
 20
69.8012
 11
128.34
 21
69.85
  0
LINE
  8
0
 10
128.34
 20
69.85
 11
128.836
 21
69.8012
  0
LINE
  8
0
 10
128.836
 20
69.8012
 11
129.312
 21
69.6566
  0
LINE
  8
0
 10
129.312
 20
69.6566
 11
129.751
 21
69.4219
  0
LINE
  8
0
 10
129.751
 20
69.4219
 11
130.136
 21
69.106
  0
LINE
  8
0
 10
130.136
 20
69.106
 11
130.452
 21
68.7211
  0
LINE
  8
0
 10
130.452
 20
68.7211
 11
130.687
 21
68.282
  0
LINE
  8
0
 10
130.687
 20
68.282
 11
130.831
 21
67.8055
  0
LINE
  8
0
 10
130.831
 20
67.8055
 11
130.88
 21
67.31
  0
LINE
  8
0
 10
130.88
 20
67.31
 11
130.88
 21
21.59
  0
LINE
  8
0
 10
130.88
 20
21.59
 11
130.831
 21
21.0945
  0
LINE
  8
0
 10
130.831
 20
21.0945
 11
130.687
 21
20.618
  0
LINE
  8
0
 10
130.687
 20
20.618
 11
130.452
 21
20.1789
  0
LINE
  8
0
 10
130.452
 20
20.1789
 11
130.136
 21
19.794
  0
LINE
  8
0
 10
130.136
 20
19.794
 11
129.751
 21
19.4781
  0
LINE
  8
0
 10
129.751
 20
19.4781
 11
129.312
 21
19.2434
  0
LINE
  8
0
 10
129.312
 20
19.2434
 11
128.836
 21
19.0988
  0
LINE
  8
0
 10
128.836
 20
19.0988
 11
128.34
 21
19.05
  0
LINE
  8
0
 10
128.34
 20
19.05
 11
127.844
 21
19.0988
  0
LINE
  8
0
 10
223.094
 20
19.0988
 11
222.618
 21
19.2434
  0
LINE
  8
0
 10
222.618
 20
19.2434
 11
222.179
 21
19.4781
  0
LINE
  8
0
 10
222.179
 20
19.4781
 11
221.794
 21
19.794
  0
LINE
  8
0
 10
221.794
 20
19.794
 11
221.478
 21
20.1789
  0
LINE
  8
0
 10
221.478
 20
20.1789
 11
221.243
 21
20.618
  0
LINE
  8
0
 10
221.243
 20
20.618
 11
221.099
 21
21.0945
  0
LINE
  8
0
 10
221.099
 20
21.0945
 11
221.05
 21
21.59
  0
LINE
  8
0
 10
221.05
 20
21.59
 11
221.05
 21
67.31
  0
LINE
  8
0
 10
221.05
 20
67.31
 11
221.099
 21
67.8055
  0
LINE
  8
0
 10
221.099
 20
67.8055
 11
221.243
 21
68.282
  0
LINE
  8
0
 10
221.243
 20
68.282
 11
221.478
 21
68.7211
  0
LINE
  8
0
 10
221.478
 20
68.7211
 11
221.794
 21
69.106
  0
LINE
  8
0
 10
221.794
 20
69.106
 11
222.179
 21
69.4219
  0
LINE
  8
0
 10
222.179
 20
69.4219
 11
222.618
 21
69.6566
  0
LINE
  8
0
 10
222.618
 20
69.6566
 11
223.094
 21
69.8012
  0
LINE
  8
0
 10
223.094
 20
69.8012
 11
223.59
 21
69.85
  0
LINE
  8
0
 10
223.59
 20
69.85
 11
224.086
 21
69.8012
  0
LINE
  8
0
 10
224.086
 20
69.8012
 11
224.562
 21
69.6566
  0
LINE
  8
0
 10
224.562
 20
69.6566
 11
225.001
 21
69.4219
  0
LINE
  8
0
 10
225.001
 20
69.4219
 11
225.386
 21
69.106
  0
LINE
  8
0
 10
225.386
 20
69.106
 11
225.702
 21
68.7211
  0
LINE
  8
0
 10
225.702
 20
68.7211
 11
225.937
 21
68.282
  0
LINE
  8
0
 10
225.937
 20
68.282
 11
226.081
 21
67.8055
  0
LINE
  8
0
 10
226.081
 20
67.8055
 11
226.13
 21
67.31
  0
LINE
  8
0
 10
226.13
 20
67.31
 11
226.13
 21
21.59
  0
LINE
  8
0
 10
226.13
 20
21.59
 11
226.081
 21
21.0945
  0
LINE
  8
0
 10
226.081
 20
21.0945
 11
225.937
 21
20.618
  0
LINE
  8
0
 10
225.937
 20
20.618
 11
225.702
 21
20.1789
  0
LINE
  8
0
 10
225.702
 20
20.1789
 11
225.386
 21
19.794
  0
LINE
  8
0
 10
225.386
 20
19.794
 11
225.001
 21
19.4781
  0
LINE
  8
0
 10
225.001
 20
19.4781
 11
224.562
 21
19.2434
  0
LINE
  8
0
 10
224.562
 20
19.2434
 11
224.086
 21
19.0988
  0
LINE
  8
0
 10
224.086
 20
19.0988
 11
223.59
 21
19.05
  0
LINE
  8
0
 10
223.59
 20
19.05
 11
223.094
 21
19.0988
  0
LINE
  8
0
 10
146.894
 20
19.0988
 11
146.418
 21
19.2434
  0
LINE
  8
0
 10
146.418
 20
19.2434
 11
145.979
 21
19.4781
  0
LINE
  8
0
 10
145.979
 20
19.4781
 11
145.594
 21
19.794
  0
LINE
  8
0
 10
145.594
 20
19.794
 11
145.278
 21
20.1789
  0
LINE
  8
0
 10
145.278
 20
20.1789
 11
145.043
 21
20.618
  0
LINE
  8
0
 10
145.043
 20
20.618
 11
144.899
 21
21.0945
  0
LINE
  8
0
 10
144.899
 20
21.0945
 11
144.85
 21
21.59
  0
LINE
  8
0
 10
144.85
 20
21.59
 11
144.85
 21
67.31
  0
LINE
  8
0
 10
144.85
 20
67.31
 11
144.899
 21
67.8055
  0
LINE
  8
0
 10
144.899
 20
67.8055
 11
145.043
 21
68.282
  0
LINE
  8
0
 10
145.043
 20
68.282
 11
145.278
 21
68.7211
  0
LINE
  8
0
 10
145.278
 20
68.7211
 11
145.594
 21
69.106
  0
LINE
  8
0
 10
145.594
 20
69.106
 11
145.979
 21
69.4219
  0
LINE
  8
0
 10
145.979
 20
69.4219
 11
146.418
 21
69.6566
  0
LINE
  8
0
 10
146.418
 20
69.6566
 11
146.894
 21
69.8012
  0
LINE
  8
0
 10
146.894
 20
69.8012
 11
147.39
 21
69.85
  0
LINE
  8
0
 10
147.39
 20
69.85
 11
147.886
 21
69.8012
  0
LINE
  8
0
 10
147.886
 20
69.8012
 11
148.362
 21
69.6566
  0
LINE
  8
0
 10
148.362
 20
69.6566
 11
148.801
 21
69.4219
  0
LINE
  8
0
 10
148.801
 20
69.4219
 11
149.186
 21
69.106
  0
LINE
  8
0
 10
149.186
 20
69.106
 11
149.502
 21
68.7211
  0
LINE
  8
0
 10
149.502
 20
68.7211
 11
149.737
 21
68.282
  0
LINE
  8
0
 10
149.737
 20
68.282
 11
149.881
 21
67.8055
  0
LINE
  8
0
 10
149.881
 20
67.8055
 11
149.93
 21
67.31
  0
LINE
  8
0
 10
149.93
 20
67.31
 11
149.93
 21
21.59
  0
LINE
  8
0
 10
149.93
 20
21.59
 11
149.881
 21
21.0945
  0
LINE
  8
0
 10
149.881
 20
21.0945
 11
149.737
 21
20.618
  0
LINE
  8
0
 10
149.737
 20
20.618
 11
149.502
 21
20.1789
  0
LINE
  8
0
 10
149.502
 20
20.1789
 11
149.186
 21
19.794
  0
LINE
  8
0
 10
149.186
 20
19.794
 11
148.801
 21
19.4781
  0
LINE
  8
0
 10
148.801
 20
19.4781
 11
148.362
 21
19.2434
  0
LINE
  8
0
 10
148.362
 20
19.2434
 11
147.886
 21
19.0988
  0
LINE
  8
0
 10
147.886
 20
19.0988
 11
147.39
 21
19.05
  0
LINE
  8
0
 10
147.39
 20
19.05
 11
146.894
 21
19.0988
  0
LINE
  8
0
 10
204.044
 20
19.0988
 11
203.568
 21
19.2434
  0
LINE
  8
0
 10
203.568
 20
19.2434
 11
203.129
 21
19.4781
  0
LINE
  8
0
 10
203.129
 20
19.4781
 11
202.744
 21
19.794
  0
LINE
  8
0
 10
202.744
 20
19.794
 11
202.428
 21
20.1789
  0
LINE
  8
0
 10
202.428
 20
20.1789
 11
202.193
 21
20.618
  0
LINE
  8
0
 10
202.193
 20
20.618
 11
202.049
 21
21.0945
  0
LINE
  8
0
 10
202.049
 20
21.0945
 11
202
 21
21.59
  0
LINE
  8
0
 10
202
 20
21.59
 11
202
 21
67.31
  0
LINE
  8
0
 10
202
 20
67.31
 11
202.049
 21
67.8055
  0
LINE
  8
0
 10
202.049
 20
67.8055
 11
202.193
 21
68.282
  0
LINE
  8
0
 10
202.193
 20
68.282
 11
202.428
 21
68.7211
  0
LINE
  8
0
 10
202.428
 20
68.7211
 11
202.744
 21
69.106
  0
LINE
  8
0
 10
202.744
 20
69.106
 11
203.129
 21
69.4219
  0
LINE
  8
0
 10
203.129
 20
69.4219
 11
203.568
 21
69.6566
  0
LINE
  8
0
 10
203.568
 20
69.6566
 11
204.044
 21
69.8012
  0
LINE
  8
0
 10
204.044
 20
69.8012
 11
204.54
 21
69.85
  0
LINE
  8
0
 10
204.54
 20
69.85
 11
205.036
 21
69.8012
  0
LINE
  8
0
 10
205.036
 20
69.8012
 11
205.512
 21
69.6566
  0
LINE
  8
0
 10
205.512
 20
69.6566
 11
205.951
 21
69.4219
  0
LINE
  8
0
 10
205.951
 20
69.4219
 11
206.336
 21
69.106
  0
LINE
  8
0
 10
206.336
 20
69.106
 11
206.652
 21
68.7211
  0
LINE
  8
0
 10
206.652
 20
68.7211
 11
206.887
 21
68.282
  0
LINE
  8
0
 10
206.887
 20
68.282
 11
207.031
 21
67.8055
  0
LINE
  8
0
 10
207.031
 20
67.8055
 11
207.08
 21
67.31
  0
LINE
  8
0
 10
207.08
 20
67.31
 11
207.08
 21
21.59
  0
LINE
  8
0
 10
207.08
 20
21.59
 11
207.031
 21
21.0945
  0
LINE
  8
0
 10
207.031
 20
21.0945
 11
206.887
 21
20.618
  0
LINE
  8
0
 10
206.887
 20
20.618
 11
206.652
 21
20.1789
  0
LINE
  8
0
 10
206.652
 20
20.1789
 11
206.336
 21
19.794
  0
LINE
  8
0
 10
206.336
 20
19.794
 11
205.951
 21
19.4781
  0
LINE
  8
0
 10
205.951
 20
19.4781
 11
205.512
 21
19.2434
  0
LINE
  8
0
 10
205.512
 20
19.2434
 11
205.036
 21
19.0988
  0
LINE
  8
0
 10
205.036
 20
19.0988
 11
204.54
 21
19.05
  0
LINE
  8
0
 10
204.54
 20
19.05
 11
204.044
 21
19.0988
  0
ENDSEC
  0
SECTION
  2
OBJECTS
  0
DICTIONARY
  0
ENDSEC
  0
EOF
