  0
SECTION
  2
BLOCKS
  0
ENDSEC
  0
SECTION
  2
ENTITIES
  0
LINE
  8
0
 10
320.675
 20
233.089
 11
0
 21
233.089
  0
LINE
  8
0
 10
0
 20
233.089
 11
0
 21
0
  0
LINE
  8
0
 10
0
 20
0
 11
320.675
 21
0
  0
LINE
  8
0
 10
320.675
 20
0
 11
320.675
 21
233.089
  0
LINE
  8
0
 10
292.342
 20
175.84
 11
292.635
 21
176.389
  0
LINE
  8
0
 10
292.635
 20
176.389
 11
293.03
 21
176.87
  0
LINE
  8
0
 10
293.03
 20
176.87
 11
293.511
 21
177.265
  0
LINE
  8
0
 10
293.511
 20
177.265
 11
294.06
 21
177.558
  0
LINE
  8
0
 10
294.06
 20
177.558
 11
294.656
 21
177.739
  0
LINE
  8
0
 10
294.656
 20
177.739
 11
295.275
 21
177.8
  0
LINE
  8
0
 10
295.275
 20
177.8
 11
295.894
 21
177.739
  0
LINE
  8
0
 10
295.894
 20
177.739
 11
296.49
 21
177.558
  0
LINE
  8
0
 10
296.49
 20
177.558
 11
297.039
 21
177.265
  0
LINE
  8
0
 10
297.039
 20
177.265
 11
297.52
 21
176.87
  0
LINE
  8
0
 10
297.52
 20
176.87
 11
297.915
 21
176.389
  0
LINE
  8
0
 10
297.915
 20
176.389
 11
298.208
 21
175.84
  0
LINE
  8
0
 10
298.208
 20
175.84
 11
298.389
 21
175.244
  0
LINE
  8
0
 10
298.389
 20
175.244
 11
298.45
 21
174.625
  0
LINE
  8
0
 10
298.45
 20
174.625
 11
298.45
 21
53.975
  0
LINE
  8
0
 10
298.45
 20
53.975
 11
298.389
 21
53.3556
  0
LINE
  8
0
 10
298.389
 20
53.3556
 11
298.208
 21
52.76
  0
LINE
  8
0
 10
298.208
 20
52.76
 11
297.915
 21
52.2111
  0
LINE
  8
0
 10
297.915
 20
52.2111
 11
297.52
 21
51.7299
  0
LINE
  8
0
 10
297.52
 20
51.7299
 11
297.039
 21
51.3351
  0
LINE
  8
0
 10
297.039
 20
51.3351
 11
296.49
 21
51.0417
  0
LINE
  8
0
 10
296.49
 20
51.0417
 11
295.894
 21
50.861
  0
LINE
  8
0
 10
295.894
 20
50.861
 11
295.275
 21
50.8
  0
LINE
  8
0
 10
295.275
 20
50.8
 11
294.656
 21
50.861
  0
LINE
  8
0
 10
294.656
 20
50.861
 11
294.06
 21
51.0417
  0
LINE
  8
0
 10
294.06
 20
51.0417
 11
293.511
 21
51.3351
  0
LINE
  8
0
 10
293.511
 20
51.3351
 11
293.03
 21
51.7299
  0
LINE
  8
0
 10
293.03
 20
51.7299
 11
292.635
 21
52.2111
  0
LINE
  8
0
 10
292.635
 20
52.2111
 11
292.342
 21
52.76
  0
LINE
  8
0
 10
292.342
 20
52.76
 11
292.161
 21
53.3556
  0
LINE
  8
0
 10
292.161
 20
53.3556
 11
292.1
 21
53.975
  0
LINE
  8
0
 10
292.1
 20
53.975
 11
292.1
 21
174.625
  0
LINE
  8
0
 10
292.1
 20
174.625
 11
292.161
 21
175.244
  0
LINE
  8
0
 10
292.161
 20
175.244
 11
292.342
 21
175.84
  0
LINE
  8
0
 10
15.2556
 20
50.861
 11
14.66
 21
51.0417
  0
LINE
  8
0
 10
14.66
 20
51.0417
 11
14.1111
 21
51.3351
  0
LINE
  8
0
 10
14.1111
 20
51.3351
 11
13.6299
 21
51.7299
  0
LINE
  8
0
 10
13.6299
 20
51.7299
 11
13.2351
 21
52.2111
  0
LINE
  8
0
 10
13.2351
 20
52.2111
 11
12.9417
 21
52.76
  0
LINE
  8
0
 10
12.9417
 20
52.76
 11
12.761
 21
53.3556
  0
LINE
  8
0
 10
12.761
 20
53.3556
 11
12.7
 21
53.975
  0
LINE
  8
0
 10
12.7
 20
53.975
 11
12.7
 21
174.625
  0
LINE
  8
0
 10
12.7
 20
174.625
 11
12.761
 21
175.244
  0
LINE
  8
0
 10
12.761
 20
175.244
 11
12.9417
 21
175.84
  0
LINE
  8
0
 10
12.9417
 20
175.84
 11
13.2351
 21
176.389
  0
LINE
  8
0
 10
13.2351
 20
176.389
 11
13.6299
 21
176.87
  0
LINE
  8
0
 10
13.6299
 20
176.87
 11
14.1111
 21
177.265
  0
LINE
  8
0
 10
14.1111
 20
177.265
 11
14.66
 21
177.558
  0
LINE
  8
0
 10
14.66
 20
177.558
 11
15.2556
 21
177.739
  0
LINE
  8
0
 10
15.2556
 20
177.739
 11
15.875
 21
177.8
  0
LINE
  8
0
 10
15.875
 20
177.8
 11
16.4944
 21
177.739
  0
LINE
  8
0
 10
16.4944
 20
177.739
 11
17.09
 21
177.558
  0
LINE
  8
0
 10
17.09
 20
177.558
 11
17.6389
 21
177.265
  0
LINE
  8
0
 10
17.6389
 20
177.265
 11
18.12
 21
176.87
  0
LINE
  8
0
 10
18.12
 20
176.87
 11
18.5149
 21
176.389
  0
LINE
  8
0
 10
18.5149
 20
176.389
 11
18.8083
 21
175.84
  0
LINE
  8
0
 10
18.8083
 20
175.84
 11
18.989
 21
175.244
  0
LINE
  8
0
 10
18.989
 20
175.244
 11
19.05
 21
174.625
  0
LINE
  8
0
 10
19.05
 20
174.625
 11
19.05
 21
53.975
  0
LINE
  8
0
 10
19.05
 20
53.975
 11
18.989
 21
53.3556
  0
LINE
  8
0
 10
18.989
 20
53.3556
 11
18.8083
 21
52.76
  0
LINE
  8
0
 10
18.8083
 20
52.76
 11
18.5149
 21
52.2111
  0
LINE
  8
0
 10
18.5149
 20
52.2111
 11
18.12
 21
51.7299
  0
LINE
  8
0
 10
18.12
 20
51.7299
 11
17.6389
 21
51.3351
  0
LINE
  8
0
 10
17.6389
 20
51.3351
 11
17.09
 21
51.0417
  0
LINE
  8
0
 10
17.09
 20
51.0417
 11
16.4944
 21
50.861
  0
LINE
  8
0
 10
16.4944
 20
50.861
 11
15.875
 21
50.8
  0
LINE
  8
0
 10
15.875
 20
50.8
 11
15.2556
 21
50.861
  0
LINE
  8
0
 10
40.6556
 20
50.861
 11
40.06
 21
51.0417
  0
LINE
  8
0
 10
40.06
 20
51.0417
 11
39.5111
 21
51.3351
  0
LINE
  8
0
 10
39.5111
 20
51.3351
 11
39.03
 21
51.7299
  0
LINE
  8
0
 10
39.03
 20
51.7299
 11
38.6351
 21
52.2111
  0
LINE
  8
0
 10
38.6351
 20
52.2111
 11
38.3417
 21
52.76
  0
LINE
  8
0
 10
38.3417
 20
52.76
 11
38.161
 21
53.3556
  0
LINE
  8
0
 10
38.161
 20
53.3556
 11
38.1
 21
53.975
  0
LINE
  8
0
 10
38.1
 20
53.975
 11
38.1
 21
174.625
  0
LINE
  8
0
 10
38.1
 20
174.625
 11
38.161
 21
175.244
  0
LINE
  8
0
 10
38.161
 20
175.244
 11
38.3417
 21
175.84
  0
LINE
  8
0
 10
38.3417
 20
175.84
 11
38.6351
 21
176.389
  0
LINE
  8
0
 10
38.6351
 20
176.389
 11
39.03
 21
176.87
  0
LINE
  8
0
 10
39.03
 20
176.87
 11
39.5111
 21
177.265
  0
LINE
  8
0
 10
39.5111
 20
177.265
 11
40.06
 21
177.558
  0
LINE
  8
0
 10
40.06
 20
177.558
 11
40.6556
 21
177.739
  0
LINE
  8
0
 10
40.6556
 20
177.739
 11
41.275
 21
177.8
  0
LINE
  8
0
 10
41.275
 20
177.8
 11
41.8944
 21
177.739
  0
LINE
  8
0
 10
41.8944
 20
177.739
 11
42.49
 21
177.558
  0
LINE
  8
0
 10
42.49
 20
177.558
 11
43.0389
 21
177.265
  0
LINE
  8
0
 10
43.0389
 20
177.265
 11
43.52
 21
176.87
  0
LINE
  8
0
 10
43.52
 20
176.87
 11
43.9149
 21
176.389
  0
LINE
  8
0
 10
43.9149
 20
176.389
 11
44.2083
 21
175.84
  0
LINE
  8
0
 10
44.2083
 20
175.84
 11
44.389
 21
175.244
  0
LINE
  8
0
 10
44.389
 20
175.244
 11
44.45
 21
174.625
  0
LINE
  8
0
 10
44.45
 20
174.625
 11
44.45
 21
53.975
  0
LINE
  8
0
 10
44.45
 20
53.975
 11
44.389
 21
53.3556
  0
LINE
  8
0
 10
44.389
 20
53.3556
 11
44.2083
 21
52.76
  0
LINE
  8
0
 10
44.2083
 20
52.76
 11
43.9149
 21
52.2111
  0
LINE
  8
0
 10
43.9149
 20
52.2111
 11
43.52
 21
51.7299
  0
LINE
  8
0
 10
43.52
 20
51.7299
 11
43.0389
 21
51.3351
  0
LINE
  8
0
 10
43.0389
 20
51.3351
 11
42.49
 21
51.0417
  0
LINE
  8
0
 10
42.49
 20
51.0417
 11
41.8944
 21
50.861
  0
LINE
  8
0
 10
41.8944
 20
50.861
 11
41.275
 21
50.8
  0
LINE
  8
0
 10
41.275
 20
50.8
 11
40.6556
 21
50.861
  0
LINE
  8
0
 10
66.0556
 20
50.861
 11
65.46
 21
51.0417
  0
LINE
  8
0
 10
65.46
 20
51.0417
 11
64.9111
 21
51.3351
  0
LINE
  8
0
 10
64.9111
 20
51.3351
 11
64.4299
 21
51.7299
  0
LINE
  8
0
 10
64.4299
 20
51.7299
 11
64.0351
 21
52.2111
  0
LINE
  8
0
 10
64.0351
 20
52.2111
 11
63.7417
 21
52.76
  0
LINE
  8
0
 10
63.7417
 20
52.76
 11
63.561
 21
53.3556
  0
LINE
  8
0
 10
63.561
 20
53.3556
 11
63.5
 21
53.975
  0
LINE
  8
0
 10
63.5
 20
53.975
 11
63.5
 21
174.625
  0
LINE
  8
0
 10
63.5
 20
174.625
 11
63.561
 21
175.244
  0
LINE
  8
0
 10
63.561
 20
175.244
 11
63.7417
 21
175.84
  0
LINE
  8
0
 10
63.7417
 20
175.84
 11
64.0351
 21
176.389
  0
LINE
  8
0
 10
64.0351
 20
176.389
 11
64.4299
 21
176.87
  0
LINE
  8
0
 10
64.4299
 20
176.87
 11
64.9111
 21
177.265
  0
LINE
  8
0
 10
64.9111
 20
177.265
 11
65.46
 21
177.558
  0
LINE
  8
0
 10
65.46
 20
177.558
 11
66.0556
 21
177.739
  0
LINE
  8
0
 10
66.0556
 20
177.739
 11
66.675
 21
177.8
  0
LINE
  8
0
 10
66.675
 20
177.8
 11
67.2944
 21
177.739
  0
LINE
  8
0
 10
67.2944
 20
177.739
 11
67.89
 21
177.558
  0
LINE
  8
0
 10
67.89
 20
177.558
 11
68.4389
 21
177.265
  0
LINE
  8
0
 10
68.4389
 20
177.265
 11
68.92
 21
176.87
  0
LINE
  8
0
 10
68.92
 20
176.87
 11
69.3149
 21
176.389
  0
LINE
  8
0
 10
69.3149
 20
176.389
 11
69.6083
 21
175.84
  0
LINE
  8
0
 10
69.6083
 20
175.84
 11
69.789
 21
175.244
  0
LINE
  8
0
 10
69.789
 20
175.244
 11
69.85
 21
174.625
  0
LINE
  8
0
 10
69.85
 20
174.625
 11
69.85
 21
53.975
  0
LINE
  8
0
 10
69.85
 20
53.975
 11
69.789
 21
53.3556
  0
LINE
  8
0
 10
69.789
 20
53.3556
 11
69.6083
 21
52.76
  0
LINE
  8
0
 10
69.6083
 20
52.76
 11
69.3149
 21
52.2111
  0
LINE
  8
0
 10
69.3149
 20
52.2111
 11
68.92
 21
51.7299
  0
LINE
  8
0
 10
68.92
 20
51.7299
 11
68.4389
 21
51.3351
  0
LINE
  8
0
 10
68.4389
 20
51.3351
 11
67.89
 21
51.0417
  0
LINE
  8
0
 10
67.89
 20
51.0417
 11
67.2944
 21
50.861
  0
LINE
  8
0
 10
67.2944
 20
50.861
 11
66.675
 21
50.8
  0
LINE
  8
0
 10
66.675
 20
50.8
 11
66.0556
 21
50.861
  0
LINE
  8
0
 10
91.4556
 20
50.861
 11
90.86
 21
51.0417
  0
LINE
  8
0
 10
90.86
 20
51.0417
 11
90.3111
 21
51.3351
  0
LINE
  8
0
 10
90.3111
 20
51.3351
 11
89.83
 21
51.7299
  0
LINE
  8
0
 10
89.83
 20
51.7299
 11
89.4351
 21
52.2111
  0
LINE
  8
0
 10
89.4351
 20
52.2111
 11
89.1417
 21
52.76
  0
LINE
  8
0
 10
89.1417
 20
52.76
 11
88.961
 21
53.3556
  0
LINE
  8
0
 10
88.961
 20
53.3556
 11
88.9
 21
53.975
  0
LINE
  8
0
 10
88.9
 20
53.975
 11
88.9
 21
174.625
  0
LINE
  8
0
 10
88.9
 20
174.625
 11
88.961
 21
175.244
  0
LINE
  8
0
 10
88.961
 20
175.244
 11
89.1417
 21
175.84
  0
LINE
  8
0
 10
89.1417
 20
175.84
 11
89.4351
 21
176.389
  0
LINE
  8
0
 10
89.4351
 20
176.389
 11
89.83
 21
176.87
  0
LINE
  8
0
 10
89.83
 20
176.87
 11
90.3111
 21
177.265
  0
LINE
  8
0
 10
90.3111
 20
177.265
 11
90.86
 21
177.558
  0
LINE
  8
0
 10
90.86
 20
177.558
 11
91.4556
 21
177.739
  0
LINE
  8
0
 10
91.4556
 20
177.739
 11
92.075
 21
177.8
  0
LINE
  8
0
 10
92.075
 20
177.8
 11
92.6944
 21
177.739
  0
LINE
  8
0
 10
92.6944
 20
177.739
 11
93.29
 21
177.558
  0
LINE
  8
0
 10
93.29
 20
177.558
 11
93.8389
 21
177.265
  0
LINE
  8
0
 10
93.8389
 20
177.265
 11
94.32
 21
176.87
  0
LINE
  8
0
 10
94.32
 20
176.87
 11
94.7149
 21
176.389
  0
LINE
  8
0
 10
94.7149
 20
176.389
 11
95.0083
 21
175.84
  0
LINE
  8
0
 10
95.0083
 20
175.84
 11
95.189
 21
175.244
  0
LINE
  8
0
 10
95.189
 20
175.244
 11
95.25
 21
174.625
  0
LINE
  8
0
 10
95.25
 20
174.625
 11
95.25
 21
53.975
  0
LINE
  8
0
 10
95.25
 20
53.975
 11
95.189
 21
53.3556
  0
LINE
  8
0
 10
95.189
 20
53.3556
 11
95.0083
 21
52.76
  0
LINE
  8
0
 10
95.0083
 20
52.76
 11
94.7149
 21
52.2111
  0
LINE
  8
0
 10
94.7149
 20
52.2111
 11
94.32
 21
51.7299
  0
LINE
  8
0
 10
94.32
 20
51.7299
 11
93.8389
 21
51.3351
  0
LINE
  8
0
 10
93.8389
 20
51.3351
 11
93.29
 21
51.0417
  0
LINE
  8
0
 10
93.29
 20
51.0417
 11
92.6944
 21
50.861
  0
LINE
  8
0
 10
92.6944
 20
50.861
 11
92.075
 21
50.8
  0
LINE
  8
0
 10
92.075
 20
50.8
 11
91.4556
 21
50.861
  0
LINE
  8
0
 10
241.542
 20
175.84
 11
241.835
 21
176.389
  0
LINE
  8
0
 10
241.835
 20
176.389
 11
242.23
 21
176.87
  0
LINE
  8
0
 10
242.23
 20
176.87
 11
242.711
 21
177.265
  0
LINE
  8
0
 10
242.711
 20
177.265
 11
243.26
 21
177.558
  0
LINE
  8
0
 10
243.26
 20
177.558
 11
243.856
 21
177.739
  0
LINE
  8
0
 10
243.856
 20
177.739
 11
244.475
 21
177.8
  0
LINE
  8
0
 10
244.475
 20
177.8
 11
245.094
 21
177.739
  0
LINE
  8
0
 10
245.094
 20
177.739
 11
245.69
 21
177.558
  0
LINE
  8
0
 10
245.69
 20
177.558
 11
246.239
 21
177.265
  0
LINE
  8
0
 10
246.239
 20
177.265
 11
246.72
 21
176.87
  0
LINE
  8
0
 10
246.72
 20
176.87
 11
247.115
 21
176.389
  0
LINE
  8
0
 10
247.115
 20
176.389
 11
247.408
 21
175.84
  0
LINE
  8
0
 10
247.408
 20
175.84
 11
247.589
 21
175.244
  0
LINE
  8
0
 10
247.589
 20
175.244
 11
247.65
 21
174.625
  0
LINE
  8
0
 10
247.65
 20
174.625
 11
247.65
 21
53.975
  0
LINE
  8
0
 10
247.65
 20
53.975
 11
247.589
 21
53.3556
  0
LINE
  8
0
 10
247.589
 20
53.3556
 11
247.408
 21
52.76
  0
LINE
  8
0
 10
247.408
 20
52.76
 11
247.115
 21
52.2111
  0
LINE
  8
0
 10
247.115
 20
52.2111
 11
246.72
 21
51.7299
  0
LINE
  8
0
 10
246.72
 20
51.7299
 11
246.239
 21
51.3351
  0
LINE
  8
0
 10
246.239
 20
51.3351
 11
245.69
 21
51.0417
  0
LINE
  8
0
 10
245.69
 20
51.0417
 11
245.094
 21
50.861
  0
LINE
  8
0
 10
245.094
 20
50.861
 11
244.475
 21
50.8
  0
LINE
  8
0
 10
244.475
 20
50.8
 11
243.856
 21
50.861
  0
LINE
  8
0
 10
243.856
 20
50.861
 11
243.26
 21
51.0417
  0
LINE
  8
0
 10
243.26
 20
51.0417
 11
242.711
 21
51.3351
  0
LINE
  8
0
 10
242.711
 20
51.3351
 11
242.23
 21
51.7299
  0
LINE
  8
0
 10
242.23
 20
51.7299
 11
241.835
 21
52.2111
  0
LINE
  8
0
 10
241.835
 20
52.2111
 11
241.542
 21
52.76
  0
LINE
  8
0
 10
241.542
 20
52.76
 11
241.361
 21
53.3556
  0
LINE
  8
0
 10
241.361
 20
53.3556
 11
241.3
 21
53.975
  0
LINE
  8
0
 10
241.3
 20
53.975
 11
241.3
 21
174.625
  0
LINE
  8
0
 10
241.3
 20
174.625
 11
241.361
 21
175.244
  0
LINE
  8
0
 10
241.361
 20
175.244
 11
241.542
 21
175.84
  0
LINE
  8
0
 10
193.056
 20
50.861
 11
192.46
 21
51.0417
  0
LINE
  8
0
 10
192.46
 20
51.0417
 11
191.911
 21
51.3351
  0
LINE
  8
0
 10
191.911
 20
51.3351
 11
191.43
 21
51.7299
  0
LINE
  8
0
 10
191.43
 20
51.7299
 11
191.035
 21
52.2111
  0
LINE
  8
0
 10
191.035
 20
52.2111
 11
190.742
 21
52.76
  0
LINE
  8
0
 10
190.742
 20
52.76
 11
190.561
 21
53.3556
  0
LINE
  8
0
 10
190.561
 20
53.3556
 11
190.5
 21
53.975
  0
LINE
  8
0
 10
190.5
 20
53.975
 11
190.5
 21
174.625
  0
LINE
  8
0
 10
190.5
 20
174.625
 11
190.561
 21
175.244
  0
LINE
  8
0
 10
190.561
 20
175.244
 11
190.742
 21
175.84
  0
LINE
  8
0
 10
190.742
 20
175.84
 11
191.035
 21
176.389
  0
LINE
  8
0
 10
191.035
 20
176.389
 11
191.43
 21
176.87
  0
LINE
  8
0
 10
191.43
 20
176.87
 11
191.911
 21
177.265
  0
LINE
  8
0
 10
191.911
 20
177.265
 11
192.46
 21
177.558
  0
LINE
  8
0
 10
192.46
 20
177.558
 11
193.056
 21
177.739
  0
LINE
  8
0
 10
193.056
 20
177.739
 11
193.675
 21
177.8
  0
LINE
  8
0
 10
193.675
 20
177.8
 11
194.294
 21
177.739
  0
LINE
  8
0
 10
194.294
 20
177.739
 11
194.89
 21
177.558
  0
LINE
  8
0
 10
194.89
 20
177.558
 11
195.439
 21
177.265
  0
LINE
  8
0
 10
195.439
 20
177.265
 11
195.92
 21
176.87
  0
LINE
  8
0
 10
195.92
 20
176.87
 11
196.315
 21
176.389
  0
LINE
  8
0
 10
196.315
 20
176.389
 11
196.608
 21
175.84
  0
LINE
  8
0
 10
196.608
 20
175.84
 11
196.789
 21
175.244
  0
LINE
  8
0
 10
196.789
 20
175.244
 11
196.85
 21
174.625
  0
LINE
  8
0
 10
196.85
 20
174.625
 11
196.85
 21
53.975
  0
LINE
  8
0
 10
196.85
 20
53.975
 11
196.789
 21
53.3556
  0
LINE
  8
0
 10
196.789
 20
53.3556
 11
196.608
 21
52.76
  0
LINE
  8
0
 10
196.608
 20
52.76
 11
196.315
 21
52.2111
  0
LINE
  8
0
 10
196.315
 20
52.2111
 11
195.92
 21
51.7299
  0
LINE
  8
0
 10
195.92
 20
51.7299
 11
195.439
 21
51.3351
  0
LINE
  8
0
 10
195.439
 20
51.3351
 11
194.89
 21
51.0417
  0
LINE
  8
0
 10
194.89
 20
51.0417
 11
194.294
 21
50.861
  0
LINE
  8
0
 10
194.294
 20
50.861
 11
193.675
 21
50.8
  0
LINE
  8
0
 10
193.675
 20
50.8
 11
193.056
 21
50.861
  0
LINE
  8
0
 10
167.656
 20
50.861
 11
167.06
 21
51.0417
  0
LINE
  8
0
 10
167.06
 20
51.0417
 11
166.511
 21
51.3351
  0
LINE
  8
0
 10
166.511
 20
51.3351
 11
166.03
 21
51.7299
  0
LINE
  8
0
 10
166.03
 20
51.7299
 11
165.635
 21
52.2111
  0
LINE
  8
0
 10
165.635
 20
52.2111
 11
165.342
 21
52.76
  0
LINE
  8
0
 10
165.342
 20
52.76
 11
165.161
 21
53.3556
  0
LINE
  8
0
 10
165.161
 20
53.3556
 11
165.1
 21
53.975
  0
LINE
  8
0
 10
165.1
 20
53.975
 11
165.1
 21
174.625
  0
LINE
  8
0
 10
165.1
 20
174.625
 11
165.161
 21
175.244
  0
LINE
  8
0
 10
165.161
 20
175.244
 11
165.342
 21
175.84
  0
LINE
  8
0
 10
165.342
 20
175.84
 11
165.635
 21
176.389
  0
LINE
  8
0
 10
165.635
 20
176.389
 11
166.03
 21
176.87
  0
LINE
  8
0
 10
166.03
 20
176.87
 11
166.511
 21
177.265
  0
LINE
  8
0
 10
166.511
 20
177.265
 11
167.06
 21
177.558
  0
LINE
  8
0
 10
167.06
 20
177.558
 11
167.656
 21
177.739
  0
LINE
  8
0
 10
167.656
 20
177.739
 11
168.275
 21
177.8
  0
LINE
  8
0
 10
168.275
 20
177.8
 11
168.894
 21
177.739
  0
LINE
  8
0
 10
168.894
 20
177.739
 11
169.49
 21
177.558
  0
LINE
  8
0
 10
169.49
 20
177.558
 11
170.039
 21
177.265
  0
LINE
  8
0
 10
170.039
 20
177.265
 11
170.52
 21
176.87
  0
LINE
  8
0
 10
170.52
 20
176.87
 11
170.915
 21
176.389
  0
LINE
  8
0
 10
170.915
 20
176.389
 11
171.208
 21
175.84
  0
LINE
  8
0
 10
171.208
 20
175.84
 11
171.389
 21
175.244
  0
LINE
  8
0
 10
171.389
 20
175.244
 11
171.45
 21
174.625
  0
LINE
  8
0
 10
171.45
 20
174.625
 11
171.45
 21
53.975
  0
LINE
  8
0
 10
171.45
 20
53.975
 11
171.389
 21
53.3556
  0
LINE
  8
0
 10
171.389
 20
53.3556
 11
171.208
 21
52.76
  0
LINE
  8
0
 10
171.208
 20
52.76
 11
170.915
 21
52.2111
  0
LINE
  8
0
 10
170.915
 20
52.2111
 11
170.52
 21
51.7299
  0
LINE
  8
0
 10
170.52
 20
51.7299
 11
170.039
 21
51.3351
  0
LINE
  8
0
 10
170.039
 20
51.3351
 11
169.49
 21
51.0417
  0
LINE
  8
0
 10
169.49
 20
51.0417
 11
168.894
 21
50.861
  0
LINE
  8
0
 10
168.894
 20
50.861
 11
168.275
 21
50.8
  0
LINE
  8
0
 10
168.275
 20
50.8
 11
167.656
 21
50.861
  0
LINE
  8
0
 10
142.256
 20
50.861
 11
141.66
 21
51.0417
  0
LINE
  8
0
 10
141.66
 20
51.0417
 11
141.111
 21
51.3351
  0
LINE
  8
0
 10
141.111
 20
51.3351
 11
140.63
 21
51.7299
  0
LINE
  8
0
 10
140.63
 20
51.7299
 11
140.235
 21
52.2111
  0
LINE
  8
0
 10
140.235
 20
52.2111
 11
139.942
 21
52.76
  0
LINE
  8
0
 10
139.942
 20
52.76
 11
139.761
 21
53.3556
  0
LINE
  8
0
 10
139.761
 20
53.3556
 11
139.7
 21
53.975
  0
LINE
  8
0
 10
139.7
 20
53.975
 11
139.7
 21
174.625
  0
LINE
  8
0
 10
139.7
 20
174.625
 11
139.761
 21
175.244
  0
LINE
  8
0
 10
139.761
 20
175.244
 11
139.942
 21
175.84
  0
LINE
  8
0
 10
139.942
 20
175.84
 11
140.235
 21
176.389
  0
LINE
  8
0
 10
140.235
 20
176.389
 11
140.63
 21
176.87
  0
LINE
  8
0
 10
140.63
 20
176.87
 11
141.111
 21
177.265
  0
LINE
  8
0
 10
141.111
 20
177.265
 11
141.66
 21
177.558
  0
LINE
  8
0
 10
141.66
 20
177.558
 11
142.256
 21
177.739
  0
LINE
  8
0
 10
142.256
 20
177.739
 11
142.875
 21
177.8
  0
LINE
  8
0
 10
142.875
 20
177.8
 11
143.494
 21
177.739
  0
LINE
  8
0
 10
143.494
 20
177.739
 11
144.09
 21
177.558
  0
LINE
  8
0
 10
144.09
 20
177.558
 11
144.639
 21
177.265
  0
LINE
  8
0
 10
144.639
 20
177.265
 11
145.12
 21
176.87
  0
LINE
  8
0
 10
145.12
 20
176.87
 11
145.515
 21
176.389
  0
LINE
  8
0
 10
145.515
 20
176.389
 11
145.808
 21
175.84
  0
LINE
  8
0
 10
145.808
 20
175.84
 11
145.989
 21
175.244
  0
LINE
  8
0
 10
145.989
 20
175.244
 11
146.05
 21
174.625
  0
LINE
  8
0
 10
146.05
 20
174.625
 11
146.05
 21
53.975
  0
LINE
  8
0
 10
146.05
 20
53.975
 11
145.989
 21
53.3556
  0
LINE
  8
0
 10
145.989
 20
53.3556
 11
145.808
 21
52.76
  0
LINE
  8
0
 10
145.808
 20
52.76
 11
145.515
 21
52.2111
  0
LINE
  8
0
 10
145.515
 20
52.2111
 11
145.12
 21
51.7299
  0
LINE
  8
0
 10
145.12
 20
51.7299
 11
144.639
 21
51.3351
  0
LINE
  8
0
 10
144.639
 20
51.3351
 11
144.09
 21
51.0417
  0
LINE
  8
0
 10
144.09
 20
51.0417
 11
143.494
 21
50.861
  0
LINE
  8
0
 10
143.494
 20
50.861
 11
142.875
 21
50.8
  0
LINE
  8
0
 10
142.875
 20
50.8
 11
142.256
 21
50.861
  0
LINE
  8
0
 10
116.856
 20
50.861
 11
116.26
 21
51.0417
  0
LINE
  8
0
 10
116.26
 20
51.0417
 11
115.711
 21
51.3351
  0
LINE
  8
0
 10
115.711
 20
51.3351
 11
115.23
 21
51.7299
  0
LINE
  8
0
 10
115.23
 20
51.7299
 11
114.835
 21
52.2111
  0
LINE
  8
0
 10
114.835
 20
52.2111
 11
114.542
 21
52.76
  0
LINE
  8
0
 10
114.542
 20
52.76
 11
114.361
 21
53.3556
  0
LINE
  8
0
 10
114.361
 20
53.3556
 11
114.3
 21
53.975
  0
LINE
  8
0
 10
114.3
 20
53.975
 11
114.3
 21
174.625
  0
LINE
  8
0
 10
114.3
 20
174.625
 11
114.361
 21
175.244
  0
LINE
  8
0
 10
114.361
 20
175.244
 11
114.542
 21
175.84
  0
LINE
  8
0
 10
114.542
 20
175.84
 11
114.835
 21
176.389
  0
LINE
  8
0
 10
114.835
 20
176.389
 11
115.23
 21
176.87
  0
LINE
  8
0
 10
115.23
 20
176.87
 11
115.711
 21
177.265
  0
LINE
  8
0
 10
115.711
 20
177.265
 11
116.26
 21
177.558
  0
LINE
  8
0
 10
116.26
 20
177.558
 11
116.856
 21
177.739
  0
LINE
  8
0
 10
116.856
 20
177.739
 11
117.475
 21
177.8
  0
LINE
  8
0
 10
117.475
 20
177.8
 11
118.094
 21
177.739
  0
LINE
  8
0
 10
118.094
 20
177.739
 11
118.69
 21
177.558
  0
LINE
  8
0
 10
118.69
 20
177.558
 11
119.239
 21
177.265
  0
LINE
  8
0
 10
119.239
 20
177.265
 11
119.72
 21
176.87
  0
LINE
  8
0
 10
119.72
 20
176.87
 11
120.115
 21
176.389
  0
LINE
  8
0
 10
120.115
 20
176.389
 11
120.408
 21
175.84
  0
LINE
  8
0
 10
120.408
 20
175.84
 11
120.589
 21
175.244
  0
LINE
  8
0
 10
120.589
 20
175.244
 11
120.65
 21
174.625
  0
LINE
  8
0
 10
120.65
 20
174.625
 11
120.65
 21
53.975
  0
LINE
  8
0
 10
120.65
 20
53.975
 11
120.589
 21
53.3556
  0
LINE
  8
0
 10
120.589
 20
53.3556
 11
120.408
 21
52.76
  0
LINE
  8
0
 10
120.408
 20
52.76
 11
120.115
 21
52.2111
  0
LINE
  8
0
 10
120.115
 20
52.2111
 11
119.72
 21
51.7299
  0
LINE
  8
0
 10
119.72
 20
51.7299
 11
119.239
 21
51.3351
  0
LINE
  8
0
 10
119.239
 20
51.3351
 11
118.69
 21
51.0417
  0
LINE
  8
0
 10
118.69
 20
51.0417
 11
118.094
 21
50.861
  0
LINE
  8
0
 10
118.094
 20
50.861
 11
117.475
 21
50.8
  0
LINE
  8
0
 10
117.475
 20
50.8
 11
116.856
 21
50.861
  0
LINE
  8
0
 10
272.989
 20
53.3556
 11
272.808
 21
52.76
  0
LINE
  8
0
 10
272.808
 20
52.76
 11
272.515
 21
52.2111
  0
LINE
  8
0
 10
272.515
 20
52.2111
 11
272.12
 21
51.7299
  0
LINE
  8
0
 10
272.12
 20
51.7299
 11
271.639
 21
51.3351
  0
LINE
  8
0
 10
271.639
 20
51.3351
 11
271.09
 21
51.0417
  0
LINE
  8
0
 10
271.09
 20
51.0417
 11
270.494
 21
50.861
  0
LINE
  8
0
 10
270.494
 20
50.861
 11
269.875
 21
50.8
  0
LINE
  8
0
 10
269.875
 20
50.8
 11
269.256
 21
50.861
  0
LINE
  8
0
 10
269.256
 20
50.861
 11
268.66
 21
51.0417
  0
LINE
  8
0
 10
268.66
 20
51.0417
 11
268.111
 21
51.3351
  0
LINE
  8
0
 10
268.111
 20
51.3351
 11
267.63
 21
51.7299
  0
LINE
  8
0
 10
267.63
 20
51.7299
 11
267.235
 21
52.2111
  0
LINE
  8
0
 10
267.235
 20
52.2111
 11
266.942
 21
52.76
  0
LINE
  8
0
 10
266.942
 20
52.76
 11
266.761
 21
53.3556
  0
LINE
  8
0
 10
266.761
 20
53.3556
 11
266.7
 21
53.975
  0
LINE
  8
0
 10
266.7
 20
53.975
 11
266.7
 21
174.625
  0
LINE
  8
0
 10
266.7
 20
174.625
 11
266.761
 21
175.244
  0
LINE
  8
0
 10
266.761
 20
175.244
 11
266.942
 21
175.84
  0
LINE
  8
0
 10
266.942
 20
175.84
 11
267.235
 21
176.389
  0
LINE
  8
0
 10
267.235
 20
176.389
 11
267.63
 21
176.87
  0
LINE
  8
0
 10
267.63
 20
176.87
 11
268.111
 21
177.265
  0
LINE
  8
0
 10
268.111
 20
177.265
 11
268.66
 21
177.558
  0
LINE
  8
0
 10
268.66
 20
177.558
 11
269.256
 21
177.739
  0
LINE
  8
0
 10
269.256
 20
177.739
 11
269.875
 21
177.8
  0
LINE
  8
0
 10
269.875
 20
177.8
 11
270.494
 21
177.739
  0
LINE
  8
0
 10
270.494
 20
177.739
 11
271.09
 21
177.558
  0
LINE
  8
0
 10
271.09
 20
177.558
 11
271.639
 21
177.265
  0
LINE
  8
0
 10
271.639
 20
177.265
 11
272.12
 21
176.87
  0
LINE
  8
0
 10
272.12
 20
176.87
 11
272.515
 21
176.389
  0
LINE
  8
0
 10
272.515
 20
176.389
 11
272.808
 21
175.84
  0
LINE
  8
0
 10
272.808
 20
175.84
 11
272.989
 21
175.244
  0
LINE
  8
0
 10
272.989
 20
175.244
 11
273.05
 21
174.625
  0
LINE
  8
0
 10
273.05
 20
174.625
 11
273.05
 21
53.975
  0
LINE
  8
0
 10
273.05
 20
53.975
 11
272.989
 21
53.3556
  0
LINE
  8
0
 10
222.189
 20
53.3556
 11
222.008
 21
52.76
  0
LINE
  8
0
 10
222.008
 20
52.76
 11
221.715
 21
52.2111
  0
LINE
  8
0
 10
221.715
 20
52.2111
 11
221.32
 21
51.7299
  0
LINE
  8
0
 10
221.32
 20
51.7299
 11
220.839
 21
51.3351
  0
LINE
  8
0
 10
220.839
 20
51.3351
 11
220.29
 21
51.0417
  0
LINE
  8
0
 10
220.29
 20
51.0417
 11
219.694
 21
50.861
  0
LINE
  8
0
 10
219.694
 20
50.861
 11
219.075
 21
50.8
  0
LINE
  8
0
 10
219.075
 20
50.8
 11
218.456
 21
50.861
  0
LINE
  8
0
 10
218.456
 20
50.861
 11
217.86
 21
51.0417
  0
LINE
  8
0
 10
217.86
 20
51.0417
 11
217.311
 21
51.3351
  0
LINE
  8
0
 10
217.311
 20
51.3351
 11
216.83
 21
51.7299
  0
LINE
  8
0
 10
216.83
 20
51.7299
 11
216.435
 21
52.2111
  0
LINE
  8
0
 10
216.435
 20
52.2111
 11
216.142
 21
52.76
  0
LINE
  8
0
 10
216.142
 20
52.76
 11
215.961
 21
53.3556
  0
LINE
  8
0
 10
215.961
 20
53.3556
 11
215.9
 21
53.975
  0
LINE
  8
0
 10
215.9
 20
53.975
 11
215.9
 21
174.625
  0
LINE
  8
0
 10
215.9
 20
174.625
 11
215.961
 21
175.244
  0
LINE
  8
0
 10
215.961
 20
175.244
 11
216.142
 21
175.84
  0
LINE
  8
0
 10
216.142
 20
175.84
 11
216.435
 21
176.389
  0
LINE
  8
0
 10
216.435
 20
176.389
 11
216.83
 21
176.87
  0
LINE
  8
0
 10
216.83
 20
176.87
 11
217.311
 21
177.265
  0
LINE
  8
0
 10
217.311
 20
177.265
 11
217.86
 21
177.558
  0
LINE
  8
0
 10
217.86
 20
177.558
 11
218.456
 21
177.739
  0
LINE
  8
0
 10
218.456
 20
177.739
 11
219.075
 21
177.8
  0
LINE
  8
0
 10
219.075
 20
177.8
 11
219.694
 21
177.739
  0
LINE
  8
0
 10
219.694
 20
177.739
 11
220.29
 21
177.558
  0
LINE
  8
0
 10
220.29
 20
177.558
 11
220.839
 21
177.265
  0
LINE
  8
0
 10
220.839
 20
177.265
 11
221.32
 21
176.87
  0
LINE
  8
0
 10
221.32
 20
176.87
 11
221.715
 21
176.389
  0
LINE
  8
0
 10
221.715
 20
176.389
 11
222.008
 21
175.84
  0
LINE
  8
0
 10
222.008
 20
175.84
 11
222.189
 21
175.244
  0
LINE
  8
0
 10
222.189
 20
175.244
 11
222.25
 21
174.625
  0
LINE
  8
0
 10
222.25
 20
174.625
 11
222.25
 21
53.975
  0
LINE
  8
0
 10
222.25
 20
53.975
 11
222.189
 21
53.3556
  0
ENDSEC
  0
SECTION
  2
OBJECTS
  0
DICTIONARY
  0
ENDSEC
  0
EOF
