M48
; DRILL file {KiCad 5.1.8-db9833491~88~ubuntu20.04.1} date Fri Dec  4 12:28:14 2020
; FORMAT={-:-/ absolute / inch / decimal}
; #@! TF.CreationDate,2020-12-04T12:28:14-05:00
; #@! TF.GenerationSoftware,Kicad,Pcbnew,5.1.8-db9833491~88~ubuntu20.04.1
; #@! TF.FileFunction,Plated,1,2,PTH
FMAT,2
INCH
T1C0.0157
T2C0.0394
%
G90
G05
T1
X3.9961Y-1.6043
X4.0118Y-2.4862
X4.0571Y-2.498
X4.065Y-3.2972
X4.0925Y-2.7618
X4.128Y-2.6772
X4.1654Y-2.378
X4.1752Y-2.2146
X4.1772Y-1.3839
T2
X4.2661Y-3.8406
X4.3661Y-3.8406
X3.625Y-3.35
X3.625Y-3.45
X3.625Y-3.55
X3.625Y-3.65
X3.625Y-3.75
X3.625Y-3.85
X3.725Y-3.35
X3.725Y-3.45
X3.725Y-3.55
X3.725Y-3.65
X3.725Y-3.75
X3.725Y-3.85
X3.625Y-2.325
X3.625Y-2.425
X3.625Y-2.525
X3.625Y-2.625
X3.625Y-2.725
X3.625Y-2.825
X3.725Y-2.325
X3.725Y-2.425
X3.725Y-2.525
X3.725Y-2.625
X3.725Y-2.725
X3.725Y-2.825
X3.625Y-1.3
X3.625Y-1.4
X3.625Y-1.5
X3.625Y-1.6
X3.625Y-1.7
X3.625Y-1.8
X3.725Y-1.3
X3.725Y-1.4
X3.725Y-1.5
X3.725Y-1.6
X3.725Y-1.7
X3.725Y-1.8
X4.2638Y-3.5098
X4.3638Y-3.5098
T0
M30
