%TF.GenerationSoftware,KiCad,Pcbnew,5.1.8-db9833491~88~ubuntu20.04.1*%
%TF.CreationDate,2020-12-04T12:29:55-05:00*%
%TF.ProjectId,lcd_pmod_breakout,6c63645f-706d-46f6-945f-627265616b6f,rev?*%
%TF.SameCoordinates,Original*%
%TF.FileFunction,Soldermask,Bot*%
%TF.FilePolarity,Negative*%
%FSLAX46Y46*%
G04 Gerber Fmt 4.6, Leading zero omitted, Abs format (unit mm)*
G04 Created by KiCad (PCBNEW 5.1.8-db9833491~88~ubuntu20.04.1) date 2020-12-04 12:29:55*
%MOMM*%
%LPD*%
G01*
G04 APERTURE LIST*
%ADD10R,1.700000X1.700000*%
%ADD11O,1.700000X1.700000*%
G04 APERTURE END LIST*
D10*
%TO.C,J1*%
X94615000Y-97790000D03*
D11*
X92075000Y-97790000D03*
X94615000Y-95250000D03*
X92075000Y-95250000D03*
X94615000Y-92710000D03*
X92075000Y-92710000D03*
X94615000Y-90170000D03*
X92075000Y-90170000D03*
X94615000Y-87630000D03*
X92075000Y-87630000D03*
X94615000Y-85090000D03*
X92075000Y-85090000D03*
%TD*%
%TO.C,J2*%
X92075000Y-33020000D03*
X94615000Y-33020000D03*
X92075000Y-35560000D03*
X94615000Y-35560000D03*
X92075000Y-38100000D03*
X94615000Y-38100000D03*
X92075000Y-40640000D03*
X94615000Y-40640000D03*
X92075000Y-43180000D03*
X94615000Y-43180000D03*
X92075000Y-45720000D03*
D10*
X94615000Y-45720000D03*
%TD*%
%TO.C,J3*%
X94615000Y-71755000D03*
D11*
X92075000Y-71755000D03*
X94615000Y-69215000D03*
X92075000Y-69215000D03*
X94615000Y-66675000D03*
X92075000Y-66675000D03*
X94615000Y-64135000D03*
X92075000Y-64135000D03*
X94615000Y-61595000D03*
X92075000Y-61595000D03*
X94615000Y-59055000D03*
X92075000Y-59055000D03*
%TD*%
D10*
%TO.C,J4*%
X110900000Y-97550000D03*
D11*
X108360000Y-97550000D03*
%TD*%
D10*
%TO.C,J6*%
X108300000Y-89150000D03*
D11*
X110840000Y-89150000D03*
%TD*%
M02*
